<svg xmlns="http://www.w3.org/2000/svg" width="353" viewBox="0 0 264.75 375" height="500" version="1.0"><defs><clipPath id="a"><path d="M1 1h262v373.82H1zm0 0"/></clipPath><clipPath id="b"><path d="M12 35h240v339.82H12zm0 0"/></clipPath><clipPath id="c"><path d="M49 84h184v290.82H49zm0 0"/></clipPath><clipPath id="d"><path d="M73 269h139v105.82H73zm0 0"/></clipPath></defs><g clip-path="url(#a)"><path fill="#eb451d" d="M259.941 216.543c-27.851 35.61-40.261 52.836-47.636 39.27-19.672-36.204 72.738-77.028-29.016-162.266 15.941 55.129-.394 95.523-2.644 94.605-4.262-1.738 7.636-131.609-80.625-187.07-.094 14.844 13.554 93.332-19.395 74.297C23.82 98.902 78.187 250.64 78.187 250.64s-59.71-9.797-42.894-81.383c-7.172 6.297-15.36 11.836-23.047 28.762-18.715 41.207-13.316 89.738 14.285 125.597 20.621 26.793 51.336 45.414 86.442 50.23 11.777 1.575 28.074.743 36.007 0 64.196-8.808 113.7-63.777 113.7-130.452 0-9.204-.946-18.184-2.739-26.852"/></g><path fill="#eb451d" d="M80.484 10.86s-19.18 1.163-14.629 14.367C70.41 38.434 83.63 44.73 73.594 54.379c17.328-5.89 15.039-15.246 11.152-19.047-7.633-7.477-13.55-22.414-4.262-24.473M27.531 94.648S8.348 95.813 12.902 109.02c4.551 13.203 17.77 19.5 7.735 29.148 17.328-5.883 15.035-15.246 11.152-19.043-7.637-7.477-13.547-22.414-4.258-24.477M207.352 51.133s-19.184 1.16-14.63 14.367c4.551 13.203 17.774 19.504 7.739 29.148 17.324-5.882 15.031-15.242 11.152-19.043-7.636-7.476-13.55-22.414-4.261-24.472"/><g clip-path="url(#b)"><path fill="#ff8615" d="M129.148 374.742c-5.8 0-10.75-.265-14.71-.797-31.52-4.324-59.645-20.672-79.16-46.023C10.315 295.5 5.217 252.168 21.87 214.594c1.348 10.957 4.883 20.761 10.598 29.332 15.898 23.832 42.797 28.488 43.933 28.676l18.512 3.039-6.332-17.676c-.133-.371-13.39-37.668-19.613-77.074-4.047-25.621-7.528-68.88 11.933-82.121 3.016 1.12 5.922 1.671 8.774 1.671h.004c5.785-.004 10.933-2.293 14.886-6.617 9.88-10.812 10.137-32.996 8.317-58.004 49.648 45.77 53.691 121.274 55.32 151.63.7 13.066 1.02 19.03 8.274 21.988l2.003.816 2.25.016c2.16 0 6.274-.657 9.551-5.02 4.774-6.36 13.52-32.371 10.281-68.46 12.012 14.132 18.633 27.546 20.09 40.562 1.875 16.77-5.011 31.09-11.675 44.937-7.723 16.059-15.711 32.66-6.368 49.856 4.914 9.043 11.973 10.394 15.743 10.394h.003c10.094 0 18.735-8.402 33.27-26.484-.383 28.773-11.004 56.422-30.008 78.011-19.125 21.73-45.363 35.875-73.902 39.852-2.41.219-9.832.824-18.567.824"/></g><g clip-path="url(#c)"><path fill="#fbde57" d="M129.148 374.742c-6.011 0-9.726-.328-11.785-.601-25.675-3.524-73.843-65.286-66.64-90.438 31.43 26.746 75.57 15.594 75.57 15.594s-80.125-122.059 5.621-214.531c0 44.48-16.648 63.27 18.238 139.254 8.985 19.574 33.989 9.265 33.989 9.265-3.114 8.988-16.078 67.055 48.593 61.309-10.765 43.992-64.437 76.117-87.543 79.46-2.418.208-8.746.688-16.043.688"/></g><g clip-path="url(#d)"><path fill="#ffefb0" d="M211.39 323.094c-11.468 5.941-17.921 15.754-36.472 14.508-17.117-1.149-17.848-67.973-17.848-67.973-1.27.605-15.242 46.933-40.86 56.672-16.757 6.367-42.343.683-42.304.773 8.684 18.727 37.133 41.938 45.266 47.371 10.773.703 23.195.024 29.808-.597.715-.098 1.426-.2 2.133-.309 11.07-4.191 46.469-29.176 60.278-50.445"/></g></svg>