<svg xmlns="http://www.w3.org/2000/svg" xmlns:xlink="http://www.w3.org/1999/xlink" width="62" zoomAndPan="magnify" viewBox="0 0 46.5 35.25" height="47" preserveAspectRatio="xMidYMid meet" version="1.0"><defs><clipPath id="f98ad20fe6"><path d="M 0.742188 0 L 18 0 L 18 15 L 0.742188 15 Z M 0.742188 0 " clip-rule="nonzero"/></clipPath><clipPath id="284d83e886"><path d="M 9.820312 22.34375 L 38.175781 22.34375 L 38.175781 34.273438 L 9.820312 34.273438 Z M 9.820312 22.34375 " clip-rule="nonzero"/></clipPath><clipPath id="b29983a9eb"><path d="M 31.261719 0 L 45.25 0 L 45.25 13.980469 L 31.261719 13.980469 Z M 31.261719 0 " clip-rule="nonzero"/></clipPath></defs><g clip-path="url(#f98ad20fe6)"><path fill="#bf1e2e" d="M 13.835938 9.019531 L 16.292969 8.882812 C 16.617188 8.867188 16.921875 8.730469 17.152344 8.5 C 17.269531 8.382812 17.273438 8.191406 17.15625 8.074219 L 12.566406 3.488281 C 12.5625 3.484375 12.554688 3.476562 12.550781 3.46875 L 9.1875 0.109375 C 9.128906 0.0507812 9.054688 0.0195312 8.976562 0.0195312 C 8.894531 0.0195312 8.820312 0.0507812 8.765625 0.109375 L 7.773438 1.097656 C 7.691406 1.179688 7.691406 1.308594 7.773438 1.390625 L 9.835938 3.453125 C 9.957031 3.574219 9.957031 3.769531 9.835938 3.890625 C 9.777344 3.949219 9.699219 3.980469 9.617188 3.980469 C 9.539062 3.980469 9.460938 3.949219 9.402344 3.890625 L 7.335938 1.824219 C 7.257812 1.746094 7.128906 1.746094 7.046875 1.824219 L 6.105469 2.765625 C 6.027344 2.847656 6.027344 2.976562 6.105469 3.054688 L 7.089844 4.039062 C 7.207031 4.15625 7.230469 4.347656 7.125 4.472656 C 7.0625 4.546875 6.976562 4.582031 6.890625 4.582031 C 6.808594 4.582031 6.730469 4.550781 6.671875 4.492188 L 5.671875 3.492188 C 5.589844 3.410156 5.460938 3.410156 5.378906 3.492188 L 4.441406 4.433594 C 4.359375 4.511719 4.359375 4.640625 4.441406 4.722656 L 6.503906 6.785156 C 6.625 6.90625 6.625 7.101562 6.503906 7.222656 C 6.445312 7.28125 6.363281 7.3125 6.285156 7.3125 C 6.207031 7.3125 6.128906 7.28125 6.066406 7.222656 L 4.003906 5.15625 C 3.925781 5.078125 3.792969 5.078125 3.714844 5.15625 L 2.773438 6.097656 C 2.695312 6.179688 2.695312 6.308594 2.773438 6.386719 L 3.757812 7.375 C 3.875 7.488281 3.898438 7.679688 3.792969 7.804688 C 3.730469 7.878906 3.644531 7.914062 3.554688 7.914062 C 3.476562 7.914062 3.398438 7.882812 3.339844 7.824219 L 2.339844 6.824219 C 2.257812 6.742188 2.128906 6.742188 2.046875 6.824219 L 0.890625 7.980469 C 0.757812 8.113281 0.757812 8.332031 0.890625 8.464844 L 6.925781 14.5 C 7.058594 14.632812 7.273438 14.632812 7.410156 14.5 L 12.117188 9.789062 C 12.578125 9.332031 13.191406 9.054688 13.835938 9.019531 " fill-opacity="1" fill-rule="nonzero"/></g><path fill="#bf1e2e" d="M 17.855469 8.28125 C 18.210938 8.90625 20.070312 12.691406 17.078125 18.171875 C 17 18.3125 17.097656 18.480469 17.253906 18.480469 L 20.066406 18.480469 C 21.257812 15.84375 20.691406 11.523438 20.683594 11.476562 C 20.660156 11.308594 20.777344 11.152344 20.945312 11.132812 C 21.117188 11.109375 21.269531 11.226562 21.292969 11.394531 C 21.320312 11.578125 21.859375 15.683594 20.734375 18.480469 L 23.753906 18.480469 C 24.011719 17.265625 25.003906 11.429688 21.378906 6.980469 C 19.167969 4.265625 16.195312 3.738281 14.070312 3.613281 C 13.882812 3.605469 13.78125 3.832031 13.914062 3.964844 L 17.589844 7.640625 C 17.765625 7.816406 17.855469 8.046875 17.855469 8.28125 " fill-opacity="1" fill-rule="nonzero"/><g clip-path="url(#284d83e886)"><path fill="#bf1e2e" d="M 16.648438 34.195312 C 16.734375 34.246094 16.835938 34.273438 16.9375 34.273438 L 31.058594 34.273438 C 31.164062 34.273438 31.265625 34.246094 31.351562 34.195312 C 35.488281 31.679688 38.007812 27.355469 38.167969 22.554688 C 38.171875 22.441406 38.078125 22.34375 37.960938 22.34375 L 10.039062 22.34375 C 9.921875 22.34375 9.828125 22.441406 9.832031 22.554688 C 9.988281 27.355469 12.511719 31.679688 16.648438 34.195312 " fill-opacity="1" fill-rule="nonzero"/></g><path fill="#bf1e2e" d="M 37.621094 19.09375 L 10.378906 19.09375 C 10.070312 19.09375 9.820312 19.34375 9.820312 19.652344 L 9.820312 21.523438 C 9.820312 21.636719 9.914062 21.726562 10.027344 21.726562 L 37.972656 21.726562 C 38.085938 21.726562 38.179688 21.636719 38.179688 21.523438 L 38.179688 19.652344 C 38.179688 19.34375 37.929688 19.09375 37.621094 19.09375 " fill-opacity="1" fill-rule="nonzero"/><path fill="#bf1e2e" d="M 27.753906 9.226562 C 28.328125 9.226562 28.796875 9.691406 28.796875 10.269531 C 28.796875 10.84375 28.328125 11.3125 27.753906 11.3125 C 27.175781 11.3125 26.707031 10.84375 26.707031 10.269531 C 26.707031 9.691406 27.175781 9.226562 27.753906 9.226562 Z M 27.375 16.007812 C 27.074219 16.007812 26.832031 15.761719 26.832031 15.460938 C 26.832031 15.160156 27.074219 14.917969 27.375 14.917969 C 27.675781 14.917969 27.921875 15.160156 27.921875 15.460938 C 27.921875 15.761719 27.675781 16.007812 27.375 16.007812 Z M 24.382812 18.480469 L 34.019531 18.480469 C 34.140625 18.480469 34.238281 18.375 34.226562 18.253906 C 34.152344 17.523438 33.707031 15.253906 31.078125 15.25 C 31.035156 15.25 30.988281 15.253906 30.945312 15.257812 L 30.886719 15.261719 C 30.785156 15.265625 30.683594 15.21875 30.621094 15.136719 C 30.558594 15.050781 30.542969 14.941406 30.582031 14.84375 C 30.65625 14.652344 30.695312 14.449219 30.695312 14.25 C 30.695312 13.675781 30.402344 13.148438 29.910156 12.839844 C 29.828125 12.789062 29.773438 12.699219 29.765625 12.601562 C 29.761719 12.503906 29.800781 12.40625 29.875 12.34375 C 30.601562 11.722656 31.019531 10.820312 31.019531 9.867188 C 31.019531 9.101562 30.746094 8.355469 30.25 7.769531 C 30.148438 7.648438 30.152344 7.472656 30.257812 7.359375 C 30.261719 7.355469 30.558594 7.023438 30.660156 6.414062 C 30.664062 6.40625 30.664062 6.402344 30.664062 6.398438 C 30.6875 6.1875 30.773438 5.980469 30.9375 5.820312 L 33.832031 2.921875 C 33.890625 2.863281 33.910156 2.769531 33.875 2.691406 C 33.542969 2.027344 32.863281 1.601562 32.101562 1.601562 C 31.121094 1.601562 30.277344 2.332031 30.140625 3.304688 C 30.125 3.417969 30.046875 3.511719 29.941406 3.550781 C 29.832031 3.589844 29.714844 3.566406 29.628906 3.488281 C 29.023438 2.945312 28.167969 2.757812 27.363281 3.046875 C 26.464844 3.367188 25.863281 4.253906 25.882812 5.210938 C 25.890625 5.550781 25.976562 5.878906 26.132812 6.183594 C 26.136719 6.1875 26.136719 6.191406 26.136719 6.191406 C 26.140625 6.203125 26.144531 6.210938 26.148438 6.222656 C 26.152344 6.230469 26.15625 6.242188 26.15625 6.25 C 26.160156 6.257812 26.160156 6.269531 26.164062 6.277344 C 26.164062 6.289062 26.167969 6.300781 26.167969 6.3125 C 26.167969 6.3125 26.167969 6.316406 26.167969 6.320312 C 26.167969 6.324219 26.167969 6.332031 26.167969 6.335938 C 26.164062 6.347656 26.164062 6.359375 26.164062 6.371094 C 26.160156 6.382812 26.160156 6.390625 26.15625 6.398438 C 26.15625 6.410156 26.152344 6.417969 26.148438 6.429688 C 26.144531 6.4375 26.140625 6.445312 26.136719 6.457031 C 26.132812 6.464844 26.128906 6.472656 26.125 6.480469 C 26.117188 6.492188 26.113281 6.5 26.105469 6.507812 C 26.101562 6.515625 26.09375 6.523438 26.089844 6.53125 C 26.082031 6.539062 26.074219 6.542969 26.066406 6.550781 C 26.058594 6.558594 26.054688 6.5625 26.042969 6.570312 C 26.035156 6.578125 26.027344 6.582031 26.015625 6.589844 C 26.011719 6.589844 26.007812 6.597656 26 6.597656 C 26 6.601562 25.996094 6.601562 25.996094 6.601562 C 25.976562 6.609375 25.960938 6.617188 25.941406 6.621094 C 25.9375 6.621094 25.933594 6.625 25.929688 6.625 C 25.910156 6.628906 25.886719 6.632812 25.867188 6.632812 C 24.289062 6.667969 23.539062 7.707031 23.183594 8.617188 C 25.296875 12.707031 24.644531 17.164062 24.382812 18.480469 " fill-opacity="1" fill-rule="nonzero"/><g clip-path="url(#b29983a9eb)"><path fill="#bf1e2e" d="M 45.148438 7.238281 L 38.007812 0.101562 C 37.945312 0.0351562 37.859375 0 37.769531 0 C 37.675781 0 37.589844 0.0351562 37.527344 0.101562 L 31.371094 6.253906 C 31.238281 6.386719 31.238281 6.605469 31.371094 6.738281 L 38.511719 13.878906 C 38.644531 14.011719 38.859375 14.011719 38.992188 13.878906 L 45.148438 7.722656 C 45.214844 7.660156 45.25 7.574219 45.25 7.480469 C 45.25 7.390625 45.214844 7.304688 45.148438 7.238281 " fill-opacity="1" fill-rule="nonzero"/></g><path fill="#bf1e2e" d="M 27.753906 10.695312 C 27.988281 10.695312 28.179688 10.503906 28.179688 10.269531 C 28.179688 10.03125 27.988281 9.839844 27.753906 9.839844 C 27.515625 9.839844 27.324219 10.03125 27.324219 10.269531 C 27.324219 10.503906 27.515625 10.695312 27.753906 10.695312 " fill-opacity="1" fill-rule="nonzero"/></svg>