<svg xmlns="http://www.w3.org/2000/svg" xmlns:xlink="http://www.w3.org/1999/xlink" width="150" zoomAndPan="magnify" viewBox="0 0 112.5 112.499997" height="150" preserveAspectRatio="xMidYMid meet" version="1.0"><defs><clipPath id="fc3b8a7046"><path d="M 0 0 L 112.003906 0 L 112.003906 112.003906 L 0 112.003906 Z M 0 0 " clip-rule="nonzero"/></clipPath><clipPath id="bc86973a4c"><path d="M 5 59 L 106 59 L 106 103.320312 L 5 103.320312 Z M 5 59 " clip-rule="nonzero"/></clipPath><clipPath id="133de52102"><path d="M 45 8.492188 L 66 8.492188 L 66 29 L 45 29 Z M 45 8.492188 " clip-rule="nonzero"/></clipPath><clipPath id="c45f94aa5e"><path d="M 41 99 L 51 99 L 51 103.320312 L 41 103.320312 Z M 41 99 " clip-rule="nonzero"/></clipPath><clipPath id="82b389905a"><path d="M 59 99 L 69 99 L 69 103.320312 L 59 103.320312 Z M 59 99 " clip-rule="nonzero"/></clipPath><clipPath id="26cf5a171b"><path d="M 12 97 L 19 97 L 19 103.320312 L 12 103.320312 Z M 12 97 " clip-rule="nonzero"/></clipPath><clipPath id="3a9c20cb18"><path d="M 30 100 L 38 100 L 38 103.320312 L 30 103.320312 Z M 30 100 " clip-rule="nonzero"/></clipPath><clipPath id="e8fde55632"><path d="M 73 99 L 83 99 L 83 103.320312 L 73 103.320312 Z M 73 99 " clip-rule="nonzero"/></clipPath><clipPath id="c38b4f9718"><path d="M 92 96 L 101 96 L 101 103.320312 L 92 103.320312 Z M 92 96 " clip-rule="nonzero"/></clipPath><clipPath id="5e3a3b2164"><path d="M 96.847656 70.039062 L 107.867188 70.039062 L 107.867188 78.050781 L 96.847656 78.050781 Z M 96.847656 70.039062 " clip-rule="nonzero"/></clipPath><clipPath id="2157434c7c"><path d="M 4.078125 103.101562 L 107 103.101562 L 107 103.3125 L 4.078125 103.3125 Z M 4.078125 103.101562 " clip-rule="nonzero"/></clipPath></defs><g clip-path="url(#fc3b8a7046)"><path fill="#ffffff" d="M 0 0 L 112.003906 0 L 112.003906 112.003906 L 0 112.003906 Z M 0 0 " fill-opacity="1" fill-rule="nonzero"/><path fill="#ffffff" d="M 0 0 L 112.003906 0 L 112.003906 112.003906 L 0 112.003906 Z M 0 0 " fill-opacity="1" fill-rule="nonzero"/></g><g clip-path="url(#bc86973a4c)"><path fill="#f8f8f8" d="M 100.28125 103.226562 C 101.621094 101.445312 102.679688 99.441406 103.417969 97.351562 C 105.277344 92.085938 106.40625 85.480469 105.539062 79.964844 C 104.542969 73.609375 101.058594 67.9375 96.035156 63.914062 C 92.46875 61.054688 87.816406 59.714844 83.246094 59.785156 C 78.675781 59.855469 74.191406 61.273438 70.167969 63.445312 C 64.597656 66.453125 59.800781 70.898438 53.882812 73.15625 C 48.632812 75.15625 42.875 75.289062 37.257812 75.191406 C 31.636719 75.09375 25.945312 74.800781 20.460938 76.023438 C 14.976562 77.246094 9.601562 80.242188 6.933594 85.179688 C 4.847656 89.042969 4.660156 93.875 6.445312 97.890625 C 7.367188 99.964844 8.808594 101.796875 10.574219 103.226562 " fill-opacity="1" fill-rule="nonzero"/></g><path fill="#ffc35f" d="M 13.582031 24.199219 C 13.582031 24.199219 14.160156 19.773438 15.003906 19.683594 C 15.851562 19.597656 17.257812 23.929688 17.257812 23.929688 C 17.257812 23.929688 21.242188 23.355469 21.933594 23.976562 C 22.628906 24.59375 18.855469 27.425781 18.855469 27.425781 C 18.855469 27.425781 20.757812 31.492188 20.171875 31.972656 C 19.589844 32.453125 15.863281 29.707031 15.863281 29.707031 C 15.863281 29.707031 12.832031 32.960938 11.953125 32.617188 C 11.074219 32.277344 12.628906 27.753906 12.628906 27.753906 C 12.628906 27.753906 8.375 26.15625 8.609375 25.109375 C 8.789062 24.304688 13.582031 24.199219 13.582031 24.199219 " fill-opacity="1" fill-rule="nonzero"/><g clip-path="url(#133de52102)"><path fill="#ffc35f" d="M 52.925781 15.339844 C 52.925781 15.339844 54.191406 8.625 55.492188 8.566406 C 56.792969 8.503906 58.5625 15.246094 58.5625 15.246094 C 58.5625 15.246094 64.703125 14.714844 65.707031 15.71875 C 66.707031 16.726562 60.703125 20.722656 60.703125 20.722656 C 60.703125 20.722656 63.253906 27.101562 62.316406 27.785156 C 61.382812 28.46875 55.929688 23.953125 55.929688 23.953125 C 55.929688 23.953125 51.015625 28.65625 49.703125 28.058594 C 48.390625 27.460938 51.160156 20.683594 51.160156 20.683594 C 51.160156 20.683594 44.804688 17.875 45.25 16.292969 C 45.59375 15.082031 52.925781 15.339844 52.925781 15.339844 " fill-opacity="1" fill-rule="nonzero"/></g><path fill="#ffc35f" d="M 74.863281 18.335938 C 74.863281 18.335938 76.746094 13.09375 77.800781 13.210938 C 78.855469 13.328125 79.410156 18.984375 79.410156 18.984375 C 79.410156 18.984375 84.421875 19.339844 85.101562 20.277344 C 85.777344 21.21875 80.429688 23.664062 80.429688 23.664062 C 80.429688 23.664062 81.664062 29.121094 80.824219 29.554688 C 79.980469 29.984375 76.171875 25.652344 76.171875 25.652344 C 76.171875 25.652344 71.613281 28.804688 70.636719 28.15625 C 69.65625 27.507812 72.753906 22.410156 72.753906 22.410156 C 72.753906 22.410156 68 19.335938 68.566406 18.117188 C 68.996094 17.1875 74.863281 18.335938 74.863281 18.335938 " fill-opacity="1" fill-rule="nonzero"/><path fill="#ffc35f" d="M 32.128906 18.8125 C 32.128906 18.8125 33.449219 13.402344 34.511719 13.40625 C 35.570312 13.414062 36.722656 18.976562 36.722656 18.976562 C 36.722656 18.976562 41.742188 18.800781 42.515625 19.664062 C 43.289062 20.527344 38.230469 23.523438 38.230469 23.523438 C 38.230469 23.523438 40.035156 28.820312 39.246094 29.339844 C 38.453125 29.855469 34.207031 25.949219 34.207031 25.949219 C 34.207031 25.949219 30.007812 29.566406 28.96875 29.027344 C 27.925781 28.484375 30.464844 23.085938 30.464844 23.085938 C 30.464844 23.085938 25.414062 20.53125 25.84375 19.261719 C 26.175781 18.289062 32.128906 18.8125 32.128906 18.8125 " fill-opacity="1" fill-rule="nonzero"/><path fill="#ffc35f" d="M 94.027344 24.203125 C 94.027344 24.203125 94.765625 19.796875 95.613281 19.742188 C 96.464844 19.683594 97.707031 24.066406 97.707031 24.066406 C 97.707031 24.066406 101.714844 23.632812 102.382812 24.28125 C 103.050781 24.925781 99.179688 27.617188 99.179688 27.617188 C 99.179688 27.617188 100.933594 31.746094 100.332031 32.207031 C 99.730469 32.667969 96.105469 29.789062 96.105469 29.789062 C 96.105469 29.789062 92.957031 32.929688 92.09375 32.554688 C 91.226562 32.183594 92.945312 27.71875 92.945312 27.71875 C 92.945312 27.71875 88.753906 25.96875 89.023438 24.929688 C 89.234375 24.132812 94.027344 24.203125 94.027344 24.203125 " fill-opacity="1" fill-rule="nonzero"/><path fill="#f5a5a8" d="M 69.851562 38.476562 C 68.746094 37.203125 67.5 38.832031 67.5 38.832031 C 67.210938 37.714844 66.640625 37.496094 66.476562 37.675781 C 66.308594 37.859375 66.523438 38.011719 66.695312 38.589844 C 66.839844 39.0625 67.074219 40.320312 67.15625 40.785156 L 66.59375 42.4375 L 68.789062 42.929688 L 68.988281 41.394531 C 69.007812 41.25 69.082031 41.117188 69.199219 41.03125 C 69.917969 40.5 70.832031 39.605469 69.851562 38.476562 " fill-opacity="1" fill-rule="nonzero"/><path fill="#ef6b51" d="M 69.445312 40.414062 C 69.378906 40.414062 69.316406 40.390625 69.253906 40.347656 C 69.152344 40.269531 69.128906 40.175781 69.140625 40.09375 C 69.035156 40.128906 68.898438 40.132812 68.789062 40.023438 C 68.691406 39.925781 68.671875 39.8125 68.683594 39.71875 C 68.574219 39.765625 68.441406 39.777344 68.332031 39.675781 C 68.1875 39.542969 68.207031 39.363281 68.253906 39.234375 C 68.140625 39.246094 67.964844 39.242188 67.859375 39.125 C 67.785156 39.039062 67.757812 38.9375 67.773438 38.824219 C 67.800781 38.601562 68.015625 38.351562 68.371094 38.117188 C 68.398438 38.097656 68.433594 38.105469 68.449219 38.132812 C 68.464844 38.15625 68.460938 38.191406 68.433594 38.210938 C 68.109375 38.421875 67.90625 38.652344 67.882812 38.839844 C 67.871094 38.917969 67.894531 38.988281 67.945312 39.050781 C 68.0625 39.183594 68.339844 39.101562 68.34375 39.101562 L 68.496094 39.054688 L 68.40625 39.1875 C 68.398438 39.195312 68.238281 39.4375 68.410156 39.59375 C 68.542969 39.71875 68.742188 39.558594 68.75 39.550781 L 69.027344 39.324219 L 68.832031 39.625 C 68.828125 39.632812 68.722656 39.800781 68.867188 39.945312 C 69.011719 40.085938 69.207031 39.9375 69.214844 39.929688 L 69.527344 39.683594 L 69.292969 40.007812 C 69.285156 40.023438 69.191406 40.160156 69.320312 40.257812 C 69.449219 40.351562 69.597656 40.320312 70.027344 39.886719 C 70.050781 39.863281 70.085938 39.863281 70.109375 39.886719 C 70.128906 39.90625 70.128906 39.945312 70.109375 39.964844 C 69.824219 40.25 69.621094 40.414062 69.445312 40.414062 " fill-opacity="1" fill-rule="nonzero"/><path fill="#ef6b51" d="M 69.25 40.03125 C 69.234375 40.03125 69.21875 40.023438 69.207031 40.011719 C 69.1875 39.988281 69.1875 39.953125 69.210938 39.929688 L 69.988281 39.261719 C 70.011719 39.242188 70.046875 39.246094 70.066406 39.269531 C 70.085938 39.292969 70.085938 39.328125 70.0625 39.347656 L 69.285156 40.015625 C 69.273438 40.027344 69.261719 40.03125 69.25 40.03125 " fill-opacity="1" fill-rule="nonzero"/><path fill="#ef6b51" d="M 68.785156 39.652344 C 68.769531 39.652344 68.753906 39.644531 68.742188 39.632812 C 68.722656 39.609375 68.722656 39.574219 68.746094 39.550781 L 69.742188 38.675781 C 69.765625 38.65625 69.800781 38.65625 69.824219 38.683594 C 69.84375 38.703125 69.839844 38.738281 69.816406 38.761719 L 68.820312 39.636719 C 68.8125 39.644531 68.796875 39.652344 68.785156 39.652344 " fill-opacity="1" fill-rule="nonzero"/><path fill="#ef6b51" d="M 68.359375 39.210938 C 68.34375 39.210938 68.328125 39.203125 68.316406 39.191406 C 68.296875 39.167969 68.300781 39.132812 68.324219 39.113281 L 69.289062 38.277344 C 69.3125 38.257812 69.347656 38.257812 69.367188 38.28125 C 69.386719 38.304688 69.386719 38.339844 69.363281 38.363281 L 68.394531 39.195312 C 68.386719 39.207031 68.371094 39.210938 68.359375 39.210938 " fill-opacity="1" fill-rule="nonzero"/><path fill="#f5a5a8" d="M 41 38.476562 C 42.105469 37.203125 43.351562 38.832031 43.351562 38.832031 C 43.640625 37.714844 44.210938 37.496094 44.375 37.675781 C 44.542969 37.859375 44.328125 38.011719 44.15625 38.589844 C 44.015625 39.0625 43.777344 40.320312 43.695312 40.785156 L 44.261719 42.4375 L 42.066406 42.929688 L 41.863281 41.394531 C 41.847656 41.25 41.769531 41.117188 41.652344 41.03125 C 40.9375 40.5 40.019531 39.605469 41 38.476562 " fill-opacity="1" fill-rule="nonzero"/><path fill="#ef6b51" d="M 41.410156 40.414062 C 41.230469 40.414062 41.027344 40.25 40.746094 39.964844 C 40.722656 39.945312 40.722656 39.90625 40.746094 39.886719 C 40.765625 39.863281 40.800781 39.863281 40.824219 39.886719 C 41.257812 40.320312 41.402344 40.351562 41.53125 40.257812 C 41.660156 40.160156 41.570312 40.023438 41.558594 40.007812 L 41.335938 39.691406 L 41.640625 39.929688 C 41.648438 39.9375 41.84375 40.085938 41.984375 39.945312 C 42.128906 39.800781 42.023438 39.632812 42.019531 39.625 L 41.824219 39.320312 L 42.101562 39.550781 C 42.113281 39.558594 42.3125 39.71875 42.445312 39.59375 C 42.613281 39.4375 42.453125 39.195312 42.445312 39.1875 L 42.355469 39.054688 L 42.511719 39.101562 C 42.511719 39.101562 42.789062 39.183594 42.90625 39.050781 C 42.960938 38.988281 42.980469 38.917969 42.96875 38.839844 C 42.945312 38.652344 42.742188 38.421875 42.417969 38.210938 C 42.394531 38.191406 42.386719 38.15625 42.402344 38.132812 C 42.421875 38.105469 42.457031 38.097656 42.480469 38.117188 C 42.839844 38.351562 43.050781 38.601562 43.082031 38.824219 C 43.097656 38.9375 43.066406 39.039062 42.992188 39.125 C 42.886719 39.242188 42.714844 39.246094 42.597656 39.234375 C 42.648438 39.363281 42.664062 39.542969 42.519531 39.675781 C 42.414062 39.777344 42.277344 39.765625 42.167969 39.71875 C 42.183594 39.8125 42.164062 39.925781 42.0625 40.023438 C 41.953125 40.132812 41.816406 40.128906 41.710938 40.09375 C 41.722656 40.175781 41.699219 40.269531 41.597656 40.347656 C 41.535156 40.390625 41.472656 40.414062 41.410156 40.414062 " fill-opacity="1" fill-rule="nonzero"/><path fill="#ef6b51" d="M 41.605469 40.03125 C 41.589844 40.03125 41.578125 40.027344 41.566406 40.015625 L 40.792969 39.347656 C 40.769531 39.328125 40.765625 39.292969 40.785156 39.269531 C 40.804688 39.246094 40.839844 39.242188 40.863281 39.261719 L 41.640625 39.929688 C 41.664062 39.953125 41.667969 39.988281 41.644531 40.011719 C 41.636719 40.023438 41.621094 40.03125 41.605469 40.03125 " fill-opacity="1" fill-rule="nonzero"/><path fill="#ef6b51" d="M 42.066406 39.652344 C 42.054688 39.652344 42.042969 39.644531 42.03125 39.636719 L 41.035156 38.761719 C 41.011719 38.738281 41.007812 38.703125 41.03125 38.683594 C 41.050781 38.65625 41.085938 38.65625 41.109375 38.675781 L 42.105469 39.550781 C 42.128906 39.574219 42.128906 39.609375 42.109375 39.632812 C 42.097656 39.644531 42.082031 39.652344 42.066406 39.652344 " fill-opacity="1" fill-rule="nonzero"/><path fill="#ef6b51" d="M 42.492188 39.210938 C 42.480469 39.210938 42.46875 39.207031 42.457031 39.195312 L 41.492188 38.363281 C 41.46875 38.339844 41.464844 38.304688 41.484375 38.28125 C 41.503906 38.257812 41.539062 38.257812 41.5625 38.277344 L 42.53125 39.113281 C 42.554688 39.132812 42.554688 39.167969 42.535156 39.191406 C 42.523438 39.203125 42.507812 39.210938 42.492188 39.210938 " fill-opacity="1" fill-rule="nonzero"/><g clip-path="url(#c45f94aa5e)"><path fill="#0e0e0e" d="M 41.746094 103.226562 C 41.929688 100.238281 46.523438 101.816406 46.488281 99.0625 L 50.578125 99.0625 L 50.261719 103.226562 L 41.746094 103.226562 " fill-opacity="1" fill-rule="nonzero"/></g><g clip-path="url(#82b389905a)"><path fill="#0e0e0e" d="M 68.707031 103.226562 C 68.523438 100.238281 63.929688 101.816406 63.964844 99.0625 L 59.875 99.0625 L 60.191406 103.226562 L 68.707031 103.226562 " fill-opacity="1" fill-rule="nonzero"/></g><path fill="#487bbb" d="M 46.992188 67.492188 L 45.753906 99.566406 L 50.988281 99.566406 L 56.3125 67.570312 L 46.992188 67.492188 " fill-opacity="1" fill-rule="nonzero"/><path fill="#487bbb" d="M 53.808594 67.554688 L 59.316406 99.566406 L 64.488281 99.566406 L 62.679688 67.492188 L 53.808594 67.554688 " fill-opacity="1" fill-rule="nonzero"/><path fill="#e0e0e0" d="M 41.070312 42.058594 L 44.753906 41.144531 L 47.28125 48.839844 L 50.550781 54.277344 C 50.550781 54.277344 52.417969 53.183594 55.144531 53.285156 C 57.867188 53.386719 59.800781 54.277344 59.800781 54.277344 L 64.09375 48.792969 L 65.839844 41.558594 L 69.824219 42.359375 C 69.824219 42.359375 68.621094 48.582031 67.902344 50.847656 C 67.1875 53.113281 61.640625 60.5 61.640625 60.5 L 63.738281 71.441406 C 57.851562 72.140625 51.957031 72.140625 46.0625 71.441406 L 47.699219 60.738281 C 47.699219 60.738281 43.8125 52.148438 43.113281 50.296875 C 42.417969 48.445312 41.070312 42.058594 41.070312 42.058594 " fill-opacity="1" fill-rule="nonzero"/><path fill="#0e0e0e" d="M 55.035156 54.515625 C 56.925781 54.582031 57.613281 53.597656 57.613281 53.597656 C 56.914062 53.445312 56.074219 53.320312 55.144531 53.285156 C 54.3125 53.253906 53.558594 53.332031 52.914062 53.460938 C 52.914062 53.464844 53.144531 54.445312 55.035156 54.515625 " fill-opacity="1" fill-rule="nonzero"/><path fill="#f5a5a8" d="M 57.613281 50.128906 L 56.96875 53.472656 C 56.601562 54.191406 53.578125 54.101562 53.542969 53.359375 L 54.058594 50.667969 L 57.613281 50.128906 " fill-opacity="1" fill-rule="nonzero"/><path fill="#f5a5a8" d="M 58.523438 48.398438 C 58.910156 48.246094 59.402344 48.4375 59.585938 48.8125 C 59.769531 49.1875 59.621094 49.6875 59.261719 49.90625 C 58.90625 50.121094 58.390625 50.015625 58.144531 49.679688 C 57.625 50.691406 56.550781 51.394531 55.414062 51.464844 C 54.277344 51.535156 53.121094 50.976562 52.476562 50.039062 C 51.828125 49.101562 51.714844 47.824219 52.183594 46.789062 C 52.652344 45.753906 53.683594 44.992188 54.8125 44.855469 C 55.78125 44.734375 56.792969 45.0625 57.503906 45.726562 C 58.21875 46.390625 58.574219 47.425781 58.523438 48.398438 " fill-opacity="1" fill-rule="nonzero"/><path fill="#0e0e0e" d="M 58.523438 48.398438 C 58.527344 48.570312 58.433594 48.789062 58.359375 48.945312 C 58.28125 49.097656 58.105469 49.21875 57.9375 49.171875 C 57.734375 49.109375 57.671875 48.84375 57.71875 48.640625 C 57.765625 48.433594 57.886719 48.246094 57.921875 48.039062 C 57.960938 47.789062 57.871094 47.53125 57.71875 47.332031 C 57.5625 47.132812 57.351562 46.988281 57.125 46.875 C 56.683594 46.648438 56.195312 46.535156 55.714844 46.429688 C 55.230469 46.324219 54.742188 46.21875 54.292969 46.011719 C 53.964844 45.859375 53.65625 45.644531 53.429688 45.359375 C 53.347656 45.257812 53.277344 45.148438 53.222656 45.027344 C 53.011719 44.582031 53.039062 44.007812 53.367188 43.636719 C 53.550781 43.429688 53.855469 43.296875 54.117188 43.398438 C 54.378906 43.5 54.507812 43.78125 54.683594 43.996094 C 54.96875 44.347656 55.402344 44.539062 55.835938 44.667969 C 56.269531 44.792969 56.71875 44.867188 57.136719 45.042969 C 57.765625 45.304688 58.296875 45.792969 58.609375 46.398438 C 58.921875 47.003906 59.019531 47.683594 58.863281 48.347656 C 58.796875 48.347656 58.683594 48.339844 58.523438 48.398438 " fill-opacity="1" fill-rule="nonzero"/><path fill="#ef6b51" d="M 58.738281 49.523438 C 58.699219 49.523438 58.660156 49.519531 58.617188 49.511719 L 58.640625 49.402344 C 58.859375 49.449219 58.976562 49.335938 59.007812 49.226562 C 59.042969 49.113281 59 48.960938 58.828125 48.890625 L 58.871094 48.789062 C 59.097656 48.878906 59.164062 49.09375 59.117188 49.261719 C 59.074219 49.402344 58.941406 49.523438 58.738281 49.523438 " fill-opacity="1" fill-rule="nonzero"/><path fill="#0e0e0e" d="M 55.269531 48.257812 C 55.265625 48.257812 55.257812 48.257812 55.25 48.253906 C 55.203125 48.242188 55.179688 48.195312 55.191406 48.152344 L 55.328125 47.632812 C 55.339844 47.585938 55.386719 47.5625 55.429688 47.574219 C 55.476562 47.585938 55.503906 47.632812 55.492188 47.675781 L 55.351562 48.195312 C 55.34375 48.234375 55.308594 48.257812 55.269531 48.257812 " fill-opacity="1" fill-rule="nonzero"/><path fill="#0e0e0e" d="M 53.304688 47.808594 C 53.296875 47.808594 53.289062 47.804688 53.285156 47.804688 C 53.238281 47.792969 53.210938 47.746094 53.222656 47.703125 L 53.347656 47.210938 C 53.359375 47.167969 53.402344 47.140625 53.449219 47.152344 C 53.492188 47.160156 53.519531 47.207031 53.511719 47.253906 L 53.386719 47.742188 C 53.375 47.78125 53.34375 47.808594 53.304688 47.808594 " fill-opacity="1" fill-rule="nonzero"/><path fill="#0e0e0e" d="M 53.773438 49.222656 C 53.753906 49.222656 53.730469 49.214844 53.714844 49.195312 C 53.636719 49.121094 53.601562 49.027344 53.601562 48.921875 C 53.605469 48.65625 53.878906 48.394531 53.890625 48.382812 C 53.925781 48.351562 53.976562 48.355469 54.007812 48.386719 C 54.042969 48.421875 54.039062 48.472656 54.007812 48.507812 C 53.941406 48.566406 53.773438 48.761719 53.769531 48.925781 C 53.769531 48.984375 53.789062 49.035156 53.832031 49.078125 C 53.867188 49.109375 53.867188 49.164062 53.832031 49.195312 C 53.816406 49.214844 53.796875 49.222656 53.773438 49.222656 " fill-opacity="1" fill-rule="nonzero"/><path fill="#0e0e0e" d="M 54.953125 50.242188 C 54.90625 50.242188 54.871094 50.207031 54.867188 50.160156 C 54.867188 50.113281 54.90625 50.078125 54.953125 50.074219 C 54.96875 50.074219 55.324219 50.066406 55.554688 49.730469 C 55.582031 49.695312 55.632812 49.683594 55.671875 49.710938 C 55.710938 49.738281 55.71875 49.789062 55.691406 49.828125 C 55.414062 50.234375 54.972656 50.242188 54.953125 50.242188 " fill-opacity="1" fill-rule="nonzero"/><path fill="#0e0e0e" d="M 46.660156 76.25 C 46.625 76.25 46.59375 76.230469 46.578125 76.199219 C 46.5625 76.15625 46.585938 76.105469 46.628906 76.089844 C 46.65625 76.078125 49.34375 74.984375 49.875 71.789062 C 49.882812 71.742188 49.925781 71.710938 49.972656 71.71875 C 50.019531 71.726562 50.050781 71.769531 50.042969 71.816406 C 49.753906 73.535156 48.859375 74.648438 48.160156 75.277344 C 47.398438 75.960938 46.71875 76.234375 46.6875 76.246094 C 46.679688 76.25 46.667969 76.25 46.660156 76.25 " fill-opacity="1" fill-rule="nonzero"/><path fill="#0e0e0e" d="M 63.171875 76.328125 C 63.160156 76.328125 63.144531 76.324219 63.132812 76.316406 C 63.109375 76.304688 60.886719 75.019531 60.027344 71.804688 C 60.015625 71.761719 60.042969 71.714844 60.085938 71.703125 C 60.132812 71.691406 60.179688 71.71875 60.191406 71.761719 C 61.03125 74.910156 63.195312 76.15625 63.214844 76.171875 C 63.253906 76.191406 63.269531 76.242188 63.246094 76.285156 C 63.230469 76.3125 63.203125 76.328125 63.171875 76.328125 " fill-opacity="1" fill-rule="nonzero"/><path fill="#0e0e0e" d="M 55.125 75.28125 C 55.085938 75.28125 55.050781 75.253906 55.042969 75.210938 L 54.613281 72.726562 C 54.605469 72.683594 54.636719 72.640625 54.683594 72.632812 C 54.730469 72.625 54.773438 72.652344 54.78125 72.699219 L 55.207031 75.183594 C 55.214844 75.230469 55.183594 75.273438 55.140625 75.28125 C 55.132812 75.28125 55.128906 75.28125 55.125 75.28125 " fill-opacity="1" fill-rule="nonzero"/><path fill="#0e0e0e" d="M 51.121094 98.683594 L 45.820312 98.683594 C 45.773438 98.683594 45.734375 98.644531 45.734375 98.601562 C 45.734375 98.554688 45.773438 98.515625 45.820312 98.515625 L 51.121094 98.515625 C 51.167969 98.515625 51.203125 98.554688 51.203125 98.601562 C 51.203125 98.644531 51.167969 98.683594 51.121094 98.683594 " fill-opacity="1" fill-rule="nonzero"/><path fill="#0e0e0e" d="M 64.40625 98.683594 L 59.1875 98.683594 C 59.140625 98.683594 59.105469 98.644531 59.105469 98.601562 C 59.105469 98.554688 59.140625 98.515625 59.1875 98.515625 L 64.40625 98.515625 C 64.453125 98.515625 64.492188 98.554688 64.492188 98.601562 C 64.492188 98.644531 64.453125 98.683594 64.40625 98.683594 " fill-opacity="1" fill-rule="nonzero"/><path fill="#f5a5a8" d="M 14.800781 95.703125 L 14.050781 97.507812 L 15.042969 98.34375 L 16.296875 98.636719 L 17.664062 96.789062 L 14.800781 95.703125 " fill-opacity="1" fill-rule="nonzero"/><g clip-path="url(#26cf5a171b)"><path fill="#ef6b51" d="M 14.050781 97.507812 L 12.363281 99.855469 L 14.636719 101 L 14.964844 100.5625 L 15.515625 101.441406 L 18.917969 103.152344 C 19.304688 101.164062 15.863281 100.148438 16.296875 98.636719 L 14.050781 97.507812 " fill-opacity="1" fill-rule="nonzero"/></g><path fill="#f5a5a8" d="M 30.324219 98.425781 L 30.46875 100.375 L 31.730469 100.675781 L 32.980469 100.375 L 33.371094 98.109375 L 30.324219 98.425781 " fill-opacity="1" fill-rule="nonzero"/><path fill="#0e0e0e" d="M 20.492188 72.09375 L 20.601562 85.988281 L 12 95.796875 L 20.636719 99.175781 C 20.636719 99.175781 25.054688 89.917969 25.867188 87.308594 C 26.679688 84.703125 29.0625 72.082031 29.0625 72.082031 L 20.492188 72.09375 " fill-opacity="1" fill-rule="nonzero"/><path fill="#0e0e0e" d="M 26.855469 73 L 29.609375 87.199219 L 25.890625 99.195312 L 35.632812 99.195312 L 34.84375 86.777344 L 34.964844 72.515625 L 26.855469 73 " fill-opacity="1" fill-rule="nonzero"/><path fill="#f5a5a8" d="M 35.226562 46.6875 C 34.132812 45.625 33.136719 47.191406 33.136719 47.191406 C 32.789062 46.207031 32.257812 46.050781 32.121094 46.226562 C 31.984375 46.402344 32.191406 46.527344 32.390625 47.035156 C 32.554688 47.449219 32.867188 48.5625 32.976562 48.976562 L 32.59375 50.511719 L 34.609375 50.785156 L 34.671875 49.386719 C 34.679688 49.253906 34.738281 49.132812 34.835938 49.042969 C 35.441406 48.507812 36.199219 47.632812 35.226562 46.6875 " fill-opacity="1" fill-rule="nonzero"/><path fill="#ef6b51" d="M 34.988281 48.472656 C 34.933594 48.472656 34.882812 48.457031 34.828125 48.425781 C 34.734375 48.367188 34.707031 48.285156 34.707031 48.210938 C 34.613281 48.25 34.492188 48.261719 34.386719 48.171875 C 34.289062 48.089844 34.261719 47.992188 34.265625 47.910156 C 34.167969 47.957031 34.050781 47.976562 33.945312 47.894531 C 33.808594 47.785156 33.804688 47.621094 33.839844 47.5 C 33.734375 47.523438 33.582031 47.527344 33.476562 47.429688 C 33.402344 47.359375 33.367188 47.265625 33.371094 47.164062 C 33.382812 46.960938 33.558594 46.714844 33.863281 46.472656 C 33.886719 46.453125 33.921875 46.457031 33.941406 46.484375 C 33.960938 46.507812 33.957031 46.542969 33.929688 46.5625 C 33.65625 46.777344 33.492188 47 33.484375 47.167969 C 33.480469 47.238281 33.503906 47.300781 33.554688 47.347656 C 33.648438 47.441406 33.84375 47.390625 33.914062 47.363281 L 34.0625 47.304688 L 33.984375 47.441406 C 33.976562 47.453125 33.851562 47.679688 34.015625 47.804688 C 34.140625 47.902344 34.3125 47.742188 34.3125 47.738281 L 34.574219 47.484375 L 34.402344 47.804688 C 34.398438 47.8125 34.320312 47.96875 34.457031 48.085938 C 34.59375 48.199219 34.753906 48.050781 34.761719 48.042969 L 35.046875 47.78125 L 34.847656 48.113281 C 34.839844 48.128906 34.769531 48.257812 34.890625 48.332031 C 35.011719 48.40625 35.136719 48.367188 35.492188 47.945312 C 35.511719 47.921875 35.546875 47.917969 35.570312 47.9375 C 35.59375 47.957031 35.597656 47.992188 35.578125 48.015625 C 35.332031 48.308594 35.15625 48.472656 34.988281 48.472656 " fill-opacity="1" fill-rule="nonzero"/><path fill="#ef6b51" d="M 34.800781 48.140625 C 34.785156 48.140625 34.769531 48.136719 34.761719 48.125 C 34.738281 48.105469 34.738281 48.070312 34.757812 48.046875 L 35.40625 47.386719 C 35.429688 47.363281 35.464844 47.363281 35.488281 47.382812 C 35.507812 47.40625 35.507812 47.441406 35.488281 47.464844 L 34.839844 48.125 C 34.828125 48.136719 34.8125 48.140625 34.800781 48.140625 " fill-opacity="1" fill-rule="nonzero"/><path fill="#ef6b51" d="M 34.351562 47.835938 C 34.335938 47.835938 34.324219 47.832031 34.3125 47.820312 C 34.289062 47.800781 34.289062 47.761719 34.3125 47.742188 L 35.140625 46.875 C 35.164062 46.851562 35.199219 46.851562 35.222656 46.871094 C 35.242188 46.894531 35.246094 46.929688 35.222656 46.953125 L 34.390625 47.816406 C 34.382812 47.828125 34.367188 47.835938 34.351562 47.835938 " fill-opacity="1" fill-rule="nonzero"/><path fill="#ef6b51" d="M 33.933594 47.472656 C 33.921875 47.472656 33.90625 47.464844 33.894531 47.457031 C 33.871094 47.433594 33.871094 47.398438 33.894531 47.375 L 34.699219 46.546875 C 34.722656 46.527344 34.757812 46.527344 34.78125 46.546875 C 34.800781 46.570312 34.800781 46.605469 34.78125 46.628906 L 33.972656 47.453125 C 33.964844 47.464844 33.949219 47.472656 33.933594 47.472656 " fill-opacity="1" fill-rule="nonzero"/><path fill="#2b8c79" d="M 29.136719 59.210938 L 30.875 56.070312 L 31.355469 49.617188 L 37.007812 50.925781 L 35.007812 57.648438 L 32.0625 65.058594 L 29.136719 59.210938 " fill-opacity="1" fill-rule="nonzero"/><path fill="#f5a5a8" d="M 17.675781 63.175781 C 17.660156 62.746094 17.765625 61.734375 17.800781 61.289062 C 17.839844 60.742188 17.972656 60.621094 17.761719 60.542969 C 17.488281 60.441406 17.324219 60.910156 17.210938 61.707031 C 17.203125 61.777344 17.101562 61.785156 17.085938 61.714844 C 16.902344 60.933594 16.464844 58.96875 16.15625 59.035156 C 15.832031 59.105469 16.117188 60.136719 16.347656 61.109375 C 16.359375 61.15625 16.328125 61.203125 16.28125 61.214844 C 16.253906 61.21875 16.222656 61.207031 16.210938 61.183594 C 15.675781 60.183594 15.246094 59.136719 14.9375 59.3125 C 14.667969 59.464844 15.214844 60.480469 15.695312 61.398438 C 15.707031 61.425781 15.699219 61.460938 15.671875 61.480469 C 15.644531 61.496094 15.609375 61.488281 15.589844 61.464844 C 14.925781 60.660156 14.382812 59.921875 14.128906 60.140625 C 13.910156 60.332031 14.507812 61.050781 15.121094 61.796875 C 15.152344 61.835938 15.160156 61.894531 15.132812 61.941406 C 15.113281 61.976562 15.066406 61.984375 15.035156 61.957031 C 14.414062 61.359375 14.082031 61.074219 13.921875 61.253906 C 13.738281 61.460938 15.1875 62.859375 15.1875 62.859375 C 15.496094 63.492188 16.179688 64.070312 16.179688 64.070312 L 16.65625 65.386719 L 18.5 64.523438 L 17.675781 63.175781 " fill-opacity="1" fill-rule="nonzero"/><path fill="#2b8c79" d="M 29.136719 59.210938 L 25.304688 59.390625 L 22.132812 60.773438 L 19.480469 75.441406 C 24.355469 76.128906 33.074219 75.074219 36.328125 72.820312 L 29.136719 59.210938 " fill-opacity="1" fill-rule="nonzero"/><path fill="#0e0e0e" d="M 21.9375 52.148438 C 18.433594 53.375 21.238281 57.300781 20.3125 59.894531 C 21.386719 60.324219 27.371094 59.140625 29.796875 57.09375 C 29.796875 57.09375 28.929688 51.910156 25.808594 50.992188 C 22.828125 50.117188 21.9375 52.148438 21.9375 52.148438 " fill-opacity="1" fill-rule="nonzero"/><path fill="#f5a5a8" d="M 22.945312 57.023438 L 24.097656 60.054688 C 24.535156 60.636719 27.152344 60.003906 27.070312 59.339844 L 26.179688 56.949219 L 22.945312 57.023438 " fill-opacity="1" fill-rule="nonzero"/><path fill="#f5a5a8" d="M 21.867188 55.628906 C 21.5 55.554688 21.09375 55.800781 20.992188 56.160156 C 20.886719 56.523438 21.09375 56.945312 21.445312 57.082031 C 21.796875 57.214844 22.238281 57.042969 22.402344 56.707031 C 23.019531 57.523438 24.082031 57.980469 25.101562 57.867188 C 26.121094 57.753906 27.058594 57.078125 27.484375 56.148438 C 27.914062 55.21875 27.816406 54.066406 27.238281 53.21875 C 26.664062 52.375 25.628906 51.859375 24.605469 51.914062 C 23.730469 51.957031 22.882812 52.402344 22.355469 53.101562 C 21.824219 53.800781 21.671875 54.777344 21.867188 55.628906 " fill-opacity="1" fill-rule="nonzero"/><path fill="#ef6b51" d="M 21.78125 56.671875 C 21.632812 56.671875 21.523438 56.59375 21.472656 56.488281 C 21.398438 56.347656 21.425781 56.144531 21.617188 56.023438 L 21.675781 56.121094 C 21.539062 56.207031 21.523438 56.34375 21.570312 56.4375 C 21.617188 56.527344 21.734375 56.605469 21.917969 56.53125 L 21.960938 56.636719 C 21.894531 56.660156 21.835938 56.671875 21.78125 56.671875 " fill-opacity="1" fill-rule="nonzero"/><path fill="#0e0e0e" d="M 26.191406 55.632812 C 26.164062 55.632812 26.132812 55.617188 26.117188 55.589844 C 26.097656 55.546875 26.113281 55.496094 26.152344 55.476562 C 26.21875 55.441406 26.257812 55.40625 26.261719 55.382812 C 26.273438 55.320312 26.160156 55.183594 26.015625 55.011719 C 25.953125 54.941406 25.886719 54.855469 25.808594 54.757812 C 25.78125 54.722656 25.785156 54.671875 25.824219 54.640625 C 25.859375 54.613281 25.914062 54.617188 25.941406 54.65625 C 26.015625 54.75 26.085938 54.832031 26.144531 54.90625 C 26.34375 55.144531 26.453125 55.273438 26.425781 55.414062 C 26.40625 55.519531 26.3125 55.578125 26.234375 55.621094 C 26.21875 55.628906 26.207031 55.632812 26.191406 55.632812 " fill-opacity="1" fill-rule="nonzero"/><path fill="#0e0e0e" d="M 25.222656 56.726562 C 25.085938 56.726562 24.816406 56.691406 24.59375 56.464844 C 24.558594 56.429688 24.5625 56.378906 24.59375 56.34375 C 24.628906 56.3125 24.679688 56.3125 24.714844 56.347656 C 24.964844 56.601562 25.28125 56.558594 25.292969 56.554688 C 25.339844 56.546875 25.382812 56.578125 25.390625 56.625 C 25.398438 56.671875 25.367188 56.714844 25.320312 56.722656 C 25.316406 56.722656 25.28125 56.726562 25.222656 56.726562 " fill-opacity="1" fill-rule="nonzero"/><path fill="#0e0e0e" d="M 27.449219 53.363281 C 26.242188 53.476562 24.953125 53.195312 23.503906 52.832031 C 23.390625 53.863281 22.796875 55.125 21.867188 55.628906 L 21.152344 54.308594 L 22.945312 51.910156 L 25.738281 51.792969 L 27.210938 52.960938 L 27.449219 53.363281 " fill-opacity="1" fill-rule="nonzero"/><path fill="#0e0e0e" d="M 24.265625 55.054688 C 24.230469 55.054688 24.199219 55.035156 24.1875 55.003906 C 24.15625 54.925781 24.15625 54.84375 24.1875 54.765625 C 24.21875 54.691406 24.277344 54.632812 24.351562 54.597656 C 24.507812 54.535156 24.691406 54.609375 24.757812 54.765625 C 24.773438 54.808594 24.753906 54.855469 24.710938 54.875 C 24.667969 54.890625 24.621094 54.871094 24.601562 54.828125 C 24.570312 54.757812 24.488281 54.722656 24.417969 54.753906 C 24.382812 54.769531 24.355469 54.796875 24.34375 54.832031 C 24.328125 54.867188 24.328125 54.902344 24.34375 54.9375 C 24.359375 54.980469 24.339844 55.03125 24.296875 55.046875 C 24.289062 55.050781 24.277344 55.054688 24.265625 55.054688 " fill-opacity="1" fill-rule="nonzero"/><path fill="#0e0e0e" d="M 26.21875 54.234375 C 26.183594 54.234375 26.152344 54.214844 26.140625 54.183594 C 26.074219 54.027344 26.148438 53.84375 26.304688 53.78125 C 26.460938 53.714844 26.644531 53.789062 26.710938 53.945312 C 26.726562 53.988281 26.707031 54.035156 26.664062 54.054688 C 26.621094 54.070312 26.570312 54.050781 26.554688 54.007812 C 26.523438 53.9375 26.441406 53.90625 26.371094 53.933594 C 26.300781 53.964844 26.265625 54.046875 26.296875 54.117188 C 26.3125 54.160156 26.292969 54.210938 26.25 54.226562 C 26.238281 54.230469 26.230469 54.234375 26.21875 54.234375 " fill-opacity="1" fill-rule="nonzero"/><path fill="#2b8c79" d="M 20.21875 62.335938 L 19.398438 64.527344 L 18.984375 63.203125 L 13.933594 65.78125 C 13.933594 65.78125 17.160156 71.105469 18.84375 71.355469 C 20.769531 71.644531 20.828125 70.390625 22.945312 66.308594 L 22.132812 60.773438 L 21.394531 61.097656 C 20.851562 61.335938 20.425781 61.78125 20.21875 62.335938 " fill-opacity="1" fill-rule="nonzero"/><path fill="#0e0e0e" d="M 20.429688 67.664062 C 20.40625 67.664062 20.386719 67.648438 20.378906 67.625 L 19.347656 64.542969 C 19.335938 64.515625 19.351562 64.484375 19.382812 64.472656 C 19.410156 64.464844 19.445312 64.480469 19.453125 64.507812 L 20.484375 67.589844 C 20.492188 67.621094 20.476562 67.652344 20.449219 67.660156 C 20.441406 67.664062 20.4375 67.664062 20.429688 67.664062 " fill-opacity="1" fill-rule="nonzero"/><path fill="#0e0e0e" d="M 20.105469 71.265625 C 20.085938 71.265625 20.066406 71.253906 20.058594 71.238281 C 20.042969 71.210938 20.050781 71.175781 20.078125 71.160156 C 20.671875 70.824219 21.070312 69.996094 21.796875 68.496094 C 22.101562 67.859375 22.449219 67.140625 22.894531 66.285156 C 22.90625 66.257812 22.941406 66.246094 22.96875 66.261719 C 22.996094 66.273438 23.007812 66.308594 22.992188 66.335938 C 22.550781 67.191406 22.203125 67.910156 21.898438 68.542969 C 21.160156 70.066406 20.757812 70.90625 20.132812 71.257812 C 20.125 71.261719 20.117188 71.265625 20.105469 71.265625 " fill-opacity="1" fill-rule="nonzero"/><path fill="#0e0e0e" d="M 32.132812 64.941406 C 32.113281 64.941406 32.09375 64.929688 32.085938 64.910156 L 30.433594 61.785156 C 30.417969 61.757812 30.429688 61.722656 30.457031 61.710938 C 30.484375 61.695312 30.519531 61.707031 30.535156 61.734375 L 32.183594 64.855469 C 32.199219 64.882812 32.1875 64.917969 32.160156 64.933594 C 32.152344 64.9375 32.144531 64.941406 32.132812 64.941406 " fill-opacity="1" fill-rule="nonzero"/><g clip-path="url(#3a9c20cb18)"><path fill="#ef6b51" d="M 30.46875 100.375 L 30.019531 103.226562 L 32.566406 103.226562 L 32.660156 102.691406 L 33.546875 103.226562 L 37.359375 103.226562 C 36.804688 101.277344 33.277344 101.917969 32.980469 100.375 L 30.46875 100.375 " fill-opacity="1" fill-rule="nonzero"/></g><g clip-path="url(#e8fde55632)"><path fill="#805034" d="M 73.625 103.226562 C 73.808594 100.238281 78.402344 101.816406 78.363281 99.0625 L 81.519531 99.0625 L 82.136719 103.226562 L 73.625 103.226562 " fill-opacity="1" fill-rule="nonzero"/></g><g clip-path="url(#c38b4f9718)"><path fill="#805034" d="M 92.664062 103.226562 C 91.535156 100.453125 96.359375 99.894531 95.136719 97.429688 L 97.984375 96.070312 L 100.34375 99.558594 L 92.664062 103.226562 " fill-opacity="1" fill-rule="nonzero"/></g><path fill="#e0e0e0" d="M 77.371094 70.921875 C 77.371094 70.921875 76.207031 84.421875 76.460938 86.753906 C 76.71875 89.082031 77.832031 99.171875 77.832031 99.171875 L 82.082031 99.171875 L 81.78125 86.617188 L 84.921875 71.578125 L 77.371094 70.921875 " fill-opacity="1" fill-rule="nonzero"/><path fill="#e0e0e0" d="M 82.757812 72.375 C 82.757812 72.375 85.699219 86.097656 87.070312 88.0625 C 88.441406 90.027344 94.554688 98.597656 94.554688 98.597656 L 98.457031 96.121094 L 91.988281 85.707031 L 89.902344 70.921875 L 82.757812 72.375 " fill-opacity="1" fill-rule="nonzero"/><path fill="#f5a5a8" d="M 95.902344 59.125 C 95.878906 58.671875 95.660156 57.609375 95.578125 57.140625 C 95.476562 56.566406 95.328125 56.453125 95.539062 56.347656 C 95.820312 56.210938 96.042969 56.691406 96.246094 57.523438 C 96.261719 57.597656 96.371094 57.59375 96.378906 57.519531 C 96.496094 56.671875 96.753906 54.542969 97.085938 54.582031 C 97.4375 54.625 97.242188 55.746094 97.097656 56.800781 C 97.089844 56.851562 97.128906 56.898438 97.179688 56.90625 C 97.210938 56.910156 97.238281 56.894531 97.25 56.867188 C 97.714844 55.75 98.0625 54.597656 98.40625 54.753906 C 98.707031 54.886719 98.234375 56.019531 97.820312 57.042969 C 97.808594 57.074219 97.820312 57.109375 97.851562 57.125 C 97.882812 57.136719 97.917969 57.128906 97.9375 57.101562 C 98.554688 56.179688 99.058594 55.34375 99.347656 55.550781 C 99.601562 55.730469 99.039062 56.550781 98.46875 57.402344 C 98.4375 57.449219 98.4375 57.511719 98.46875 57.558594 L 98.472656 57.558594 C 98.496094 57.59375 98.546875 57.597656 98.574219 57.566406 C 99.171875 56.867188 99.496094 56.53125 99.683594 56.707031 C 99.898438 56.90625 98.507812 58.539062 98.507812 58.539062 C 98.246094 59.238281 97.582031 59.921875 97.582031 59.921875 L 97.214844 61.367188 L 95.167969 60.640625 L 95.902344 59.125 " fill-opacity="1" fill-rule="nonzero"/><path fill="#ef6b51" d="M 85.957031 55.882812 C 83.101562 55.375 80.320312 56.527344 80.320312 56.527344 L 75.886719 72.085938 C 75.886719 72.085938 82.941406 74.546875 91.359375 73.1875 L 90.632812 57.746094 C 90.632812 57.746094 88.585938 56.347656 85.957031 55.882812 " fill-opacity="1" fill-rule="nonzero"/><path fill="#f5a5a8" d="M 74.800781 39.574219 C 76.0625 38.457031 77.082031 40.234375 77.082031 40.234375 C 77.515625 39.164062 78.109375 39.019531 78.25 39.222656 C 78.390625 39.425781 78.160156 39.550781 77.914062 40.101562 C 77.710938 40.550781 77.3125 41.765625 77.167969 42.214844 L 77.511719 43.925781 L 75.273438 44.128906 L 75.273438 42.578125 C 75.273438 42.433594 75.21875 42.296875 75.113281 42.195312 C 74.46875 41.574219 73.679688 40.566406 74.800781 39.574219 " fill-opacity="1" fill-rule="nonzero"/><path fill="#f17679" d="M 74.988281 41.550781 C 74.796875 41.550781 74.609375 41.359375 74.351562 41.019531 C 74.332031 40.996094 74.335938 40.957031 74.363281 40.941406 C 74.386719 40.921875 74.421875 40.925781 74.441406 40.949219 C 74.8125 41.4375 74.953125 41.488281 75.09375 41.410156 C 75.234375 41.332031 75.160156 41.183594 75.152344 41.164062 L 74.972656 40.824219 L 75.242188 41.101562 C 75.25 41.105469 75.421875 41.28125 75.582031 41.160156 C 75.746094 41.035156 75.664062 40.855469 75.660156 40.847656 L 75.511719 40.527344 L 75.753906 40.785156 C 75.757812 40.792969 75.9375 40.976562 76.082031 40.875 C 76.273438 40.738281 76.144531 40.480469 76.140625 40.46875 L 76.070312 40.324219 L 76.214844 40.390625 C 76.21875 40.394531 76.480469 40.511719 76.617188 40.390625 C 76.675781 40.339844 76.703125 40.273438 76.703125 40.195312 C 76.703125 40.003906 76.535156 39.75 76.242188 39.496094 C 76.21875 39.476562 76.214844 39.441406 76.234375 39.417969 C 76.253906 39.394531 76.292969 39.390625 76.316406 39.410156 C 76.636719 39.691406 76.816406 39.96875 76.816406 40.191406 C 76.816406 40.304688 76.773438 40.402344 76.691406 40.476562 C 76.570312 40.582031 76.398438 40.5625 76.28125 40.53125 C 76.316406 40.667969 76.308594 40.851562 76.148438 40.964844 C 76.027344 41.050781 75.898438 41.019531 75.796875 40.960938 C 75.796875 41.054688 75.761719 41.164062 75.652344 41.25 C 75.527344 41.34375 75.394531 41.320312 75.292969 41.269531 C 75.292969 41.355469 75.257812 41.445312 75.148438 41.507812 C 75.09375 41.539062 75.039062 41.550781 74.988281 41.550781 " fill-opacity="1" fill-rule="nonzero"/><path fill="#f17679" d="M 75.203125 41.195312 C 75.1875 41.195312 75.171875 41.1875 75.160156 41.175781 L 74.476562 40.414062 C 74.457031 40.390625 74.460938 40.355469 74.480469 40.332031 C 74.503906 40.3125 74.539062 40.316406 74.5625 40.339844 L 75.242188 41.101562 C 75.265625 41.125 75.261719 41.160156 75.238281 41.179688 C 75.230469 41.191406 75.214844 41.195312 75.203125 41.195312 " fill-opacity="1" fill-rule="nonzero"/><path fill="#f17679" d="M 75.710938 40.878906 C 75.695312 40.878906 75.679688 40.871094 75.667969 40.859375 L 74.796875 39.863281 C 74.777344 39.839844 74.777344 39.804688 74.800781 39.78125 C 74.824219 39.761719 74.859375 39.765625 74.878906 39.789062 L 75.753906 40.785156 C 75.773438 40.808594 75.769531 40.84375 75.746094 40.867188 C 75.738281 40.875 75.722656 40.878906 75.710938 40.878906 " fill-opacity="1" fill-rule="nonzero"/><path fill="#f17679" d="M 76.191406 40.5 C 76.175781 40.5 76.160156 40.492188 76.148438 40.480469 L 75.300781 39.527344 C 75.28125 39.503906 75.28125 39.46875 75.304688 39.445312 C 75.328125 39.425781 75.363281 39.429688 75.382812 39.453125 L 76.234375 40.40625 C 76.253906 40.429688 76.25 40.464844 76.226562 40.484375 C 76.21875 40.492188 76.203125 40.5 76.191406 40.5 " fill-opacity="1" fill-rule="nonzero"/><path fill="#f5a5a8" d="M 88.777344 53.265625 L 87.5625 56.292969 C 86.925781 57.207031 84.042969 56.492188 84.148438 55.757812 L 85.1875 53.117188 L 88.777344 53.265625 " fill-opacity="1" fill-rule="nonzero"/><path fill="#f5a5a8" d="M 90.003906 51.742188 C 90.414062 51.667969 90.859375 51.949219 90.964844 52.351562 C 91.074219 52.753906 90.832031 53.21875 90.441406 53.359375 C 90.050781 53.503906 89.5625 53.304688 89.386719 52.925781 C 88.683594 53.820312 87.492188 54.304688 86.363281 54.160156 C 85.234375 54.011719 84.207031 53.242188 83.753906 52.199219 C 83.296875 51.15625 83.429688 49.882812 84.085938 48.953125 C 84.746094 48.027344 85.902344 47.476562 87.039062 47.554688 C 88.011719 47.621094 88.941406 48.136719 89.515625 48.925781 C 90.085938 49.710938 90.238281 50.796875 90.003906 51.742188 " fill-opacity="1" fill-rule="nonzero"/><path fill="#f17679" d="M 90.085938 52.894531 C 90.023438 52.894531 89.957031 52.882812 89.882812 52.851562 L 89.925781 52.75 C 90.132812 52.835938 90.265625 52.75 90.320312 52.648438 C 90.375 52.542969 90.363281 52.386719 90.207031 52.285156 L 90.269531 52.191406 C 90.476562 52.324219 90.5 52.546875 90.421875 52.699219 C 90.363281 52.8125 90.242188 52.894531 90.085938 52.894531 " fill-opacity="1" fill-rule="nonzero"/><path fill="#0e0e0e" d="M 85.425781 51.582031 C 85.414062 51.582031 85.40625 51.582031 85.394531 51.578125 C 85.257812 51.53125 85.210938 51.449219 85.195312 51.386719 C 85.152344 51.21875 85.304688 51.050781 85.320312 51.03125 C 85.351562 50.996094 85.40625 50.992188 85.441406 51.023438 C 85.476562 51.054688 85.476562 51.109375 85.445312 51.144531 C 85.410156 51.183594 85.34375 51.285156 85.359375 51.347656 C 85.367188 51.375 85.398438 51.402344 85.453125 51.417969 C 85.496094 51.433594 85.519531 51.484375 85.503906 51.527344 C 85.492188 51.5625 85.457031 51.582031 85.425781 51.582031 " fill-opacity="1" fill-rule="nonzero"/><path fill="#0e0e0e" d="M 89.515625 48.925781 C 88.941406 48.136719 88.011719 47.621094 87.039062 47.554688 C 86.316406 47.507812 85.585938 47.710938 84.980469 48.101562 C 86.1875 48.945312 87.597656 49.789062 89.167969 50.632812 C 89.316406 50.710938 89.390625 50.890625 89.335938 51.050781 L 88.890625 52.402344 C 88.851562 52.515625 88.90625 52.636719 89.015625 52.683594 C 89.125 52.730469 89.25 52.6875 89.308594 52.585938 C 89.511719 52.222656 89.742188 51.894531 90.003906 51.742188 C 90.238281 50.796875 90.085938 49.710938 89.515625 48.925781 " fill-opacity="1" fill-rule="nonzero"/><path fill="#0e0e0e" d="M 85.203125 50.007812 C 85.1875 50.007812 85.175781 50.003906 85.160156 49.996094 C 85.121094 49.972656 85.105469 49.921875 85.128906 49.882812 C 85.164062 49.8125 85.140625 49.730469 85.074219 49.691406 C 85.042969 49.671875 85.003906 49.667969 84.96875 49.679688 C 84.929688 49.6875 84.902344 49.710938 84.882812 49.746094 C 84.859375 49.785156 84.808594 49.800781 84.769531 49.777344 C 84.726562 49.753906 84.714844 49.703125 84.734375 49.664062 C 84.777344 49.59375 84.84375 49.539062 84.921875 49.515625 C 85 49.496094 85.082031 49.503906 85.15625 49.542969 C 85.304688 49.625 85.359375 49.816406 85.277344 49.964844 C 85.261719 49.992188 85.230469 50.007812 85.203125 50.007812 " fill-opacity="1" fill-rule="nonzero"/><path fill="#0e0e0e" d="M 87.054688 51.035156 C 87.039062 51.035156 87.027344 51.03125 87.011719 51.023438 C 86.972656 51 86.957031 50.949219 86.980469 50.910156 C 87.015625 50.839844 86.992188 50.757812 86.925781 50.71875 C 86.859375 50.679688 86.773438 50.707031 86.734375 50.773438 C 86.710938 50.8125 86.660156 50.828125 86.621094 50.804688 C 86.578125 50.785156 86.566406 50.730469 86.585938 50.691406 C 86.671875 50.542969 86.859375 50.488281 87.007812 50.570312 C 87.15625 50.65625 87.210938 50.84375 87.128906 50.992188 C 87.113281 51.019531 87.082031 51.035156 87.054688 51.035156 " fill-opacity="1" fill-rule="nonzero"/><path fill="#0e0e0e" d="M 85.496094 52.980469 C 85.46875 52.980469 85.445312 52.980469 85.421875 52.976562 C 85.132812 52.933594 84.933594 52.671875 84.976562 52.386719 C 84.984375 52.339844 85.023438 52.308594 85.070312 52.3125 C 85.117188 52.320312 85.148438 52.363281 85.144531 52.410156 C 85.117188 52.601562 85.25 52.78125 85.445312 52.808594 C 85.539062 52.824219 85.632812 52.800781 85.707031 52.742188 C 85.78125 52.6875 85.832031 52.601562 85.84375 52.507812 C 85.851562 52.464844 85.894531 52.429688 85.941406 52.4375 C 85.988281 52.445312 86.019531 52.488281 86.011719 52.53125 C 85.992188 52.671875 85.917969 52.792969 85.808594 52.875 C 85.714844 52.945312 85.609375 52.980469 85.496094 52.980469 " fill-opacity="1" fill-rule="nonzero"/><path fill="#ffffff" d="M 87.820312 55.652344 L 85.597656 56.609375 L 84.449219 54.996094 L 83.574219 55.789062 L 84.183594 58.046875 L 85.449219 57.136719 L 86.144531 58.464844 L 88.21875 56.527344 L 87.820312 55.652344 " fill-opacity="1" fill-rule="nonzero"/><path fill="#ef6b51" d="M 81.550781 56.398438 L 78.875 50.253906 L 77.648438 43.019531 L 74.691406 43.386719 C 74.691406 43.386719 74.796875 50.246094 75.246094 51.589844 C 75.699219 52.933594 79.027344 62.585938 79.027344 62.585938 L 81.550781 56.398438 " fill-opacity="1" fill-rule="nonzero"/><path fill="#ef6b51" d="M 90.109375 64.003906 C 90.109375 64.003906 91.785156 68.917969 93.585938 68.796875 C 95.386719 68.675781 97.746094 60.609375 97.746094 60.609375 L 95.226562 59.691406 L 93.707031 62.847656 C 93.707031 62.847656 92.863281 59.265625 90.632812 57.746094 L 90.109375 64.003906 " fill-opacity="1" fill-rule="nonzero"/><path fill="#0e0e0e" d="M 89.640625 77.617188 C 89.632812 77.617188 89.628906 77.617188 89.621094 77.613281 C 87.132812 76.714844 86.699219 73.628906 86.695312 73.597656 C 86.691406 73.570312 86.710938 73.539062 86.742188 73.535156 C 86.773438 73.53125 86.800781 73.554688 86.804688 73.585938 C 86.808594 73.613281 87.234375 76.632812 89.660156 77.507812 C 89.6875 77.519531 89.703125 77.550781 89.691406 77.578125 C 89.683594 77.601562 89.664062 77.617188 89.640625 77.617188 " fill-opacity="1" fill-rule="nonzero"/><path fill="#0e0e0e" d="M 76.894531 76.992188 C 76.882812 76.992188 76.871094 76.988281 76.859375 76.980469 C 76.835938 76.960938 76.832031 76.925781 76.851562 76.902344 C 77.707031 75.828125 78.15625 74.777344 78.378906 74.082031 C 78.625 73.332031 78.667969 72.828125 78.667969 72.824219 C 78.667969 72.792969 78.695312 72.769531 78.726562 72.769531 C 78.757812 72.773438 78.78125 72.800781 78.777344 72.832031 C 78.777344 72.851562 78.601562 74.890625 76.9375 76.972656 C 76.929688 76.984375 76.910156 76.992188 76.894531 76.992188 " fill-opacity="1" fill-rule="nonzero"/><path fill="#0e0e0e" d="M 97.640625 96.695312 C 97.621094 96.695312 97.601562 96.6875 97.589844 96.671875 L 90.851562 85.941406 L 90.851562 85.929688 L 88.964844 73.484375 C 88.960938 73.453125 88.984375 73.425781 89.015625 73.421875 C 89.042969 73.414062 89.074219 73.4375 89.078125 73.46875 L 90.960938 85.898438 L 97.6875 96.609375 C 97.703125 96.636719 97.695312 96.671875 97.667969 96.6875 C 97.660156 96.695312 97.648438 96.695312 97.640625 96.695312 " fill-opacity="1" fill-rule="nonzero"/><path fill="#0e0e0e" d="M 94.164062 98.101562 C 94.144531 98.101562 94.128906 98.09375 94.117188 98.078125 C 94.097656 98.054688 94.105469 98.019531 94.128906 98 L 97.925781 95.277344 C 97.953125 95.257812 97.988281 95.265625 98.003906 95.289062 C 98.023438 95.3125 98.015625 95.347656 97.992188 95.367188 L 94.195312 98.09375 C 94.183594 98.097656 94.171875 98.101562 94.164062 98.101562 " fill-opacity="1" fill-rule="nonzero"/><path fill="#0e0e0e" d="M 77.742188 98.40625 C 77.710938 98.40625 77.6875 98.378906 77.6875 98.351562 C 77.683594 98.320312 77.710938 98.292969 77.742188 98.292969 L 82.0625 98.238281 C 82.09375 98.238281 82.117188 98.261719 82.117188 98.292969 C 82.117188 98.324219 82.09375 98.351562 82.0625 98.351562 L 77.742188 98.40625 " fill-opacity="1" fill-rule="nonzero"/><path fill="#e0e0e0" d="M 69.171875 68.871094 C 69.117188 68.871094 69.058594 68.847656 69.015625 68.804688 C 68.925781 68.71875 68.925781 68.574219 69.015625 68.488281 L 72.347656 65.160156 C 72.433594 65.074219 72.578125 65.074219 72.664062 65.160156 C 72.753906 65.25 72.753906 65.390625 72.664062 65.476562 L 69.332031 68.804688 C 69.289062 68.847656 69.230469 68.871094 69.171875 68.871094 " fill-opacity="1" fill-rule="nonzero"/><path fill="#e0e0e0" d="M 6.933594 78.824219 C 6.875 78.824219 6.820312 78.800781 6.773438 78.757812 C 6.6875 78.671875 6.6875 78.527344 6.773438 78.441406 L 10.109375 75.113281 C 10.195312 75.027344 10.339844 75.027344 10.425781 75.113281 C 10.511719 75.199219 10.511719 75.34375 10.425781 75.429688 L 7.09375 78.757812 C 7.046875 78.800781 6.992188 78.824219 6.933594 78.824219 " fill-opacity="1" fill-rule="nonzero"/><path fill="#e0e0e0" d="M 102.742188 46.144531 C 102.207031 46.144531 101.773438 46.578125 101.773438 47.109375 C 101.773438 47.640625 102.207031 48.074219 102.742188 48.074219 C 103.273438 48.074219 103.710938 47.640625 103.710938 47.109375 C 103.710938 46.578125 103.273438 46.144531 102.742188 46.144531 Z M 102.742188 48.523438 C 101.960938 48.523438 101.324219 47.890625 101.324219 47.109375 C 101.324219 46.332031 101.960938 45.695312 102.742188 45.695312 C 103.523438 45.695312 104.15625 46.332031 104.15625 47.109375 C 104.15625 47.890625 103.523438 48.523438 102.742188 48.523438 " fill-opacity="1" fill-rule="nonzero"/><path fill="#e0e0e0" d="M 8.882812 51.449219 C 8.347656 51.449219 7.914062 51.882812 7.914062 52.414062 C 7.914062 52.945312 8.347656 53.378906 8.882812 53.378906 C 9.414062 53.378906 9.847656 52.945312 9.847656 52.414062 C 9.847656 51.882812 9.414062 51.449219 8.882812 51.449219 Z M 8.882812 53.828125 C 8.101562 53.828125 7.464844 53.195312 7.464844 52.414062 C 7.464844 51.632812 8.101562 51 8.882812 51 C 9.660156 51 10.296875 51.632812 10.296875 52.414062 C 10.296875 53.195312 9.660156 53.828125 8.882812 53.828125 " fill-opacity="1" fill-rule="nonzero"/><path fill="#e0e0e0" d="M 21.164062 43.445312 C 19.789062 43.445312 18.671875 42.328125 18.671875 40.957031 C 18.671875 40.832031 18.773438 40.730469 18.898438 40.730469 C 19.019531 40.730469 19.121094 40.832031 19.121094 40.957031 C 19.121094 42.082031 20.039062 42.996094 21.164062 42.996094 C 21.289062 42.996094 21.390625 43.097656 21.390625 43.21875 C 21.390625 43.34375 21.289062 43.445312 21.164062 43.445312 " fill-opacity="1" fill-rule="nonzero"/><path fill="#e0e0e0" d="M 88.214844 42.113281 C 86.839844 42.113281 85.722656 40.996094 85.722656 39.625 C 85.722656 39.5 85.824219 39.402344 85.949219 39.402344 C 86.070312 39.402344 86.171875 39.5 86.171875 39.625 C 86.171875 40.75 87.089844 41.664062 88.214844 41.664062 C 88.339844 41.664062 88.441406 41.765625 88.441406 41.890625 C 88.441406 42.011719 88.339844 42.113281 88.214844 42.113281 " fill-opacity="1" fill-rule="nonzero"/><path fill="#e0e0e0" d="M 41.425781 66.722656 C 40.054688 66.722656 38.933594 65.605469 38.933594 64.234375 C 38.933594 64.109375 39.035156 64.007812 39.160156 64.007812 C 39.28125 64.007812 39.382812 64.109375 39.382812 64.234375 C 39.382812 65.359375 40.300781 66.273438 41.425781 66.273438 C 41.550781 66.273438 41.652344 66.375 41.652344 66.5 C 41.652344 66.621094 41.550781 66.722656 41.425781 66.722656 " fill-opacity="1" fill-rule="nonzero"/><g clip-path="url(#5e3a3b2164)"><path fill="#e0e0e0" d="M 97.109375 78.015625 C 96.996094 78.015625 96.898438 77.929688 96.886719 77.8125 C 96.878906 77.6875 96.96875 77.582031 97.09375 77.570312 L 100.21875 77.289062 L 100.496094 74.171875 C 100.507812 74.0625 100.59375 73.976562 100.699219 73.964844 L 103.824219 73.6875 L 104.105469 70.566406 C 104.117188 70.457031 104.199219 70.375 104.308594 70.363281 L 107.621094 70.066406 C 107.746094 70.058594 107.855469 70.148438 107.863281 70.269531 C 107.875 70.394531 107.785156 70.503906 107.660156 70.515625 L 104.535156 70.792969 L 104.257812 73.914062 C 104.246094 74.023438 104.160156 74.109375 104.054688 74.117188 L 100.925781 74.394531 L 100.648438 77.515625 C 100.636719 77.625 100.550781 77.710938 100.445312 77.71875 L 97.132812 78.015625 C 97.125 78.015625 97.117188 78.015625 97.109375 78.015625 " fill-opacity="1" fill-rule="nonzero"/></g><path fill="#e0e0e0" d="M 57.964844 40.679688 C 57.847656 40.679688 57.75 40.589844 57.738281 40.472656 L 57.460938 37.351562 L 54.335938 37.074219 C 54.226562 37.0625 54.140625 36.980469 54.132812 36.871094 L 53.835938 33.5625 C 53.824219 33.441406 53.914062 33.332031 54.039062 33.320312 C 54.160156 33.308594 54.269531 33.402344 54.28125 33.523438 L 54.5625 36.644531 L 57.6875 36.921875 C 57.796875 36.933594 57.882812 37.019531 57.890625 37.128906 L 58.1875 40.433594 C 58.199219 40.558594 58.105469 40.667969 57.984375 40.675781 C 57.976562 40.679688 57.96875 40.679688 57.964844 40.679688 " fill-opacity="1" fill-rule="nonzero"/><g clip-path="url(#2157434c7c)"><path fill="#0e0e0e" d="M 106.898438 103.3125 L 4.160156 103.3125 C 4.117188 103.3125 4.078125 103.273438 4.078125 103.226562 C 4.078125 103.179688 4.117188 103.144531 4.160156 103.144531 L 106.898438 103.144531 C 106.945312 103.144531 106.984375 103.179688 106.984375 103.226562 C 106.984375 103.273438 106.945312 103.3125 106.898438 103.3125 " fill-opacity="1" fill-rule="nonzero"/></g></svg>