<svg xmlns="http://www.w3.org/2000/svg" xmlns:xlink="http://www.w3.org/1999/xlink" width="62" zoomAndPan="magnify" viewBox="0 0 46.5 35.25" height="47" preserveAspectRatio="xMidYMid meet" version="1.0"><defs><clipPath id="c51bba4bd0"><path d="M 13 17 L 33 17 L 33 33.78125 L 13 33.78125 Z M 13 17 " clip-rule="nonzero"/></clipPath><clipPath id="b947c7dcb0"><path d="M 28 13 L 45.769531 13 L 45.769531 30 L 28 30 Z M 28 13 " clip-rule="nonzero"/></clipPath><clipPath id="4dd547d67c"><path d="M 0.238281 13 L 18 13 L 18 30 L 0.238281 30 Z M 0.238281 13 " clip-rule="nonzero"/></clipPath></defs><g clip-path="url(#c51bba4bd0)"><path fill="#bf1e2e" d="M 25.371094 17.585938 L 20.636719 17.585938 C 16.941406 17.585938 13.945312 20.582031 13.945312 24.277344 L 13.945312 31.902344 C 19.789062 34.03125 26.210938 34.03125 32.058594 31.902344 L 32.058594 24.277344 C 32.066406 20.582031 29.070312 17.585938 25.371094 17.585938 Z M 25.371094 17.585938 " fill-opacity="1" fill-rule="nonzero"/></g><path fill="#bf1e2e" d="M 28.496094 9.898438 C 28.496094 10.261719 28.460938 10.617188 28.390625 10.972656 C 28.320312 11.324219 28.214844 11.667969 28.078125 12 C 27.941406 12.335938 27.769531 12.652344 27.570312 12.949219 C 27.371094 13.25 27.144531 13.527344 26.886719 13.78125 C 26.632812 14.039062 26.355469 14.265625 26.054688 14.464844 C 25.757812 14.667969 25.441406 14.835938 25.105469 14.972656 C 24.773438 15.113281 24.429688 15.214844 24.078125 15.285156 C 23.722656 15.355469 23.367188 15.390625 23.003906 15.390625 C 22.644531 15.390625 22.289062 15.355469 21.933594 15.285156 C 21.582031 15.214844 21.238281 15.113281 20.902344 14.972656 C 20.570312 14.835938 20.253906 14.667969 19.953125 14.464844 C 19.65625 14.265625 19.378906 14.039062 19.121094 13.78125 C 18.867188 13.527344 18.640625 13.25 18.441406 12.949219 C 18.238281 12.652344 18.070312 12.335938 17.933594 12 C 17.792969 11.667969 17.691406 11.324219 17.621094 10.972656 C 17.550781 10.617188 17.515625 10.261719 17.515625 9.898438 C 17.515625 9.539062 17.550781 9.183594 17.621094 8.828125 C 17.691406 8.476562 17.792969 8.132812 17.933594 7.800781 C 18.070312 7.464844 18.238281 7.148438 18.441406 6.851562 C 18.640625 6.550781 18.867188 6.273438 19.121094 6.015625 C 19.378906 5.761719 19.65625 5.535156 19.953125 5.335938 C 20.253906 5.132812 20.570312 4.964844 20.902344 4.828125 C 21.238281 4.6875 21.582031 4.585938 21.933594 4.515625 C 22.289062 4.445312 22.644531 4.410156 23.003906 4.410156 C 23.367188 4.410156 23.722656 4.445312 24.078125 4.515625 C 24.429688 4.585938 24.773438 4.6875 25.105469 4.828125 C 25.441406 4.964844 25.757812 5.132812 26.054688 5.335938 C 26.355469 5.535156 26.632812 5.761719 26.886719 6.015625 C 27.144531 6.273438 27.371094 6.550781 27.570312 6.851562 C 27.769531 7.148438 27.941406 7.464844 28.078125 7.800781 C 28.214844 8.132812 28.320312 8.476562 28.390625 8.828125 C 28.460938 9.183594 28.496094 9.539062 28.496094 9.898438 Z M 28.496094 9.898438 " fill-opacity="1" fill-rule="nonzero"/><g clip-path="url(#b947c7dcb0)"><path fill="#bf1e2e" d="M 39.078125 13.179688 L 34.34375 13.179688 C 31.738281 13.179688 29.480469 14.671875 28.378906 16.847656 C 31.308594 18.042969 33.386719 20.917969 33.386719 24.269531 L 33.386719 28.878906 C 37.539062 29.40625 41.792969 28.941406 45.769531 27.492188 L 45.769531 19.871094 C 45.769531 16.175781 42.773438 13.179688 39.078125 13.179688 Z M 39.078125 13.179688 " fill-opacity="1" fill-rule="nonzero"/></g><path fill="#bf1e2e" d="M 42.203125 5.492188 C 42.203125 5.851562 42.164062 6.210938 42.09375 6.5625 C 42.023438 6.917969 41.921875 7.261719 41.78125 7.59375 C 41.644531 7.925781 41.476562 8.242188 41.277344 8.542969 C 41.074219 8.84375 40.847656 9.121094 40.59375 9.375 C 40.339844 9.628906 40.0625 9.859375 39.761719 10.058594 C 39.460938 10.257812 39.144531 10.429688 38.8125 10.566406 C 38.476562 10.703125 38.136719 10.808594 37.78125 10.878906 C 37.429688 10.949219 37.070312 10.984375 36.710938 10.984375 C 36.347656 10.984375 35.992188 10.949219 35.640625 10.878906 C 35.285156 10.808594 34.941406 10.703125 34.609375 10.566406 C 34.277344 10.429688 33.960938 10.257812 33.660156 10.058594 C 33.359375 9.859375 33.082031 9.628906 32.828125 9.375 C 32.574219 9.121094 32.34375 8.84375 32.144531 8.542969 C 31.945312 8.242188 31.773438 7.925781 31.636719 7.59375 C 31.5 7.261719 31.394531 6.917969 31.324219 6.5625 C 31.253906 6.210938 31.21875 5.851562 31.21875 5.492188 C 31.21875 5.132812 31.253906 4.773438 31.324219 4.421875 C 31.394531 4.066406 31.5 3.726562 31.636719 3.390625 C 31.773438 3.058594 31.945312 2.742188 32.144531 2.441406 C 32.34375 2.140625 32.574219 1.863281 32.828125 1.609375 C 33.082031 1.355469 33.359375 1.128906 33.660156 0.925781 C 33.960938 0.726562 34.277344 0.558594 34.609375 0.417969 C 34.941406 0.28125 35.285156 0.175781 35.640625 0.105469 C 35.992188 0.0351562 36.347656 0 36.710938 0 C 37.070312 0 37.429688 0.0351562 37.78125 0.105469 C 38.136719 0.175781 38.476562 0.28125 38.8125 0.417969 C 39.144531 0.558594 39.460938 0.726562 39.761719 0.925781 C 40.0625 1.128906 40.339844 1.355469 40.59375 1.609375 C 40.847656 1.863281 41.074219 2.140625 41.277344 2.441406 C 41.476562 2.742188 41.644531 3.058594 41.78125 3.390625 C 41.921875 3.726562 42.023438 4.066406 42.09375 4.421875 C 42.164062 4.773438 42.203125 5.132812 42.203125 5.492188 Z M 42.203125 5.492188 " fill-opacity="1" fill-rule="nonzero"/><g clip-path="url(#4dd547d67c)"><path fill="#bf1e2e" d="M 17.632812 16.859375 C 16.53125 14.679688 14.273438 13.1875 11.667969 13.1875 L 6.933594 13.1875 C 3.234375 13.179688 0.238281 16.175781 0.238281 19.871094 L 0.238281 27.492188 C 4.226562 28.949219 8.472656 29.40625 12.625 28.878906 L 12.625 24.269531 C 12.625 20.917969 14.699219 18.042969 17.632812 16.859375 Z M 17.632812 16.859375 " fill-opacity="1" fill-rule="nonzero"/></g><path fill="#bf1e2e" d="M 14.792969 5.492188 C 14.792969 5.851562 14.757812 6.210938 14.6875 6.5625 C 14.617188 6.917969 14.511719 7.261719 14.375 7.59375 C 14.234375 7.925781 14.066406 8.242188 13.867188 8.542969 C 13.664062 8.84375 13.4375 9.121094 13.183594 9.375 C 12.929688 9.628906 12.652344 9.859375 12.351562 10.058594 C 12.050781 10.257812 11.734375 10.429688 11.402344 10.566406 C 11.070312 10.703125 10.726562 10.808594 10.371094 10.878906 C 10.019531 10.949219 9.660156 10.984375 9.300781 10.984375 C 8.941406 10.984375 8.582031 10.949219 8.230469 10.878906 C 7.875 10.808594 7.53125 10.703125 7.199219 10.566406 C 6.867188 10.429688 6.550781 10.257812 6.25 10.058594 C 5.949219 9.859375 5.671875 9.628906 5.417969 9.375 C 5.164062 9.121094 4.933594 8.84375 4.734375 8.542969 C 4.535156 8.242188 4.363281 7.925781 4.226562 7.59375 C 4.089844 7.261719 3.984375 6.917969 3.914062 6.5625 C 3.84375 6.210938 3.808594 5.851562 3.808594 5.492188 C 3.808594 5.132812 3.84375 4.773438 3.914062 4.421875 C 3.984375 4.066406 4.089844 3.726562 4.226562 3.390625 C 4.363281 3.058594 4.535156 2.742188 4.734375 2.441406 C 4.933594 2.140625 5.164062 1.863281 5.417969 1.609375 C 5.671875 1.355469 5.949219 1.128906 6.25 0.925781 C 6.550781 0.726562 6.867188 0.558594 7.199219 0.417969 C 7.53125 0.28125 7.875 0.175781 8.230469 0.105469 C 8.582031 0.0351562 8.941406 0 9.300781 0 C 9.660156 0 10.019531 0.0351562 10.371094 0.105469 C 10.726562 0.175781 11.070312 0.28125 11.402344 0.417969 C 11.734375 0.558594 12.050781 0.726562 12.351562 0.925781 C 12.652344 1.128906 12.929688 1.355469 13.183594 1.609375 C 13.4375 1.863281 13.664062 2.140625 13.867188 2.441406 C 14.066406 2.742188 14.234375 3.058594 14.375 3.390625 C 14.511719 3.726562 14.617188 4.066406 14.6875 4.421875 C 14.757812 4.773438 14.792969 5.132812 14.792969 5.492188 Z M 14.792969 5.492188 " fill-opacity="1" fill-rule="nonzero"/></svg>