<svg xmlns="http://www.w3.org/2000/svg" xmlns:xlink="http://www.w3.org/1999/xlink" width="150" zoomAndPan="magnify" viewBox="0 0 112.5 112.499997" height="150" preserveAspectRatio="xMidYMid meet" version="1.0"><defs><clipPath id="f82f9d05a8"><path d="M 0 0 L 112.003906 0 L 112.003906 112.003906 L 0 112.003906 Z M 0 0 " clip-rule="nonzero"/></clipPath><clipPath id="2b63945cbd"><path d="M 2.738281 37 L 11 37 L 11 46 L 2.738281 46 Z M 2.738281 37 " clip-rule="nonzero"/></clipPath><clipPath id="c71265fdff"><path d="M 2.738281 37 L 96 37 L 96 85 L 2.738281 85 Z M 2.738281 37 " clip-rule="nonzero"/></clipPath><clipPath id="014a787a1d"><path d="M 2.738281 37 L 96 37 L 96 85 L 2.738281 85 Z M 2.738281 37 " clip-rule="nonzero"/></clipPath><clipPath id="e0f586d625"><path d="M 2.738281 37 L 96 37 L 96 85 L 2.738281 85 Z M 2.738281 37 " clip-rule="nonzero"/></clipPath><clipPath id="843382b304"><path d="M 2.738281 75 L 11 75 L 11 85 L 2.738281 85 Z M 2.738281 75 " clip-rule="nonzero"/></clipPath><clipPath id="893b97276c"><path d="M 2.738281 37 L 96 37 L 96 85 L 2.738281 85 Z M 2.738281 37 " clip-rule="nonzero"/></clipPath><clipPath id="3f12c77764"><path d="M 14 15.386719 L 23 15.386719 L 23 25 L 14 25 Z M 14 15.386719 " clip-rule="nonzero"/></clipPath><clipPath id="84454bda12"><path d="M 5 15.386719 L 105 15.386719 L 105 84 L 5 84 Z M 5 15.386719 " clip-rule="nonzero"/></clipPath><clipPath id="efd69c755a"><path d="M 5 15.386719 L 105 15.386719 L 105 84 L 5 84 Z M 5 15.386719 " clip-rule="nonzero"/></clipPath><clipPath id="e2936cbb31"><path d="M 75 62 L 109.511719 62 L 109.511719 96.777344 L 75 96.777344 Z M 75 62 " clip-rule="nonzero"/></clipPath><clipPath id="ad5cec49cd"><path d="M 47 57 L 87 57 L 87 96.777344 L 47 96.777344 Z M 47 57 " clip-rule="nonzero"/></clipPath></defs><g clip-path="url(#f82f9d05a8)"><path fill="#ffffff" d="M 0 0 L 112.003906 0 L 112.003906 112.003906 L 0 112.003906 Z M 0 0 " fill-opacity="1" fill-rule="nonzero"/><path fill="#ffffff" d="M 0 0 L 112.003906 0 L 112.003906 112.003906 L 0 112.003906 Z M 0 0 " fill-opacity="1" fill-rule="nonzero"/></g><g clip-path="url(#2b63945cbd)"><path fill="#11b743" d="M 10.929688 41.632812 C 10.929688 43.890625 9.09375 45.722656 6.832031 45.722656 C 6.34375 45.722656 5.875 45.640625 5.441406 45.476562 C 3.867188 44.914062 2.742188 43.402344 2.742188 41.632812 L 2.742188 37.539062 L 6.839844 37.539062 C 8.585938 37.539062 10.074219 38.632812 10.664062 40.164062 C 10.832031 40.621094 10.929688 41.113281 10.929688 41.632812 Z M 10.929688 41.632812 " fill-opacity="1" fill-rule="nonzero"/></g><g clip-path="url(#c71265fdff)"><path fill="#11b743" d="M 95.433594 37.539062 L 95.433594 84.03125 L 91.339844 84.03125 C 93.566406 84.03125 95.382812 82.253906 95.429688 80.035156 L 95.429688 79.839844 C 95.390625 78.109375 94.277344 76.644531 92.726562 76.085938 C 92.292969 75.929688 91.824219 75.84375 91.339844 75.84375 C 89.078125 75.84375 87.246094 77.675781 87.246094 79.9375 C 87.246094 80.457031 87.339844 80.945312 87.515625 81.402344 C 88.101562 82.9375 89.589844 84.03125 91.339844 84.03125 L 6.832031 84.03125 C 8.574219 84.03125 10.066406 82.941406 10.65625 81.402344 C 10.832031 80.945312 10.929688 80.457031 10.929688 79.9375 C 10.929688 77.675781 9.09375 75.84375 6.832031 75.84375 C 6.34375 75.84375 5.875 75.929688 5.441406 76.09375 C 3.867188 76.660156 2.742188 78.167969 2.742188 79.9375 L 2.742188 41.632812 C 2.742188 43.402344 3.867188 44.914062 5.441406 45.476562 C 5.875 45.632812 6.34375 45.722656 6.832031 45.722656 C 9.09375 45.722656 10.929688 43.890625 10.929688 41.632812 C 10.929688 41.117188 10.832031 40.621094 10.65625 40.164062 C 10.070312 38.632812 8.582031 37.539062 6.832031 37.539062 L 91.339844 37.539062 C 89.589844 37.539062 88.101562 38.632812 87.515625 40.164062 C 87.339844 40.621094 87.246094 41.113281 87.246094 41.632812 C 87.246094 43.890625 89.078125 45.722656 91.339844 45.722656 C 91.828125 45.722656 92.292969 45.640625 92.726562 45.480469 C 94.273438 44.921875 95.390625 43.464844 95.429688 41.738281 L 95.429688 41.53125 C 95.371094 39.320312 93.5625 37.542969 91.339844 37.542969 L 95.433594 37.542969 Z M 95.433594 37.539062 " fill-opacity="1" fill-rule="nonzero"/></g><path fill="#11b743" d="M 95.433594 80.035156 L 95.433594 84.03125 L 91.34375 84.03125 C 93.566406 84.03125 95.382812 82.25 95.433594 80.035156 Z M 95.433594 80.035156 " fill-opacity="1" fill-rule="nonzero"/><g clip-path="url(#014a787a1d)"><path fill="#11b743" d="M 95.433594 37.539062 L 95.433594 60.785156 L 95.429688 79.839844 C 95.390625 78.109375 94.277344 76.644531 92.726562 76.085938 C 92.292969 75.929688 91.824219 75.84375 91.339844 75.84375 C 89.078125 75.84375 87.246094 77.675781 87.246094 79.9375 C 87.246094 80.457031 87.339844 80.945312 87.515625 81.402344 C 88.101562 82.9375 89.589844 84.03125 91.339844 84.03125 L 6.832031 84.03125 C 8.574219 84.03125 10.066406 82.941406 10.65625 81.402344 C 10.832031 80.945312 10.929688 80.457031 10.929688 79.9375 C 10.929688 77.675781 9.09375 75.84375 6.832031 75.84375 C 6.34375 75.84375 5.875 75.929688 5.441406 76.09375 C 3.867188 76.660156 2.742188 78.167969 2.742188 79.9375 L 2.742188 84.03125 L 2.738281 84.03125 L 2.742188 60.785156 L 2.742188 41.632812 C 2.742188 43.402344 3.867188 44.914062 5.441406 45.476562 C 5.875 45.632812 6.34375 45.722656 6.832031 45.722656 C 9.09375 45.722656 10.929688 43.890625 10.929688 41.632812 C 10.929688 41.117188 10.832031 40.621094 10.65625 40.164062 C 10.070312 38.632812 8.582031 37.539062 6.832031 37.539062 L 91.339844 37.539062 C 89.589844 37.539062 88.101562 38.632812 87.515625 40.164062 C 87.339844 40.621094 87.246094 41.113281 87.246094 41.632812 C 87.246094 43.890625 89.078125 45.722656 91.339844 45.722656 C 91.828125 45.722656 92.292969 45.640625 92.726562 45.480469 C 94.273438 44.921875 95.390625 43.464844 95.429688 41.738281 L 95.429688 41.53125 C 95.371094 39.320312 93.5625 37.542969 91.339844 37.542969 L 95.433594 37.542969 Z M 95.433594 37.539062 " fill-opacity="1" fill-rule="nonzero"/></g><path fill="#11b743" d="M 95.433594 41.632812 C 95.433594 41.664062 95.433594 41.703125 95.429688 41.738281 L 95.429688 41.53125 C 95.433594 41.558594 95.433594 41.589844 95.433594 41.632812 Z M 95.433594 41.632812 " fill-opacity="1" fill-rule="nonzero"/><path fill="#11b743" d="M 91.339844 37.539062 L 95.429688 37.539062 L 95.429688 41.523438 C 95.378906 39.3125 93.566406 37.539062 91.339844 37.539062 Z M 91.339844 37.539062 " fill-opacity="1" fill-rule="nonzero"/><g clip-path="url(#e0f586d625)"><path fill="#11b743" d="M 95.433594 60.785156 L 95.433594 84.03125 L 91.339844 84.03125 C 93.566406 84.03125 95.382812 82.253906 95.429688 80.035156 L 95.429688 79.839844 C 95.390625 78.109375 94.277344 76.644531 92.726562 76.085938 C 92.292969 75.929688 91.824219 75.84375 91.339844 75.84375 C 89.078125 75.84375 87.246094 77.675781 87.246094 79.9375 C 87.246094 80.457031 87.339844 80.945312 87.515625 81.402344 C 88.101562 82.9375 89.589844 84.03125 91.339844 84.03125 L 6.832031 84.03125 C 8.574219 84.03125 10.066406 82.941406 10.65625 81.402344 C 10.832031 80.945312 10.929688 80.457031 10.929688 79.9375 C 10.929688 77.675781 9.09375 75.84375 6.832031 75.84375 C 6.34375 75.84375 5.875 75.929688 5.441406 76.09375 C 3.867188 76.660156 2.742188 78.167969 2.742188 79.9375 L 2.742188 60.785156 L 2.738281 37.539062 L 2.742188 37.539062 L 2.742188 41.632812 C 2.742188 43.402344 3.867188 44.914062 5.441406 45.476562 C 5.875 45.632812 6.34375 45.722656 6.832031 45.722656 C 9.09375 45.722656 10.929688 43.890625 10.929688 41.632812 C 10.929688 41.117188 10.832031 40.621094 10.65625 40.164062 C 10.070312 38.632812 8.582031 37.539062 6.832031 37.539062 L 91.339844 37.539062 C 89.589844 37.539062 88.101562 38.632812 87.515625 40.164062 C 87.339844 40.621094 87.246094 41.113281 87.246094 41.632812 C 87.246094 43.890625 89.078125 45.722656 91.339844 45.722656 C 91.828125 45.722656 92.292969 45.640625 92.726562 45.480469 C 94.273438 44.921875 95.390625 43.464844 95.429688 41.738281 Z M 95.433594 60.785156 " fill-opacity="1" fill-rule="nonzero"/></g><path fill="#11b743" d="M 95.433594 79.925781 L 95.433594 79.941406 C 95.433594 79.972656 95.433594 80 95.429688 80.027344 L 95.429688 79.835938 C 95.433594 79.871094 95.433594 79.898438 95.433594 79.925781 Z M 95.433594 79.925781 " fill-opacity="1" fill-rule="nonzero"/><path fill="#11b743" d="M 95.433594 79.839844 L 95.433594 80.035156 C 95.382812 82.253906 93.574219 84.03125 91.34375 84.03125 C 89.597656 84.03125 88.105469 82.941406 87.519531 81.402344 C 87.347656 80.945312 87.25 80.457031 87.25 79.9375 C 87.25 77.675781 89.082031 75.84375 91.34375 75.84375 C 91.835938 75.84375 92.296875 75.929688 92.734375 76.085938 C 94.277344 76.644531 95.394531 78.109375 95.433594 79.839844 Z M 95.433594 79.839844 " fill-opacity="1" fill-rule="nonzero"/><path fill="#11b743" d="M 95.433594 41.523438 L 95.433594 41.734375 C 95.390625 43.464844 94.277344 44.921875 92.734375 45.476562 C 92.296875 45.632812 91.828125 45.71875 91.34375 45.71875 C 89.082031 45.71875 87.25 43.886719 87.25 41.625 C 87.25 41.113281 87.347656 40.617188 87.519531 40.160156 C 88.105469 38.625 89.597656 37.53125 91.34375 37.53125 C 93.566406 37.539062 95.378906 39.3125 95.433594 41.523438 Z M 95.433594 41.523438 " fill-opacity="1" fill-rule="nonzero"/><path fill="#11b743" d="M 91.339844 37.539062 L 95.429688 37.539062 L 95.429688 41.523438 C 95.378906 39.3125 93.566406 37.539062 91.339844 37.539062 Z M 91.339844 37.539062 " fill-opacity="1" fill-rule="nonzero"/><g clip-path="url(#843382b304)"><path fill="#11b743" d="M 10.929688 79.9375 C 10.929688 80.457031 10.832031 80.945312 10.65625 81.402344 C 10.066406 82.9375 8.574219 84.03125 6.832031 84.03125 L 2.742188 84.03125 L 2.742188 79.9375 C 2.742188 78.167969 3.867188 76.660156 5.441406 76.09375 C 5.875 75.933594 6.34375 75.84375 6.832031 75.84375 C 9.09375 75.84375 10.929688 77.675781 10.929688 79.9375 Z M 10.929688 79.9375 " fill-opacity="1" fill-rule="nonzero"/></g><g clip-path="url(#893b97276c)"><path fill="#11b743" d="M 95.433594 60.785156 L 95.433594 84.03125 L 91.339844 84.03125 C 93.566406 84.03125 95.382812 82.253906 95.429688 80.035156 L 95.429688 79.839844 C 95.390625 78.109375 94.277344 76.644531 92.726562 76.085938 C 92.292969 75.929688 91.824219 75.84375 91.339844 75.84375 C 89.078125 75.84375 87.246094 77.675781 87.246094 79.9375 C 87.246094 80.457031 87.339844 80.945312 87.515625 81.402344 C 88.101562 82.9375 89.589844 84.03125 91.339844 84.03125 L 6.832031 84.03125 C 8.574219 84.03125 10.066406 82.941406 10.65625 81.402344 C 10.832031 80.945312 10.929688 80.457031 10.929688 79.9375 C 10.929688 77.675781 9.09375 75.84375 6.832031 75.84375 C 6.34375 75.84375 5.875 75.929688 5.441406 76.09375 C 3.867188 76.660156 2.742188 78.167969 2.742188 79.9375 L 2.742188 60.785156 L 2.738281 37.539062 L 2.742188 37.539062 L 2.742188 41.632812 C 2.742188 43.402344 3.867188 44.914062 5.441406 45.476562 C 5.875 45.632812 6.34375 45.722656 6.832031 45.722656 C 9.09375 45.722656 10.929688 43.890625 10.929688 41.632812 C 10.929688 41.117188 10.832031 40.621094 10.65625 40.164062 C 10.070312 38.632812 8.582031 37.539062 6.832031 37.539062 L 91.339844 37.539062 C 89.589844 37.539062 88.101562 38.632812 87.515625 40.164062 C 87.339844 40.621094 87.246094 41.113281 87.246094 41.632812 C 87.246094 43.890625 89.078125 45.722656 91.339844 45.722656 C 91.828125 45.722656 92.292969 45.640625 92.726562 45.480469 C 94.273438 44.921875 95.390625 43.464844 95.429688 41.738281 Z M 95.433594 60.785156 " fill-opacity="1" fill-rule="nonzero"/></g><path fill="#8fef91" d="M 92.734375 45.480469 L 92.734375 76.085938 C 92.296875 75.929688 91.828125 75.84375 91.34375 75.84375 C 89.082031 75.84375 87.25 77.675781 87.25 79.9375 C 87.25 80.457031 87.347656 80.945312 87.519531 81.402344 L 10.65625 81.402344 C 10.832031 80.945312 10.929688 80.457031 10.929688 79.9375 C 10.929688 77.675781 9.09375 75.84375 6.832031 75.84375 C 6.34375 75.84375 5.875 75.929688 5.441406 76.09375 L 5.441406 45.476562 C 5.875 45.632812 6.34375 45.722656 6.832031 45.722656 C 9.09375 45.722656 10.929688 43.890625 10.929688 41.632812 C 10.929688 41.117188 10.832031 40.621094 10.65625 40.164062 L 87.519531 40.164062 C 87.347656 40.621094 87.25 41.113281 87.25 41.632812 C 87.25 43.890625 89.082031 45.722656 91.34375 45.722656 C 91.828125 45.722656 92.292969 45.632812 92.734375 45.480469 Z M 92.734375 45.480469 " fill-opacity="1" fill-rule="nonzero"/><path fill="#11b743" d="M 66.097656 60.785156 C 66.097656 61.339844 66.070312 61.898438 66.015625 62.449219 C 65.960938 63.003906 65.878906 63.554688 65.769531 64.101562 C 65.664062 64.648438 65.527344 65.1875 65.367188 65.71875 C 65.203125 66.253906 65.015625 66.777344 64.804688 67.292969 C 64.589844 67.804688 64.351562 68.308594 64.089844 68.800781 C 63.828125 69.292969 63.539062 69.769531 63.230469 70.230469 C 62.921875 70.695312 62.589844 71.140625 62.238281 71.570312 C 61.882812 72.003906 61.507812 72.414062 61.117188 72.808594 C 60.722656 73.203125 60.308594 73.574219 59.878906 73.929688 C 59.449219 74.28125 59 74.613281 58.539062 74.921875 C 58.074219 75.234375 57.597656 75.519531 57.105469 75.78125 C 56.613281 76.042969 56.109375 76.28125 55.597656 76.496094 C 55.082031 76.707031 54.558594 76.894531 54.023438 77.058594 C 53.492188 77.21875 52.953125 77.355469 52.40625 77.460938 C 51.859375 77.570312 51.308594 77.652344 50.753906 77.707031 C 50.199219 77.761719 49.644531 77.789062 49.085938 77.789062 C 48.527344 77.789062 47.972656 77.761719 47.417969 77.707031 C 46.863281 77.652344 46.3125 77.570312 45.765625 77.460938 C 45.222656 77.355469 44.679688 77.21875 44.148438 77.058594 C 43.613281 76.894531 43.089844 76.707031 42.574219 76.496094 C 42.0625 76.28125 41.558594 76.042969 41.066406 75.78125 C 40.574219 75.519531 40.097656 75.234375 39.636719 74.921875 C 39.171875 74.613281 38.722656 74.28125 38.292969 73.929688 C 37.863281 73.574219 37.449219 73.203125 37.058594 72.808594 C 36.664062 72.414062 36.289062 72.003906 35.9375 71.570312 C 35.582031 71.140625 35.25 70.695312 34.941406 70.230469 C 34.632812 69.769531 34.34375 69.292969 34.082031 68.800781 C 33.820312 68.308594 33.582031 67.804688 33.367188 67.292969 C 33.15625 66.777344 32.96875 66.253906 32.808594 65.71875 C 32.644531 65.1875 32.507812 64.648438 32.402344 64.101562 C 32.292969 63.554688 32.210938 63.003906 32.15625 62.449219 C 32.101562 61.898438 32.074219 61.339844 32.074219 60.785156 C 32.074219 60.226562 32.101562 59.671875 32.15625 59.117188 C 32.210938 58.5625 32.292969 58.011719 32.402344 57.464844 C 32.507812 56.921875 32.644531 56.382812 32.808594 55.847656 C 32.96875 55.316406 33.15625 54.792969 33.367188 54.277344 C 33.582031 53.761719 33.820312 53.257812 34.082031 52.769531 C 34.34375 52.277344 34.632812 51.800781 34.941406 51.335938 C 35.25 50.875 35.582031 50.425781 35.9375 49.996094 C 36.289062 49.566406 36.664062 49.152344 37.058594 48.761719 C 37.449219 48.367188 37.863281 47.992188 38.292969 47.640625 C 38.722656 47.285156 39.171875 46.953125 39.636719 46.644531 C 40.097656 46.335938 40.574219 46.050781 41.066406 45.785156 C 41.558594 45.523438 42.0625 45.285156 42.574219 45.074219 C 43.089844 44.859375 43.613281 44.671875 44.148438 44.511719 C 44.679688 44.351562 45.222656 44.214844 45.765625 44.105469 C 46.3125 43.996094 46.863281 43.914062 47.417969 43.859375 C 47.972656 43.804688 48.527344 43.777344 49.085938 43.777344 C 49.644531 43.777344 50.199219 43.804688 50.753906 43.859375 C 51.308594 43.914062 51.859375 43.996094 52.40625 44.105469 C 52.953125 44.214844 53.492188 44.351562 54.023438 44.511719 C 54.558594 44.671875 55.082031 44.859375 55.597656 45.074219 C 56.109375 45.285156 56.613281 45.523438 57.105469 45.785156 C 57.597656 46.050781 58.074219 46.335938 58.539062 46.644531 C 59 46.953125 59.449219 47.285156 59.878906 47.640625 C 60.308594 47.992188 60.722656 48.367188 61.117188 48.761719 C 61.507812 49.152344 61.882812 49.566406 62.238281 49.996094 C 62.589844 50.425781 62.921875 50.875 63.230469 51.335938 C 63.539062 51.800781 63.828125 52.277344 64.089844 52.769531 C 64.351562 53.257812 64.589844 53.761719 64.804688 54.277344 C 65.015625 54.792969 65.203125 55.316406 65.367188 55.847656 C 65.527344 56.382812 65.664062 56.921875 65.769531 57.464844 C 65.878906 58.011719 65.960938 58.5625 66.015625 59.117188 C 66.070312 59.671875 66.097656 60.226562 66.097656 60.785156 Z M 66.097656 60.785156 " fill-opacity="1" fill-rule="nonzero"/><path fill="#11b743" d="M 26.472656 57.785156 C 26.472656 58.105469 26.410156 58.414062 26.289062 58.710938 C 26.167969 59.007812 25.992188 59.269531 25.765625 59.496094 C 25.539062 59.722656 25.277344 59.898438 24.980469 60.019531 C 24.683594 60.140625 24.375 60.203125 24.054688 60.203125 C 23.734375 60.203125 23.421875 60.140625 23.128906 60.019531 C 22.832031 59.898438 22.570312 59.722656 22.34375 59.496094 C 22.117188 59.269531 21.941406 59.007812 21.816406 58.710938 C 21.695312 58.414062 21.632812 58.105469 21.632812 57.785156 C 21.632812 57.464844 21.695312 57.15625 21.816406 56.859375 C 21.941406 56.5625 22.117188 56.300781 22.34375 56.074219 C 22.570312 55.847656 22.832031 55.671875 23.128906 55.550781 C 23.421875 55.425781 23.734375 55.367188 24.054688 55.367188 C 24.375 55.367188 24.683594 55.425781 24.980469 55.550781 C 25.277344 55.671875 25.539062 55.847656 25.765625 56.074219 C 25.992188 56.300781 26.167969 56.5625 26.289062 56.859375 C 26.410156 57.15625 26.472656 57.464844 26.472656 57.785156 Z M 26.472656 57.785156 " fill-opacity="1" fill-rule="nonzero"/><path fill="#11b743" d="M 75.929688 57.785156 C 75.929688 58.105469 75.867188 58.414062 75.746094 58.710938 C 75.621094 59.007812 75.449219 59.269531 75.21875 59.496094 C 74.992188 59.722656 74.730469 59.898438 74.4375 60.019531 C 74.140625 60.140625 73.832031 60.203125 73.507812 60.203125 C 73.1875 60.203125 72.878906 60.140625 72.582031 60.019531 C 72.289062 59.898438 72.027344 59.722656 71.796875 59.496094 C 71.570312 59.269531 71.398438 59.007812 71.273438 58.710938 C 71.152344 58.414062 71.089844 58.105469 71.089844 57.785156 C 71.089844 57.464844 71.152344 57.15625 71.273438 56.859375 C 71.398438 56.5625 71.570312 56.300781 71.796875 56.074219 C 72.027344 55.847656 72.289062 55.671875 72.582031 55.550781 C 72.878906 55.425781 73.1875 55.367188 73.507812 55.367188 C 73.832031 55.367188 74.140625 55.425781 74.4375 55.550781 C 74.730469 55.671875 74.992188 55.847656 75.21875 56.074219 C 75.449219 56.300781 75.621094 56.5625 75.746094 56.859375 C 75.867188 57.15625 75.929688 57.464844 75.929688 57.785156 Z M 75.929688 57.785156 " fill-opacity="1" fill-rule="nonzero"/><path fill="#8fef91" d="M 47.773438 70.917969 L 47.773438 68.558594 C 46.109375 68.484375 44.496094 68.039062 43.546875 67.492188 L 44.292969 64.589844 C 45.335938 65.160156 46.800781 65.683594 48.414062 65.683594 C 49.832031 65.683594 50.800781 65.136719 50.800781 64.144531 C 50.800781 63.203125 50.003906 62.605469 48.167969 61.984375 C 45.511719 61.089844 43.695312 59.847656 43.695312 57.441406 C 43.695312 55.253906 45.234375 53.542969 47.890625 53.019531 L 47.890625 50.664062 L 50.328125 50.664062 L 50.328125 52.851562 C 51.992188 52.925781 53.109375 53.273438 53.929688 53.667969 L 53.210938 56.476562 C 52.5625 56.207031 51.421875 55.632812 49.632812 55.632812 C 48.019531 55.632812 47.496094 56.324219 47.496094 57.023438 C 47.496094 57.839844 48.363281 58.367188 50.480469 59.160156 C 53.433594 60.203125 54.628906 61.566406 54.628906 63.804688 C 54.628906 66.015625 53.066406 67.90625 50.207031 68.402344 L 50.207031 70.933594 L 47.773438 70.933594 Z M 47.773438 70.917969 " fill-opacity="1" fill-rule="nonzero"/><g clip-path="url(#3f12c77764)"><path fill="#0ec149" d="M 22.460938 21.554688 C 21.90625 23.746094 19.675781 25.066406 17.488281 24.511719 C 17.015625 24.394531 16.578125 24.191406 16.195312 23.933594 C 14.808594 22.996094 14.09375 21.253906 14.527344 19.539062 L 15.53125 15.570312 L 19.5 16.578125 C 21.195312 17.007812 22.367188 18.433594 22.558594 20.070312 C 22.613281 20.554688 22.585938 21.058594 22.460938 21.554688 Z M 22.460938 21.554688 " fill-opacity="1" fill-rule="nonzero"/></g><path fill="#0ec149" d="M 105.371094 38.378906 L 93.921875 83.4375 L 89.953125 82.429688 C 92.113281 82.976562 94.304688 81.703125 94.902344 79.558594 L 94.949219 79.375 C 95.339844 77.6875 94.621094 75.992188 93.257812 75.070312 C 92.875 74.8125 92.445312 74.613281 91.972656 74.496094 C 89.777344 73.9375 87.550781 75.269531 86.996094 77.457031 C 86.867188 77.957031 86.839844 78.460938 86.898438 78.945312 C 87.09375 80.582031 88.265625 82 89.957031 82.429688 L 8.050781 61.640625 C 9.738281 62.070312 11.453125 61.382812 12.398438 60.035156 C 12.683594 59.632812 12.894531 59.183594 13.027344 58.679688 C 13.585938 56.492188 12.253906 54.261719 10.066406 53.707031 C 9.589844 53.589844 9.113281 53.554688 8.65625 53.601562 C 6.984375 53.765625 5.53125 54.949219 5.089844 56.667969 L 14.527344 19.539062 C 14.09375 21.253906 14.808594 22.996094 16.195312 23.933594 C 16.578125 24.199219 17.015625 24.394531 17.488281 24.511719 C 19.675781 25.070312 21.90625 23.746094 22.460938 21.554688 C 22.585938 21.058594 22.621094 20.554688 22.558594 20.070312 C 22.367188 18.433594 21.195312 17.007812 19.5 16.578125 L 101.40625 37.375 C 99.714844 36.945312 98 37.640625 97.054688 38.980469 C 96.769531 39.382812 96.558594 39.832031 96.425781 40.335938 C 95.867188 42.527344 97.195312 44.75 99.386719 45.308594 C 99.863281 45.425781 100.332031 45.460938 100.792969 45.414062 C 102.429688 45.257812 103.867188 44.113281 104.335938 42.449219 L 104.386719 42.246094 C 104.875 40.089844 103.558594 37.921875 101.402344 37.375 Z M 105.371094 38.378906 " fill-opacity="1" fill-rule="nonzero"/><path fill="#0ec149" d="M 94.910156 79.566406 L 93.921875 83.4375 L 89.957031 82.429688 C 92.117188 82.980469 94.3125 81.707031 94.910156 79.566406 Z M 94.910156 79.566406 " fill-opacity="1" fill-rule="nonzero"/><path fill="#0ec149" d="M 105.371094 38.378906 L 99.648438 60.910156 L 94.949219 79.378906 C 95.339844 77.695312 94.621094 75.996094 93.257812 75.078125 C 92.875 74.816406 92.445312 74.621094 91.972656 74.503906 C 89.777344 73.945312 87.550781 75.273438 86.996094 77.460938 C 86.867188 77.964844 86.839844 78.464844 86.898438 78.949219 C 87.09375 80.585938 88.265625 82.007812 89.957031 82.433594 L 8.050781 61.640625 C 9.738281 62.070312 11.453125 61.382812 12.398438 60.035156 C 12.683594 59.632812 12.894531 59.183594 13.027344 58.679688 C 13.585938 56.492188 12.253906 54.261719 10.066406 53.707031 C 9.589844 53.589844 9.113281 53.554688 8.65625 53.601562 C 6.984375 53.765625 5.53125 54.949219 5.089844 56.667969 L 4.082031 60.636719 L 4.074219 60.636719 L 9.800781 38.105469 L 14.527344 19.539062 C 14.09375 21.253906 14.808594 22.996094 16.195312 23.933594 C 16.578125 24.199219 17.015625 24.394531 17.488281 24.511719 C 19.675781 25.070312 21.90625 23.746094 22.460938 21.554688 C 22.585938 21.058594 22.621094 20.554688 22.558594 20.070312 C 22.367188 18.433594 21.195312 17.007812 19.5 16.578125 L 101.40625 37.375 C 99.714844 36.945312 98 37.640625 97.054688 38.980469 C 96.769531 39.382812 96.558594 39.832031 96.425781 40.335938 C 95.867188 42.527344 97.195312 44.75 99.386719 45.308594 C 99.863281 45.425781 100.332031 45.460938 100.792969 45.414062 C 102.429688 45.257812 103.867188 44.113281 104.335938 42.449219 L 104.386719 42.246094 C 104.875 40.089844 103.558594 37.921875 101.402344 37.375 Z M 105.371094 38.378906 " fill-opacity="1" fill-rule="nonzero"/><path fill="#0ec149" d="M 104.367188 42.347656 C 104.359375 42.382812 104.351562 42.414062 104.339844 42.449219 L 104.390625 42.246094 C 104.386719 42.273438 104.375 42.3125 104.367188 42.347656 Z M 104.367188 42.347656 " fill-opacity="1" fill-rule="nonzero"/><path fill="#0ec149" d="M 101.40625 37.375 L 105.371094 38.382812 L 104.390625 42.25 C 104.882812 40.085938 103.5625 37.921875 101.40625 37.375 Z M 101.40625 37.375 " fill-opacity="1" fill-rule="nonzero"/><g clip-path="url(#84454bda12)"><path fill="#0ec149" d="M 99.652344 60.910156 L 93.929688 83.4375 L 89.957031 82.429688 C 92.117188 82.976562 94.3125 81.703125 94.910156 79.558594 L 94.953125 79.375 C 95.34375 77.6875 94.628906 75.992188 93.261719 75.070312 C 92.878906 74.8125 92.449219 74.613281 91.976562 74.496094 C 89.78125 73.9375 87.554688 75.269531 87 77.457031 C 86.871094 77.957031 86.84375 78.460938 86.90625 78.945312 C 87.097656 80.582031 88.269531 82 89.964844 82.429688 L 8.050781 61.640625 C 9.738281 62.070312 11.453125 61.382812 12.398438 60.035156 C 12.683594 59.632812 12.894531 59.183594 13.027344 58.679688 C 13.585938 56.492188 12.253906 54.261719 10.066406 53.707031 C 9.589844 53.589844 9.113281 53.554688 8.65625 53.601562 C 6.984375 53.765625 5.53125 54.949219 5.089844 56.667969 L 9.804688 38.101562 L 15.53125 15.570312 L 15.535156 15.570312 L 14.527344 19.539062 C 14.09375 21.253906 14.808594 22.996094 16.195312 23.933594 C 16.578125 24.199219 17.015625 24.394531 17.488281 24.511719 C 19.675781 25.070312 21.90625 23.746094 22.460938 21.554688 C 22.585938 21.058594 22.621094 20.554688 22.558594 20.070312 C 22.367188 18.433594 21.195312 17.007812 19.5 16.578125 L 101.40625 37.375 C 99.714844 36.945312 98 37.640625 97.054688 38.980469 C 96.769531 39.382812 96.558594 39.832031 96.425781 40.335938 C 95.867188 42.527344 97.195312 44.75 99.386719 45.308594 C 99.863281 45.425781 100.332031 45.460938 100.792969 45.414062 C 102.429688 45.257812 103.867188 44.113281 104.335938 42.449219 Z M 99.652344 60.910156 " fill-opacity="1" fill-rule="nonzero"/></g><path fill="#0ec149" d="M 94.9375 79.464844 L 94.933594 79.480469 C 94.925781 79.507812 94.914062 79.539062 94.910156 79.558594 L 94.953125 79.375 C 94.949219 79.40625 94.945312 79.4375 94.9375 79.464844 Z M 94.9375 79.464844 " fill-opacity="1" fill-rule="nonzero"/><path fill="#0ec149" d="M 94.953125 79.378906 L 94.910156 79.566406 C 94.316406 81.703125 92.117188 82.980469 89.957031 82.433594 C 88.265625 82.007812 87.09375 80.582031 86.898438 78.949219 C 86.839844 78.464844 86.871094 77.964844 86.996094 77.460938 C 87.554688 75.273438 89.777344 73.945312 91.972656 74.503906 C 92.445312 74.621094 92.875 74.816406 93.257812 75.078125 C 94.621094 75.996094 95.34375 77.695312 94.953125 79.378906 Z M 94.953125 79.378906 " fill-opacity="1" fill-rule="nonzero"/><path fill="#0ec149" d="M 104.390625 42.246094 L 104.339844 42.449219 C 103.871094 44.113281 102.433594 45.257812 100.796875 45.414062 C 100.335938 45.460938 99.867188 45.425781 99.394531 45.308594 C 97.199219 44.75 95.875 42.527344 96.433594 40.335938 C 96.558594 39.839844 96.769531 39.382812 97.058594 38.980469 C 98.007812 37.640625 99.722656 36.945312 101.414062 37.375 C 103.5625 37.921875 104.882812 40.085938 104.390625 42.246094 Z M 104.390625 42.246094 " fill-opacity="1" fill-rule="nonzero"/><path fill="#0ec149" d="M 101.40625 37.375 L 105.371094 38.382812 L 104.390625 42.25 C 104.882812 40.085938 103.5625 37.921875 101.40625 37.375 Z M 101.40625 37.375 " fill-opacity="1" fill-rule="nonzero"/><path fill="#0ec149" d="M 13.027344 58.679688 C 12.894531 59.183594 12.6875 59.640625 12.398438 60.035156 C 11.453125 61.375 9.738281 62.070312 8.050781 61.640625 L 4.082031 60.632812 L 5.089844 56.664062 C 5.523438 54.949219 6.984375 53.765625 8.65625 53.59375 C 9.117188 53.542969 9.589844 53.578125 10.066406 53.703125 C 12.257812 54.265625 13.585938 56.492188 13.027344 58.679688 Z M 13.027344 58.679688 " fill-opacity="1" fill-rule="nonzero"/><g clip-path="url(#efd69c755a)"><path fill="#0ec149" d="M 99.652344 60.910156 L 93.929688 83.4375 L 89.957031 82.429688 C 92.117188 82.976562 94.3125 81.703125 94.910156 79.558594 L 94.953125 79.375 C 95.34375 77.6875 94.628906 75.992188 93.261719 75.070312 C 92.878906 74.8125 92.449219 74.613281 91.976562 74.496094 C 89.78125 73.9375 87.554688 75.269531 87 77.457031 C 86.871094 77.957031 86.84375 78.460938 86.90625 78.945312 C 87.097656 80.582031 88.269531 82 89.964844 82.429688 L 8.050781 61.640625 C 9.738281 62.070312 11.453125 61.382812 12.398438 60.035156 C 12.683594 59.632812 12.894531 59.183594 13.027344 58.679688 C 13.585938 56.492188 12.253906 54.261719 10.066406 53.707031 C 9.589844 53.589844 9.113281 53.554688 8.65625 53.601562 C 6.984375 53.765625 5.53125 54.949219 5.089844 56.667969 L 9.804688 38.101562 L 15.53125 15.570312 L 15.535156 15.570312 L 14.527344 19.539062 C 14.09375 21.253906 14.808594 22.996094 16.195312 23.933594 C 16.578125 24.199219 17.015625 24.394531 17.488281 24.511719 C 19.675781 25.070312 21.90625 23.746094 22.460938 21.554688 C 22.585938 21.058594 22.621094 20.554688 22.558594 20.070312 C 22.367188 18.433594 21.195312 17.007812 19.5 16.578125 L 101.40625 37.375 C 99.714844 36.945312 98 37.640625 97.054688 38.980469 C 96.769531 39.382812 96.558594 39.832031 96.425781 40.335938 C 95.867188 42.527344 97.195312 44.75 99.386719 45.308594 C 99.863281 45.425781 100.332031 45.460938 100.792969 45.414062 C 102.429688 45.257812 103.867188 44.113281 104.335938 42.449219 Z M 99.652344 60.910156 " fill-opacity="1" fill-rule="nonzero"/></g><path fill="#95f99c" d="M 100.796875 45.414062 L 93.261719 75.078125 C 92.878906 74.816406 92.449219 74.621094 91.976562 74.503906 C 89.78125 73.945312 87.554688 75.273438 87 77.460938 C 86.871094 77.964844 86.84375 78.464844 86.90625 78.949219 L 12.40625 60.035156 C 12.6875 59.632812 12.902344 59.183594 13.03125 58.679688 C 13.589844 56.492188 12.257812 54.261719 10.070312 53.707031 C 9.597656 53.589844 9.117188 53.554688 8.660156 53.601562 L 16.195312 23.933594 C 16.578125 24.199219 17.015625 24.394531 17.488281 24.511719 C 19.675781 25.070312 21.90625 23.746094 22.460938 21.554688 C 22.585938 21.058594 22.621094 20.554688 22.558594 20.070312 L 97.054688 38.980469 C 96.769531 39.382812 96.558594 39.832031 96.425781 40.335938 C 95.867188 42.527344 97.195312 44.75 99.386719 45.308594 C 99.863281 45.425781 100.335938 45.460938 100.796875 45.414062 Z M 100.796875 45.414062 " fill-opacity="1" fill-rule="nonzero"/><path fill="#0ec149" d="M 58.914062 33.027344 C 59.453125 33.164062 59.988281 33.328125 60.511719 33.515625 C 61.035156 33.707031 61.546875 33.921875 62.050781 34.160156 C 62.554688 34.398438 63.042969 34.664062 63.519531 34.953125 C 63.996094 35.238281 64.460938 35.550781 64.90625 35.882812 C 65.351562 36.214844 65.78125 36.570312 66.191406 36.945312 C 66.605469 37.320312 66.996094 37.714844 67.371094 38.128906 C 67.742188 38.542969 68.09375 38.976562 68.425781 39.421875 C 68.753906 39.871094 69.0625 40.335938 69.347656 40.8125 C 69.632812 41.292969 69.894531 41.785156 70.128906 42.289062 C 70.367188 42.792969 70.578125 43.308594 70.761719 43.832031 C 70.949219 44.355469 71.109375 44.890625 71.242188 45.429688 C 71.375 45.972656 71.484375 46.515625 71.5625 47.066406 C 71.644531 47.621094 71.695312 48.171875 71.722656 48.730469 C 71.746094 49.285156 71.746094 49.84375 71.714844 50.398438 C 71.6875 50.953125 71.632812 51.507812 71.546875 52.058594 C 71.464844 52.609375 71.355469 53.15625 71.214844 53.695312 C 71.078125 54.234375 70.917969 54.765625 70.726562 55.289062 C 70.539062 55.8125 70.324219 56.328125 70.082031 56.828125 C 69.84375 57.332031 69.578125 57.820312 69.292969 58.296875 C 69.003906 58.773438 68.691406 59.238281 68.359375 59.683594 C 68.027344 60.128906 67.671875 60.558594 67.296875 60.96875 C 66.921875 61.382812 66.527344 61.773438 66.113281 62.144531 C 65.699219 62.519531 65.265625 62.871094 64.816406 63.199219 C 64.371094 63.53125 63.90625 63.839844 63.425781 64.125 C 62.949219 64.40625 62.457031 64.667969 61.953125 64.90625 C 61.449219 65.140625 60.933594 65.351562 60.40625 65.539062 C 59.882812 65.726562 59.347656 65.882812 58.808594 66.019531 C 58.265625 66.152344 57.722656 66.257812 57.167969 66.339844 C 56.617188 66.417969 56.066406 66.472656 55.507812 66.496094 C 54.953125 66.523438 54.394531 66.519531 53.839844 66.492188 C 53.28125 66.460938 52.726562 66.40625 52.175781 66.320312 C 51.625 66.238281 51.082031 66.128906 50.542969 65.992188 C 50 65.855469 49.46875 65.691406 48.945312 65.5 C 48.421875 65.3125 47.90625 65.097656 47.40625 64.859375 C 46.902344 64.617188 46.410156 64.355469 45.933594 64.066406 C 45.457031 63.777344 44.996094 63.46875 44.550781 63.136719 C 44.105469 62.800781 43.675781 62.449219 43.261719 62.074219 C 42.851562 61.695312 42.460938 61.300781 42.085938 60.886719 C 41.714844 60.476562 41.363281 60.042969 41.03125 59.59375 C 40.699219 59.148438 40.394531 58.683594 40.109375 58.203125 C 39.824219 57.726562 39.5625 57.234375 39.324219 56.730469 C 39.089844 56.226562 38.878906 55.710938 38.691406 55.1875 C 38.507812 54.660156 38.347656 54.128906 38.210938 53.589844 C 38.078125 53.046875 37.972656 52.5 37.890625 51.949219 C 37.8125 51.398438 37.757812 50.84375 37.734375 50.289062 C 37.707031 49.734375 37.710938 49.175781 37.738281 48.621094 C 37.769531 48.0625 37.824219 47.511719 37.910156 46.960938 C 37.992188 46.410156 38.101562 45.863281 38.238281 45.324219 C 38.375 44.785156 38.539062 44.253906 38.730469 43.730469 C 38.917969 43.207031 39.132812 42.691406 39.371094 42.1875 C 39.613281 41.6875 39.875 41.195312 40.164062 40.71875 C 40.453125 40.242188 40.761719 39.78125 41.097656 39.335938 C 41.429688 38.890625 41.785156 38.460938 42.160156 38.050781 C 42.535156 37.636719 42.929688 37.246094 43.34375 36.871094 C 43.757812 36.5 44.1875 36.148438 44.636719 35.816406 C 45.085938 35.488281 45.550781 35.179688 46.027344 34.894531 C 46.507812 34.609375 47 34.351562 47.503906 34.113281 C 48.007812 33.878906 48.523438 33.664062 49.046875 33.480469 C 49.574219 33.292969 50.105469 33.132812 50.648438 33 C 51.1875 32.867188 51.734375 32.761719 52.285156 32.679688 C 52.835938 32.601562 53.390625 32.546875 53.949219 32.523438 C 54.503906 32.496094 55.0625 32.5 55.617188 32.527344 C 56.171875 32.554688 56.726562 32.613281 57.277344 32.695312 C 57.828125 32.78125 58.375 32.890625 58.914062 33.027344 Z M 58.914062 33.027344 " fill-opacity="1" fill-rule="nonzero"/><path fill="#0ec149" d="M 31.796875 38.097656 C 32.109375 38.175781 32.394531 38.3125 32.652344 38.503906 C 32.90625 38.695312 33.117188 38.929688 33.28125 39.207031 C 33.445312 39.480469 33.550781 39.777344 33.597656 40.09375 C 33.644531 40.414062 33.628906 40.726562 33.546875 41.039062 C 33.46875 41.347656 33.332031 41.632812 33.140625 41.890625 C 32.949219 42.148438 32.714844 42.355469 32.441406 42.519531 C 32.164062 42.683594 31.867188 42.789062 31.550781 42.835938 C 31.234375 42.882812 30.917969 42.867188 30.605469 42.785156 C 30.296875 42.707031 30.011719 42.574219 29.753906 42.378906 C 29.496094 42.1875 29.289062 41.957031 29.125 41.679688 C 28.960938 41.402344 28.855469 41.105469 28.808594 40.789062 C 28.761719 40.472656 28.777344 40.160156 28.855469 39.847656 C 28.9375 39.535156 29.070312 39.253906 29.265625 38.996094 C 29.457031 38.738281 29.691406 38.527344 29.964844 38.363281 C 30.242188 38.199219 30.539062 38.09375 30.855469 38.050781 C 31.171875 38.003906 31.488281 38.019531 31.796875 38.097656 Z M 31.796875 38.097656 " fill-opacity="1" fill-rule="nonzero"/><path fill="#0ec149" d="M 79.734375 50.269531 C 80.042969 50.347656 80.328125 50.480469 80.585938 50.675781 C 80.84375 50.867188 81.054688 51.097656 81.21875 51.375 C 81.382812 51.652344 81.488281 51.949219 81.53125 52.265625 C 81.578125 52.582031 81.5625 52.894531 81.484375 53.207031 C 81.40625 53.519531 81.269531 53.800781 81.078125 54.058594 C 80.886719 54.316406 80.652344 54.527344 80.375 54.691406 C 80.097656 54.855469 79.804688 54.960938 79.484375 55.007812 C 79.167969 55.050781 78.851562 55.035156 78.542969 54.957031 C 78.230469 54.878906 77.949219 54.742188 77.691406 54.550781 C 77.433594 54.359375 77.222656 54.125 77.058594 53.847656 C 76.894531 53.574219 76.789062 53.277344 76.742188 52.960938 C 76.695312 52.640625 76.714844 52.328125 76.792969 52.015625 C 76.871094 51.707031 77.007812 51.421875 77.199219 51.164062 C 77.390625 50.90625 77.625 50.699219 77.902344 50.535156 C 78.175781 50.371094 78.472656 50.265625 78.789062 50.21875 C 79.109375 50.171875 79.421875 50.1875 79.734375 50.269531 Z M 79.734375 50.269531 " fill-opacity="1" fill-rule="nonzero"/><path fill="#95f99c" d="M 50.957031 59.003906 L 51.539062 56.714844 C 49.945312 56.234375 48.488281 55.398438 47.710938 54.636719 L 49.148438 52.003906 C 50.015625 52.816406 51.308594 53.679688 52.875 54.082031 C 54.246094 54.429688 55.324219 54.136719 55.566406 53.171875 C 55.796875 52.257812 55.179688 51.488281 53.546875 50.433594 C 51.191406 48.910156 49.742188 47.261719 50.332031 44.929688 C 50.867188 42.808594 52.785156 41.53125 55.488281 41.675781 L 56.070312 39.386719 L 58.425781 39.984375 L 57.890625 42.105469 C 59.488281 42.582031 60.484375 43.199219 61.179688 43.785156 L 59.792969 46.328125 C 59.234375 45.90625 58.261719 45.070312 56.53125 44.628906 C 54.96875 44.234375 54.292969 44.777344 54.117188 45.453125 C 53.914062 46.25 54.628906 46.964844 56.480469 48.257812 C 59.085938 49.992188 59.910156 51.609375 59.359375 53.777344 C 58.816406 55.917969 56.832031 57.363281 53.941406 57.140625 L 53.316406 59.59375 Z M 50.957031 59.003906 " fill-opacity="1" fill-rule="nonzero"/><g clip-path="url(#e2936cbb31)"><path fill="#fcd842" d="M 109.542969 79.082031 C 109.542969 79.636719 109.515625 80.195312 109.460938 80.746094 C 109.40625 81.300781 109.324219 81.851562 109.214844 82.398438 C 109.105469 82.945312 108.96875 83.484375 108.808594 84.019531 C 108.648438 84.550781 108.460938 85.074219 108.246094 85.589844 C 108.03125 86.105469 107.792969 86.609375 107.53125 87.097656 C 107.269531 87.589844 106.984375 88.066406 106.671875 88.53125 C 106.363281 88.996094 106.03125 89.441406 105.679688 89.871094 C 105.324219 90.300781 104.949219 90.714844 104.558594 91.109375 C 104.164062 91.503906 103.75 91.875 103.320312 92.230469 C 102.890625 92.582031 102.441406 92.914062 101.976562 93.222656 C 101.515625 93.535156 101.039062 93.820312 100.546875 94.082031 C 100.054688 94.34375 99.550781 94.582031 99.035156 94.796875 C 98.519531 95.007812 97.996094 95.195312 97.464844 95.359375 C 96.929688 95.519531 96.390625 95.65625 95.84375 95.765625 C 95.296875 95.875 94.746094 95.953125 94.191406 96.007812 C 93.636719 96.0625 93.082031 96.089844 92.523438 96.089844 C 91.964844 96.089844 91.410156 96.0625 90.855469 96.007812 C 90.300781 95.953125 89.75 95.875 89.203125 95.765625 C 88.65625 95.65625 88.117188 95.519531 87.582031 95.359375 C 87.050781 95.195312 86.527344 95.007812 86.011719 94.796875 C 85.496094 94.582031 84.992188 94.34375 84.5 94.082031 C 84.011719 93.820312 83.53125 93.535156 83.070312 93.222656 C 82.605469 92.914062 82.160156 92.582031 81.726562 92.230469 C 81.296875 91.875 80.882812 91.503906 80.492188 91.109375 C 80.097656 90.714844 79.722656 90.300781 79.371094 89.871094 C 79.015625 89.441406 78.683594 88.996094 78.375 88.53125 C 78.066406 88.066406 77.777344 87.589844 77.515625 87.097656 C 77.253906 86.609375 77.015625 86.105469 76.800781 85.589844 C 76.589844 85.074219 76.402344 84.550781 76.238281 84.019531 C 76.078125 83.484375 75.941406 82.945312 75.832031 82.398438 C 75.722656 81.851562 75.644531 81.300781 75.589844 80.746094 C 75.535156 80.195312 75.507812 79.636719 75.507812 79.082031 C 75.507812 78.523438 75.535156 77.96875 75.589844 77.414062 C 75.644531 76.859375 75.722656 76.308594 75.832031 75.761719 C 75.941406 75.214844 76.078125 74.675781 76.238281 74.144531 C 76.402344 73.609375 76.589844 73.085938 76.800781 72.570312 C 77.015625 72.054688 77.253906 71.554688 77.515625 71.0625 C 77.777344 70.570312 78.066406 70.09375 78.375 69.628906 C 78.683594 69.167969 79.015625 68.71875 79.367188 68.289062 C 79.722656 67.859375 80.097656 67.445312 80.492188 67.050781 C 80.882812 66.65625 81.296875 66.285156 81.726562 65.929688 C 82.160156 65.578125 82.605469 65.246094 83.070312 64.9375 C 83.53125 64.628906 84.011719 64.339844 84.5 64.078125 C 84.992188 63.816406 85.496094 63.578125 86.011719 63.363281 C 86.527344 63.152344 87.050781 62.964844 87.582031 62.800781 C 88.117188 62.640625 88.65625 62.503906 89.203125 62.398438 C 89.75 62.289062 90.300781 62.207031 90.855469 62.152344 C 91.410156 62.097656 91.964844 62.070312 92.523438 62.070312 C 93.082031 62.070312 93.636719 62.097656 94.191406 62.152344 C 94.746094 62.207031 95.296875 62.289062 95.84375 62.398438 C 96.390625 62.503906 96.929688 62.640625 97.464844 62.800781 C 97.996094 62.964844 98.519531 63.152344 99.035156 63.363281 C 99.550781 63.578125 100.054688 63.816406 100.546875 64.078125 C 101.039062 64.339844 101.515625 64.628906 101.976562 64.9375 C 102.441406 65.246094 102.890625 65.578125 103.320312 65.929688 C 103.75 66.285156 104.164062 66.65625 104.558594 67.050781 C 104.949219 67.445312 105.324219 67.859375 105.679688 68.289062 C 106.03125 68.71875 106.363281 69.167969 106.671875 69.628906 C 106.984375 70.09375 107.269531 70.570312 107.53125 71.0625 C 107.792969 71.554688 108.03125 72.054688 108.246094 72.570312 C 108.460938 73.085938 108.648438 73.609375 108.808594 74.144531 C 108.96875 74.675781 109.105469 75.214844 109.214844 75.761719 C 109.324219 76.308594 109.40625 76.859375 109.460938 77.414062 C 109.515625 77.96875 109.542969 78.523438 109.542969 79.082031 Z M 109.542969 79.082031 " fill-opacity="1" fill-rule="nonzero"/></g><path fill="#ffaa00" d="M 106.648438 79.082031 C 106.648438 80.007812 106.558594 80.925781 106.375 81.835938 C 106.195312 82.742188 105.925781 83.625 105.574219 84.484375 C 105.21875 85.339844 104.78125 86.152344 104.265625 86.925781 C 103.753906 87.695312 103.167969 88.40625 102.511719 89.0625 C 101.855469 89.71875 101.140625 90.304688 100.371094 90.820312 C 99.597656 91.335938 98.785156 91.769531 97.929688 92.125 C 97.070312 92.480469 96.1875 92.746094 95.277344 92.925781 C 94.371094 93.109375 93.453125 93.199219 92.523438 93.199219 C 91.597656 93.199219 90.679688 93.109375 89.769531 92.925781 C 88.859375 92.746094 87.976562 92.480469 87.117188 92.125 C 86.261719 91.769531 85.449219 91.335938 84.675781 90.820312 C 83.90625 90.304688 83.191406 89.71875 82.535156 89.0625 C 81.882812 88.40625 81.296875 87.695312 80.78125 86.925781 C 80.265625 86.152344 79.828125 85.339844 79.476562 84.484375 C 79.121094 83.625 78.851562 82.742188 78.671875 81.835938 C 78.492188 80.925781 78.398438 80.007812 78.398438 79.082031 C 78.398438 78.152344 78.492188 77.234375 78.671875 76.328125 C 78.851562 75.417969 79.121094 74.535156 79.476562 73.675781 C 79.828125 72.820312 80.265625 72.007812 80.78125 71.238281 C 81.296875 70.464844 81.882812 69.753906 82.535156 69.097656 C 83.191406 68.441406 83.90625 67.855469 84.675781 67.339844 C 85.449219 66.828125 86.261719 66.390625 87.117188 66.035156 C 87.976562 65.683594 88.859375 65.414062 89.769531 65.234375 C 90.679688 65.050781 91.597656 64.960938 92.523438 64.960938 C 93.453125 64.960938 94.371094 65.050781 95.277344 65.234375 C 96.1875 65.414062 97.070312 65.683594 97.929688 66.035156 C 98.785156 66.390625 99.597656 66.828125 100.371094 67.339844 C 101.140625 67.855469 101.855469 68.441406 102.511719 69.097656 C 103.167969 69.753906 103.753906 70.464844 104.265625 71.238281 C 104.78125 72.007812 105.21875 72.820312 105.574219 73.675781 C 105.925781 74.535156 106.195312 75.417969 106.375 76.328125 C 106.558594 77.234375 106.648438 78.152344 106.648438 79.082031 Z M 106.648438 79.082031 " fill-opacity="1" fill-rule="nonzero"/><path fill="#fcd842" d="M 91.453125 87.296875 L 91.453125 85.382812 C 90.105469 85.320312 88.796875 84.960938 88.027344 84.515625 L 88.632812 82.160156 C 89.476562 82.621094 90.667969 83.042969 91.976562 83.042969 C 93.128906 83.042969 93.910156 82.597656 93.910156 81.796875 C 93.910156 81.03125 93.269531 80.550781 91.773438 80.042969 C 89.617188 79.316406 88.148438 78.3125 88.148438 76.355469 C 88.148438 74.585938 89.394531 73.195312 91.554688 72.769531 L 91.554688 70.859375 L 93.527344 70.859375 L 93.527344 72.628906 C 94.875 72.691406 95.785156 72.972656 96.449219 73.296875 L 95.863281 75.574219 C 95.339844 75.355469 94.414062 74.890625 92.964844 74.890625 C 91.65625 74.890625 91.230469 75.457031 91.230469 76.019531 C 91.230469 76.683594 91.9375 77.105469 93.652344 77.75 C 96.050781 78.59375 97.015625 79.699219 97.015625 81.515625 C 97.015625 83.308594 95.746094 84.835938 93.425781 85.242188 L 93.425781 87.296875 Z M 91.453125 87.296875 " fill-opacity="1" fill-rule="nonzero"/><g clip-path="url(#ad5cec49cd)"><path fill="#fcd842" d="M 86.398438 76.914062 C 86.398438 77.558594 86.367188 78.203125 86.304688 78.84375 C 86.238281 79.484375 86.144531 80.125 86.019531 80.753906 C 85.894531 81.386719 85.738281 82.011719 85.550781 82.628906 C 85.363281 83.246094 85.144531 83.851562 84.898438 84.449219 C 84.652344 85.042969 84.378906 85.625 84.074219 86.195312 C 83.769531 86.761719 83.4375 87.316406 83.078125 87.851562 C 82.722656 88.386719 82.335938 88.902344 81.929688 89.402344 C 81.519531 89.902344 81.085938 90.378906 80.628906 90.832031 C 80.175781 91.289062 79.699219 91.722656 79.199219 92.128906 C 78.699219 92.539062 78.183594 92.921875 77.648438 93.28125 C 77.109375 93.640625 76.558594 93.96875 75.988281 94.273438 C 75.421875 94.578125 74.839844 94.855469 74.242188 95.101562 C 73.648438 95.347656 73.039062 95.5625 72.421875 95.75 C 71.804688 95.9375 71.179688 96.09375 70.546875 96.21875 C 69.917969 96.347656 69.277344 96.441406 68.636719 96.503906 C 67.996094 96.566406 67.351562 96.597656 66.707031 96.597656 C 66.0625 96.597656 65.417969 96.566406 64.777344 96.503906 C 64.136719 96.441406 63.5 96.347656 62.867188 96.21875 C 62.234375 96.09375 61.609375 95.9375 60.992188 95.75 C 60.375 95.5625 59.765625 95.347656 59.171875 95.101562 C 58.574219 94.855469 57.992188 94.578125 57.425781 94.273438 C 56.855469 93.96875 56.304688 93.640625 55.765625 93.28125 C 55.230469 92.921875 54.714844 92.539062 54.214844 92.128906 C 53.714844 91.722656 53.238281 91.289062 52.785156 90.832031 C 52.328125 90.378906 51.894531 89.902344 51.484375 89.402344 C 51.078125 88.902344 50.691406 88.386719 50.335938 87.851562 C 49.976562 87.316406 49.644531 86.761719 49.339844 86.195312 C 49.035156 85.625 48.761719 85.042969 48.515625 84.449219 C 48.269531 83.851562 48.050781 83.246094 47.863281 82.628906 C 47.675781 82.011719 47.519531 81.386719 47.394531 80.753906 C 47.269531 80.125 47.175781 79.484375 47.109375 78.84375 C 47.046875 78.203125 47.015625 77.558594 47.015625 76.914062 C 47.015625 76.269531 47.046875 75.628906 47.109375 74.984375 C 47.175781 74.34375 47.269531 73.707031 47.394531 73.074219 C 47.519531 72.441406 47.675781 71.820312 47.863281 71.203125 C 48.050781 70.585938 48.269531 69.980469 48.515625 69.382812 C 48.761719 68.789062 49.035156 68.207031 49.339844 67.636719 C 49.644531 67.066406 49.976562 66.515625 50.335938 65.980469 C 50.691406 65.445312 51.078125 64.925781 51.484375 64.429688 C 51.894531 63.929688 52.328125 63.453125 52.785156 62.996094 C 53.238281 62.542969 53.714844 62.109375 54.214844 61.699219 C 54.714844 61.292969 55.230469 60.90625 55.765625 60.550781 C 56.304688 60.191406 56.855469 59.859375 57.425781 59.554688 C 57.992188 59.253906 58.574219 58.976562 59.171875 58.730469 C 59.765625 58.484375 60.375 58.265625 60.992188 58.078125 C 61.609375 57.890625 62.234375 57.734375 62.867188 57.609375 C 63.5 57.484375 64.136719 57.390625 64.777344 57.328125 C 65.417969 57.265625 66.0625 57.230469 66.707031 57.230469 C 67.351562 57.230469 67.996094 57.265625 68.636719 57.328125 C 69.277344 57.390625 69.917969 57.484375 70.546875 57.609375 C 71.179688 57.734375 71.804688 57.890625 72.421875 58.078125 C 73.039062 58.265625 73.648438 58.484375 74.242188 58.730469 C 74.839844 58.976562 75.421875 59.253906 75.988281 59.554688 C 76.558594 59.859375 77.109375 60.191406 77.648438 60.550781 C 78.183594 60.90625 78.699219 61.292969 79.199219 61.699219 C 79.699219 62.109375 80.175781 62.542969 80.628906 62.996094 C 81.085938 63.453125 81.519531 63.929688 81.929688 64.429688 C 82.335938 64.925781 82.722656 65.445312 83.078125 65.980469 C 83.4375 66.515625 83.769531 67.066406 84.074219 67.636719 C 84.378906 68.207031 84.652344 68.789062 84.898438 69.382812 C 85.144531 69.980469 85.363281 70.585938 85.550781 71.203125 C 85.738281 71.820312 85.894531 72.441406 86.019531 73.074219 C 86.144531 73.707031 86.238281 74.34375 86.304688 74.984375 C 86.367188 75.628906 86.398438 76.269531 86.398438 76.914062 Z M 86.398438 76.914062 " fill-opacity="1" fill-rule="nonzero"/></g><path fill="#ffaa00" d="M 83.054688 76.914062 C 83.054688 77.449219 83.027344 77.984375 82.976562 78.515625 C 82.921875 79.050781 82.84375 79.578125 82.738281 80.101562 C 82.636719 80.628906 82.503906 81.148438 82.347656 81.660156 C 82.195312 82.171875 82.015625 82.675781 81.808594 83.167969 C 81.605469 83.664062 81.375 84.144531 81.125 84.617188 C 80.871094 85.089844 80.597656 85.546875 80.296875 85.992188 C 80 86.4375 79.683594 86.867188 79.34375 87.28125 C 79.003906 87.695312 78.644531 88.089844 78.265625 88.46875 C 77.886719 88.847656 77.492188 89.207031 77.078125 89.546875 C 76.664062 89.886719 76.234375 90.203125 75.789062 90.5 C 75.34375 90.796875 74.886719 91.074219 74.414062 91.324219 C 73.941406 91.578125 73.457031 91.804688 72.960938 92.011719 C 72.46875 92.214844 71.964844 92.394531 71.453125 92.550781 C 70.941406 92.707031 70.421875 92.835938 69.894531 92.941406 C 69.371094 93.046875 68.84375 93.125 68.308594 93.175781 C 67.777344 93.230469 67.242188 93.253906 66.707031 93.253906 C 66.171875 93.253906 65.636719 93.230469 65.105469 93.175781 C 64.570312 93.125 64.042969 93.046875 63.519531 92.941406 C 62.992188 92.835938 62.472656 92.707031 61.960938 92.550781 C 61.449219 92.394531 60.945312 92.214844 60.453125 92.011719 C 59.957031 91.804688 59.472656 91.578125 59 91.324219 C 58.53125 91.074219 58.070312 90.796875 57.625 90.5 C 57.179688 90.203125 56.75 89.886719 56.335938 89.546875 C 55.921875 89.207031 55.527344 88.847656 55.148438 88.46875 C 54.769531 88.089844 54.410156 87.695312 54.070312 87.28125 C 53.730469 86.867188 53.414062 86.4375 53.117188 85.992188 C 52.816406 85.546875 52.542969 85.089844 52.289062 84.617188 C 52.039062 84.144531 51.808594 83.664062 51.605469 83.167969 C 51.398438 82.675781 51.21875 82.171875 51.066406 81.660156 C 50.910156 81.148438 50.78125 80.628906 50.675781 80.101562 C 50.570312 79.578125 50.492188 79.050781 50.441406 78.515625 C 50.386719 77.984375 50.359375 77.449219 50.359375 76.914062 C 50.359375 76.378906 50.386719 75.847656 50.441406 75.3125 C 50.492188 74.78125 50.570312 74.253906 50.675781 73.726562 C 50.78125 73.203125 50.910156 72.683594 51.066406 72.171875 C 51.21875 71.660156 51.398438 71.15625 51.605469 70.664062 C 51.808594 70.167969 52.039062 69.683594 52.289062 69.214844 C 52.542969 68.742188 52.816406 68.28125 53.117188 67.835938 C 53.414062 67.390625 53.730469 66.964844 54.070312 66.550781 C 54.410156 66.136719 54.769531 65.738281 55.148438 65.363281 C 55.527344 64.984375 55.921875 64.625 56.335938 64.285156 C 56.75 63.945312 57.179688 63.625 57.625 63.328125 C 58.070312 63.03125 58.53125 62.757812 59 62.503906 C 59.472656 62.253906 59.957031 62.023438 60.453125 61.820312 C 60.945312 61.613281 61.449219 61.433594 61.960938 61.277344 C 62.472656 61.125 62.992188 60.992188 63.519531 60.890625 C 64.042969 60.785156 64.570312 60.707031 65.105469 60.65625 C 65.636719 60.601562 66.171875 60.574219 66.707031 60.574219 C 67.242188 60.574219 67.777344 60.601562 68.308594 60.65625 C 68.84375 60.707031 69.371094 60.785156 69.894531 60.890625 C 70.421875 60.992188 70.941406 61.125 71.453125 61.277344 C 71.964844 61.433594 72.46875 61.613281 72.960938 61.820312 C 73.457031 62.023438 73.941406 62.253906 74.414062 62.503906 C 74.886719 62.757812 75.34375 63.03125 75.789062 63.328125 C 76.234375 63.625 76.664062 63.945312 77.078125 64.285156 C 77.492188 64.625 77.886719 64.984375 78.265625 65.363281 C 78.644531 65.738281 79.003906 66.136719 79.34375 66.550781 C 79.683594 66.964844 80 67.390625 80.296875 67.835938 C 80.597656 68.28125 80.871094 68.742188 81.125 69.214844 C 81.375 69.683594 81.605469 70.167969 81.808594 70.664062 C 82.015625 71.15625 82.195312 71.660156 82.347656 72.171875 C 82.503906 72.683594 82.636719 73.203125 82.738281 73.726562 C 82.84375 74.253906 82.921875 74.78125 82.976562 75.3125 C 83.027344 75.847656 83.054688 76.378906 83.054688 76.914062 Z M 83.054688 76.914062 " fill-opacity="1" fill-rule="nonzero"/><path fill="#fcd842" d="M 65.472656 86.425781 L 65.472656 84.210938 C 63.910156 84.144531 62.390625 83.722656 61.507812 83.207031 L 62.207031 80.480469 C 63.1875 81.015625 64.5625 81.503906 66.074219 81.503906 C 67.40625 81.503906 68.316406 80.992188 68.316406 80.0625 C 68.316406 79.175781 67.570312 78.617188 65.84375 78.03125 C 63.351562 77.191406 61.648438 76.023438 61.648438 73.769531 C 61.648438 71.71875 63.089844 70.109375 65.589844 69.621094 L 65.589844 67.402344 L 67.875 67.402344 L 67.875 69.457031 C 69.4375 69.523438 70.484375 69.851562 71.253906 70.222656 L 70.578125 72.855469 C 69.972656 72.601562 68.894531 72.0625 67.21875 72.0625 C 65.703125 72.0625 65.21875 72.714844 65.21875 73.363281 C 65.21875 74.128906 66.035156 74.621094 68.015625 75.363281 C 70.789062 76.347656 71.90625 77.625 71.90625 79.722656 C 71.90625 81.796875 70.441406 83.570312 67.757812 84.035156 L 67.757812 86.414062 L 65.472656 86.414062 Z M 65.472656 86.425781 " fill-opacity="1" fill-rule="nonzero"/></svg>