<svg xmlns="http://www.w3.org/2000/svg" xmlns:xlink="http://www.w3.org/1999/xlink" width="41" zoomAndPan="magnify" viewBox="0 0 30.75 58.499998" height="78" preserveAspectRatio="xMidYMid meet" version="1.0"><defs><clipPath id="fc5e3dd85d"><path d="M 0.0078125 0.613281 L 30.496094 0.613281 L 30.496094 57.871094 L 0.0078125 57.871094 Z M 0.0078125 0.613281 " clip-rule="nonzero"/></clipPath></defs><g clip-path="url(#fc5e3dd85d)"><path fill="#bf1e2e" d="M 18.089844 8.796875 C 19.988281 9.011719 21.730469 9.492188 23.3125 10.234375 C 25.535156 11.28125 27.28125 12.769531 28.546875 14.699219 C 29.816406 16.632812 30.449219 18.773438 30.449219 21.125 L 23.398438 21.125 C 23.398438 18.996094 22.730469 17.332031 21.394531 16.128906 C 20.0625 14.925781 18.152344 14.324219 15.671875 14.324219 C 13.355469 14.324219 11.558594 14.816406 10.285156 15.804688 C 9.003906 16.796875 8.363281 18.175781 8.363281 19.949219 C 8.363281 21.441406 9.054688 22.6875 10.4375 23.683594 C 11.816406 24.683594 14.09375 25.652344 17.265625 26.597656 C 20.441406 27.539062 22.988281 28.613281 24.910156 29.816406 C 26.832031 31.019531 28.238281 32.398438 29.136719 33.957031 C 30.03125 35.515625 30.476562 37.339844 30.476562 39.429688 C 30.476562 42.824219 29.175781 45.527344 26.574219 47.535156 C 24.394531 49.210938 21.566406 50.1875 18.089844 50.464844 L 18.089844 58 L 12.410156 58 L 12.410156 50.257812 C 10.808594 49.992188 9.289062 49.539062 7.847656 48.90625 C 5.375 47.8125 3.453125 46.304688 2.082031 44.382812 C 0.710938 42.460938 0.0234375 40.222656 0.0234375 37.667969 L 7.105469 37.667969 C 7.105469 39.980469 7.871094 41.769531 9.402344 43.042969 C 10.933594 44.308594 13.125 44.945312 15.976562 44.945312 C 18.441406 44.945312 20.292969 44.445312 21.535156 43.449219 C 22.773438 42.449219 23.398438 41.128906 23.398438 39.488281 C 23.398438 37.695312 22.765625 36.3125 21.507812 35.34375 C 20.246094 34.371094 17.972656 33.390625 14.691406 32.402344 C 11.40625 31.417969 8.796875 30.3125 6.855469 29.101562 C 3.140625 26.769531 1.285156 23.726562 1.285156 19.976562 C 1.285156 16.691406 2.621094 13.988281 5.300781 11.859375 C 7.25 10.3125 9.621094 9.328125 12.410156 8.90625 L 12.410156 0.613281 L 18.089844 0.613281 Z M 18.089844 8.796875 " fill-opacity="1" fill-rule="nonzero"/></g></svg>