<svg xmlns="http://www.w3.org/2000/svg" xmlns:xlink="http://www.w3.org/1999/xlink" width="300" zoomAndPan="magnify" viewBox="0 0 224.87999 149.999998" height="200" preserveAspectRatio="xMidYMid meet" version="1.0"><defs><clipPath id="ffc30c2e8c"><path d="M 4 29.28125 L 221 29.28125 L 221 127 L 4 127 Z M 4 29.28125 " clip-rule="nonzero"/></clipPath><clipPath id="df855a7125"><path d="M 60.121094 22.480469 L 165 22.480469 L 165 127.425781 L 60.121094 127.425781 Z M 60.121094 22.480469 " clip-rule="nonzero"/></clipPath></defs><g clip-path="url(#ffc30c2e8c)"><path fill="#ffaaaa" d="M 5.242188 58.910156 C 5.640625 56.074219 6.21875 53.25 7.195312 50.558594 C 8.722656 46.347656 11.253906 42.472656 14.648438 39.554688 C 18.042969 36.632812 22.316406 34.695312 26.777344 34.289062 C 31.421875 33.867188 36.035156 35.078125 40.574219 36.144531 C 45.109375 37.210938 49.839844 38.144531 54.398438 37.179688 C 57.96875 36.425781 61.1875 34.558594 64.402344 32.839844 C 67.621094 31.125 71.023438 29.5 74.664062 29.300781 C 77.613281 29.144531 80.554688 29.941406 83.238281 31.175781 C 85.917969 32.410156 88.382812 34.070312 90.824219 35.730469 C 93.265625 37.394531 95.710938 39.074219 98.375 40.347656 C 101.039062 41.625 103.953125 42.488281 106.90625 42.421875 C 111.179688 42.324219 115.160156 40.304688 118.84375 38.132812 C 122.53125 35.964844 126.179688 33.554688 130.328125 32.53125 C 136.027344 31.125 142.03125 32.484375 147.609375 34.3125 C 153.1875 36.144531 158.6875 38.464844 164.527344 39.03125 C 170.699219 39.632812 176.867188 38.238281 182.949219 37.03125 C 189.03125 35.824219 195.332031 34.792969 201.390625 36.105469 C 206.101562 37.125 210.488281 39.570312 213.851562 43.027344 C 217.214844 46.480469 219.539062 50.925781 220.484375 55.652344 C 222.042969 63.460938 219.832031 71.625 216.117188 78.671875 C 212.402344 85.722656 207.253906 91.886719 202.4375 98.230469 C 198.589844 103.300781 194.902344 108.550781 190.253906 112.894531 C 185.601562 117.242188 179.808594 120.675781 173.46875 121.238281 C 167.578125 121.765625 161.773438 119.800781 156.230469 117.742188 C 150.683594 115.683594 145.027344 113.46875 139.113281 113.46875 C 131.789062 113.464844 124.957031 116.835938 118.277344 119.839844 C 114.9375 121.339844 111.550781 122.773438 108 123.679688 C 104.453125 124.585938 100.722656 124.953125 97.121094 124.300781 C 93.636719 123.671875 90.402344 122.125 87.199219 120.621094 C 84 119.113281 80.730469 117.617188 77.230469 117.097656 C 73.753906 116.582031 70.1875 117.0625 66.808594 118.027344 C 63.425781 118.996094 60.207031 120.433594 57 121.878906 C 53.792969 123.320312 50.578125 124.773438 47.207031 125.765625 C 43.835938 126.757812 40.277344 127.28125 36.792969 126.824219 C 31.945312 126.183594 27.476562 123.660156 23.90625 120.316406 C 20.335938 116.976562 17.59375 112.847656 15.222656 108.570312 C 6.894531 93.539062 2.84375 75.921875 5.242188 58.910156 Z M 5.242188 58.910156 " fill-opacity="1" fill-rule="nonzero"/></g><g clip-path="url(#df855a7125)"><path fill="#bf1e2e" d="M 135.078125 79.207031 C 135.089844 79.171875 143.742188 58.972656 143.289062 58.746094 C 142.855469 58.507812 137.269531 69.929688 133.195312 77.664062 L 131.910156 76.992188 C 135.464844 68.988281 140.972656 57.53125 140.53125 57.292969 C 140.085938 57.066406 134.148438 68.296875 129.824219 75.890625 L 128.539062 75.222656 C 132.332031 67.34375 138.203125 56.078125 137.757812 55.839844 C 137.316406 55.613281 131.003906 66.648438 126.429688 74.121094 L 125.144531 73.441406 C 129.199219 65.695312 135.421875 54.613281 134.976562 54.386719 C 134.535156 54.148438 125.328125 68.863281 122.816406 72.769531 C 120.636719 76.175781 120.785156 80.910156 123.578125 83.453125 C 119.75 90.140625 115.9375 96.816406 112.109375 103.503906 C 108.191406 96.828125 104.277344 90.152344 100.347656 83.476562 C 104.910156 79.933594 105.671875 72.929688 101.9375 67.445312 C 98.007812 61.585938 89.800781 55.078125 84.90625 57.53125 C 80.171875 60.28125 81.101562 70.714844 83.839844 77.210938 C 86.371094 83.339844 92.660156 86.554688 98.109375 84.679688 C 101.949219 92.421875 105.773438 100.167969 109.601562 107.910156 C 107.921875 110.839844 106.25 113.769531 104.570312 116.699219 C 84.769531 112.996094 69.78125 95.660156 69.78125 74.800781 C 69.78125 51.242188 88.878906 32.144531 112.441406 32.144531 C 136 32.144531 155.097656 51.242188 155.097656 74.800781 C 155.097656 95.808594 139.894531 113.222656 119.898438 116.765625 C 118.160156 113.804688 116.425781 110.839844 114.6875 107.886719 C 118.410156 100.144531 122.125 92.402344 125.847656 84.644531 C 129.480469 85.566406 133.308594 83.292969 135.066406 79.195312 C 136.917969 74.902344 135.078125 79.207031 135.078125 79.207031 Z M 116.367188 121.59375 C 115.0625 121.695312 113.769531 121.785156 112.441406 121.785156 C 110.984375 121.785156 109.542969 121.707031 108.125 121.570312 C 107.308594 123.261719 106.5 124.941406 105.695312 126.632812 C 107.910156 126.929688 110.144531 127.121094 112.441406 127.121094 C 114.621094 127.121094 116.765625 126.941406 118.886719 126.679688 C 118.046875 124.988281 117.207031 123.285156 116.367188 121.59375 Z M 112.441406 22.480469 C 83.589844 22.480469 60.121094 45.953125 60.121094 74.800781 C 60.121094 99.203125 76.933594 119.695312 99.574219 125.453125 C 100.484375 123.851562 101.390625 122.261719 102.3125 120.660156 C 81.261719 116.015625 65.445312 97.226562 65.445312 74.800781 C 65.445312 48.890625 86.53125 27.820312 112.441406 27.820312 C 138.347656 27.820312 159.421875 48.890625 159.421875 74.800781 C 159.421875 97.351562 143.457031 116.222656 122.238281 120.742188 C 123.167969 122.339844 124.113281 123.929688 125.042969 125.519531 C 147.808594 119.855469 164.757812 99.304688 164.757812 74.800781 C 164.757812 45.953125 141.289062 22.480469 112.441406 22.480469 Z M 114.277344 117.367188 C 113.574219 115.949219 112.882812 114.542969 112.179688 113.121094 C 111.507812 114.53125 110.828125 115.9375 110.15625 117.347656 C 110.917969 117.378906 111.667969 117.460938 112.441406 117.460938 C 113.0625 117.460938 113.664062 117.390625 114.277344 117.367188 Z M 114.277344 117.367188 " fill-opacity="1" fill-rule="nonzero"/></g></svg>