<svg xmlns="http://www.w3.org/2000/svg" xmlns:xlink="http://www.w3.org/1999/xlink" width="300" zoomAndPan="magnify" viewBox="0 0 224.87999 225" height="300" preserveAspectRatio="xMidYMid meet" version="1.0"><defs><clipPath id="5ec7669d4a"><path d="M 6.96875 7.027344 L 217.605469 7.027344 L 217.605469 217.664062 L 6.96875 217.664062 Z M 6.96875 7.027344 " clip-rule="nonzero"/></clipPath></defs><path fill="#bf1e2e" d="M 206.570312 112.492188 C 206.570312 114.03125 206.53125 115.570312 206.457031 117.109375 C 206.378906 118.648438 206.265625 120.183594 206.117188 121.71875 C 205.964844 123.25 205.777344 124.78125 205.550781 126.304688 C 205.324219 127.828125 205.0625 129.34375 204.761719 130.855469 C 204.460938 132.367188 204.121094 133.867188 203.75 135.363281 C 203.375 136.855469 202.964844 138.339844 202.515625 139.816406 C 202.070312 141.289062 201.585938 142.75 201.066406 144.203125 C 200.546875 145.652344 199.992188 147.089844 199.402344 148.511719 C 198.816406 149.9375 198.191406 151.34375 197.53125 152.734375 C 196.875 154.128906 196.179688 155.503906 195.453125 156.863281 C 194.726562 158.222656 193.96875 159.5625 193.175781 160.882812 C 192.386719 162.203125 191.5625 163.503906 190.707031 164.785156 C 189.851562 166.066406 188.964844 167.324219 188.046875 168.5625 C 187.128906 169.800781 186.179688 171.015625 185.203125 172.207031 C 184.226562 173.394531 183.21875 174.5625 182.1875 175.703125 C 181.152344 176.84375 180.089844 177.960938 179 179.050781 C 177.910156 180.140625 176.796875 181.199219 175.652344 182.234375 C 174.511719 183.269531 173.347656 184.277344 172.15625 185.253906 C 170.964844 186.230469 169.75 187.175781 168.511719 188.09375 C 167.277344 189.011719 166.015625 189.898438 164.734375 190.753906 C 163.457031 191.609375 162.15625 192.433594 160.832031 193.226562 C 159.511719 194.019531 158.171875 194.777344 156.8125 195.503906 C 155.453125 196.230469 154.078125 196.921875 152.6875 197.582031 C 151.292969 198.238281 149.886719 198.863281 148.464844 199.453125 C 147.039062 200.042969 145.601562 200.597656 144.152344 201.117188 C 142.703125 201.636719 141.238281 202.117188 139.765625 202.566406 C 138.292969 203.011719 136.808594 203.421875 135.3125 203.796875 C 133.820312 204.171875 132.316406 204.507812 130.804688 204.808594 C 129.292969 205.109375 127.777344 205.375 126.253906 205.601562 C 124.730469 205.824219 123.203125 206.015625 121.667969 206.164062 C 120.136719 206.316406 118.597656 206.429688 117.0625 206.503906 C 115.523438 206.582031 113.984375 206.617188 112.441406 206.617188 C 110.902344 206.617188 109.363281 206.582031 107.824219 206.503906 C 106.285156 206.429688 104.75 206.316406 103.214844 206.164062 C 101.683594 206.015625 100.15625 205.824219 98.632812 205.601562 C 97.105469 205.375 95.589844 205.109375 94.078125 204.808594 C 92.570312 204.507812 91.066406 204.171875 89.570312 203.796875 C 88.078125 203.421875 86.59375 203.011719 85.117188 202.566406 C 83.644531 202.117188 82.183594 201.636719 80.730469 201.117188 C 79.28125 200.597656 77.84375 200.042969 76.421875 199.453125 C 75 198.863281 73.589844 198.238281 72.199219 197.582031 C 70.804688 196.921875 69.429688 196.230469 68.070312 195.503906 C 66.710938 194.777344 65.371094 194.019531 64.050781 193.226562 C 62.730469 192.433594 61.429688 191.609375 60.148438 190.753906 C 58.867188 189.898438 57.609375 189.011719 56.371094 188.09375 C 55.132812 187.175781 53.921875 186.230469 52.730469 185.253906 C 51.539062 184.277344 50.371094 183.269531 49.230469 182.234375 C 48.089844 181.199219 46.972656 180.140625 45.886719 179.050781 C 44.796875 177.960938 43.734375 176.84375 42.699219 175.703125 C 41.664062 174.5625 40.660156 173.394531 39.679688 172.207031 C 38.703125 171.015625 37.757812 169.800781 36.839844 168.5625 C 35.921875 167.324219 35.035156 166.066406 34.179688 164.785156 C 33.324219 163.503906 32.5 162.203125 31.707031 160.882812 C 30.914062 159.5625 30.15625 158.222656 29.429688 156.863281 C 28.703125 155.503906 28.011719 154.128906 27.351562 152.734375 C 26.695312 151.34375 26.070312 149.9375 25.480469 148.511719 C 24.890625 147.089844 24.335938 145.652344 23.816406 144.203125 C 23.300781 142.75 22.816406 141.289062 22.367188 139.816406 C 21.921875 138.339844 21.511719 136.855469 21.136719 135.363281 C 20.761719 133.867188 20.425781 132.367188 20.125 130.855469 C 19.824219 129.34375 19.5625 127.828125 19.335938 126.304688 C 19.109375 124.78125 18.921875 123.25 18.769531 121.71875 C 18.617188 120.183594 18.503906 118.648438 18.429688 117.109375 C 18.355469 115.570312 18.316406 114.03125 18.316406 112.492188 C 18.316406 110.953125 18.355469 109.410156 18.429688 107.875 C 18.503906 106.335938 18.617188 104.800781 18.769531 103.265625 C 18.921875 101.734375 19.109375 100.203125 19.335938 98.679688 C 19.5625 97.15625 19.824219 95.640625 20.125 94.128906 C 20.425781 92.617188 20.761719 91.117188 21.136719 89.621094 C 21.511719 88.125 21.921875 86.640625 22.367188 85.167969 C 22.816406 83.695312 23.300781 82.230469 23.816406 80.78125 C 24.335938 79.332031 24.890625 77.894531 25.480469 76.472656 C 26.070312 75.046875 26.695312 73.640625 27.351562 72.246094 C 28.011719 70.855469 28.703125 69.480469 29.429688 68.121094 C 30.15625 66.761719 30.914062 65.421875 31.707031 64.101562 C 32.5 62.78125 33.324219 61.480469 34.179688 60.199219 C 35.035156 58.917969 35.921875 57.65625 36.839844 56.421875 C 37.757812 55.183594 38.703125 53.96875 39.679688 52.777344 C 40.660156 51.585938 41.664062 50.421875 42.699219 49.28125 C 43.734375 48.140625 44.796875 47.023438 45.886719 45.933594 C 46.972656 44.84375 48.089844 43.78125 49.230469 42.75 C 50.371094 41.714844 51.539062 40.707031 52.730469 39.730469 C 53.921875 38.753906 55.132812 37.804688 56.371094 36.890625 C 57.609375 35.972656 58.867188 35.085938 60.148438 34.226562 C 61.429688 33.371094 62.730469 32.546875 64.050781 31.757812 C 65.371094 30.964844 66.710938 30.207031 68.070312 29.480469 C 69.429688 28.753906 70.804688 28.0625 72.199219 27.402344 C 73.589844 26.742188 75 26.121094 76.421875 25.53125 C 77.84375 24.941406 79.28125 24.386719 80.730469 23.867188 C 82.183594 23.347656 83.644531 22.867188 85.117188 22.417969 C 86.59375 21.972656 88.078125 21.558594 89.570312 21.1875 C 91.066406 20.8125 92.570312 20.472656 94.078125 20.175781 C 95.589844 19.875 97.105469 19.609375 98.632812 19.382812 C 100.15625 19.15625 101.683594 18.96875 103.214844 18.820312 C 104.75 18.667969 106.285156 18.554688 107.824219 18.480469 C 109.363281 18.402344 110.902344 18.367188 112.441406 18.367188 C 113.984375 18.367188 115.523438 18.402344 117.0625 18.480469 C 118.597656 18.554688 120.136719 18.667969 121.667969 18.820312 C 123.203125 18.96875 124.730469 19.15625 126.253906 19.382812 C 127.777344 19.609375 129.292969 19.875 130.804688 20.175781 C 132.316406 20.472656 133.820312 20.8125 135.3125 21.1875 C 136.808594 21.558594 138.292969 21.972656 139.765625 22.417969 C 141.238281 22.867188 142.703125 23.347656 144.152344 23.867188 C 145.601562 24.386719 147.039062 24.941406 148.464844 25.53125 C 149.886719 26.121094 151.292969 26.742188 152.6875 27.402344 C 154.078125 28.0625 155.453125 28.753906 156.8125 29.480469 C 158.171875 30.207031 159.511719 30.964844 160.832031 31.757812 C 162.15625 32.546875 163.457031 33.371094 164.734375 34.226562 C 166.015625 35.085938 167.277344 35.972656 168.511719 36.890625 C 169.75 37.804688 170.964844 38.753906 172.15625 39.730469 C 173.347656 40.707031 174.511719 41.714844 175.652344 42.75 C 176.796875 43.78125 177.910156 44.84375 179 45.933594 C 180.089844 47.023438 181.152344 48.140625 182.1875 49.28125 C 183.21875 50.421875 184.226562 51.585938 185.203125 52.777344 C 186.179688 53.96875 187.128906 55.183594 188.046875 56.421875 C 188.964844 57.65625 189.851562 58.917969 190.707031 60.199219 C 191.5625 61.480469 192.386719 62.78125 193.175781 64.101562 C 193.96875 65.421875 194.726562 66.761719 195.453125 68.121094 C 196.179688 69.480469 196.875 70.855469 197.53125 72.246094 C 198.191406 73.640625 198.816406 75.046875 199.402344 76.472656 C 199.992188 77.894531 200.546875 79.332031 201.066406 80.78125 C 201.585938 82.230469 202.070312 83.695312 202.515625 85.167969 C 202.964844 86.640625 203.375 88.125 203.75 89.621094 C 204.121094 91.117188 204.460938 92.617188 204.761719 94.128906 C 205.0625 95.640625 205.324219 97.15625 205.550781 98.679688 C 205.777344 100.203125 205.964844 101.734375 206.117188 103.265625 C 206.265625 104.800781 206.378906 106.335938 206.457031 107.875 C 206.53125 109.410156 206.570312 110.953125 206.570312 112.492188 Z M 206.570312 112.492188 " fill-opacity="1" fill-rule="nonzero"/><g clip-path="url(#5ec7669d4a)"><path fill="#bf1e2e" d="M 112.433594 217.964844 C 54.273438 217.964844 6.96875 170.65625 6.96875 112.492188 C 6.96875 54.335938 54.273438 7.027344 112.433594 7.027344 C 170.59375 7.027344 217.910156 54.335938 217.910156 112.492188 C 217.910156 170.65625 170.597656 217.964844 112.433594 217.964844 Z M 112.433594 14.257812 C 58.269531 14.257812 14.195312 58.328125 14.195312 112.492188 C 14.195312 166.671875 58.273438 210.734375 112.433594 210.734375 C 166.613281 210.734375 210.679688 166.671875 210.679688 112.492188 C 210.6875 58.328125 166.609375 14.257812 112.433594 14.257812 Z M 112.433594 14.257812 " fill-opacity="1" fill-rule="nonzero"/></g><path fill="#ffffff" d="M 75.691406 64.9375 C 78.128906 64.945312 80.734375 64.714844 83.535156 64.246094 C 86.339844 63.773438 88.871094 62.972656 91.171875 61.820312 C 93.453125 60.667969 95.371094 59.09375 96.90625 57.097656 C 98.4375 55.09375 99.199219 52.515625 99.214844 49.351562 L 138.433594 49.488281 L 138.167969 133.671875 C 138.152344 137.453125 139.054688 139.925781 140.890625 141.082031 C 142.726562 142.253906 145.082031 142.832031 147.964844 142.847656 L 153.730469 142.863281 L 153.609375 174.289062 L 77.125 174.050781 L 77.230469 142.628906 L 84.007812 142.644531 C 87.003906 142.660156 89.21875 141.722656 90.664062 139.835938 C 92.113281 137.9375 92.839844 135.894531 92.847656 133.683594 L 92.980469 92.949219 L 75.617188 92.890625 Z M 75.691406 64.9375 " fill-opacity="1" fill-rule="nonzero"/></svg>