<svg xmlns="http://www.w3.org/2000/svg" xmlns:xlink="http://www.w3.org/1999/xlink" width="300" zoomAndPan="magnify" viewBox="0 0 224.87999 225" height="300" preserveAspectRatio="xMidYMid meet" version="1.0"><defs><clipPath id="ba20f6a9f0"><path d="M 9.511719 9.570312 L 215.648438 9.570312 L 215.648438 215.710938 L 9.511719 215.710938 Z M 9.511719 9.570312 " clip-rule="nonzero"/></clipPath></defs><path fill="#bf1e2e" d="M 204.300781 112.492188 C 204.300781 113.996094 204.265625 115.5 204.191406 117 C 204.117188 118.503906 204.007812 120 203.859375 121.496094 C 203.710938 122.992188 203.527344 124.484375 203.308594 125.972656 C 203.085938 127.457031 202.832031 128.941406 202.535156 130.414062 C 202.242188 131.886719 201.914062 133.355469 201.550781 134.8125 C 201.183594 136.273438 200.78125 137.71875 200.347656 139.160156 C 199.910156 140.597656 199.4375 142.023438 198.933594 143.441406 C 198.425781 144.855469 197.886719 146.257812 197.308594 147.644531 C 196.734375 149.035156 196.125 150.410156 195.484375 151.769531 C 194.839844 153.128906 194.164062 154.46875 193.457031 155.796875 C 192.746094 157.121094 192.007812 158.429688 191.234375 159.71875 C 190.460938 161.007812 189.65625 162.277344 188.820312 163.527344 C 187.984375 164.777344 187.121094 166.007812 186.226562 167.214844 C 185.328125 168.421875 184.40625 169.605469 183.453125 170.769531 C 182.496094 171.929688 181.515625 173.066406 180.507812 174.183594 C 179.496094 175.296875 178.460938 176.382812 177.398438 177.445312 C 176.335938 178.511719 175.246094 179.546875 174.132812 180.554688 C 173.019531 181.566406 171.878906 182.546875 170.71875 183.5 C 169.554688 184.453125 168.371094 185.378906 167.164062 186.273438 C 165.957031 187.171875 164.726562 188.035156 163.476562 188.871094 C 162.226562 189.707031 160.957031 190.511719 159.667969 191.28125 C 158.378906 192.054688 157.070312 192.796875 155.746094 193.503906 C 154.417969 194.214844 153.078125 194.890625 151.71875 195.53125 C 150.359375 196.175781 148.984375 196.785156 147.597656 197.359375 C 146.207031 197.933594 144.804688 198.476562 143.390625 198.980469 C 141.972656 199.488281 140.546875 199.960938 139.109375 200.394531 C 137.671875 200.832031 136.222656 201.234375 134.761719 201.597656 C 133.304688 201.964844 131.839844 202.292969 130.363281 202.585938 C 128.890625 202.878906 127.410156 203.136719 125.921875 203.359375 C 124.433594 203.578125 122.945312 203.761719 121.449219 203.910156 C 119.953125 204.058594 118.453125 204.167969 116.949219 204.242188 C 115.449219 204.316406 113.945312 204.351562 112.445312 204.351562 C 110.941406 204.351562 109.4375 204.316406 107.9375 204.242188 C 106.433594 204.167969 104.9375 204.058594 103.441406 203.910156 C 101.945312 203.761719 100.453125 203.578125 98.964844 203.359375 C 97.476562 203.136719 95.996094 202.878906 94.523438 202.585938 C 93.046875 202.292969 91.582031 201.964844 90.125 201.597656 C 88.664062 201.234375 87.21875 200.832031 85.777344 200.394531 C 84.339844 199.960938 82.914062 199.488281 81.496094 198.980469 C 80.082031 198.476562 78.679688 197.933594 77.292969 197.359375 C 75.902344 196.785156 74.527344 196.175781 73.167969 195.53125 C 71.808594 194.890625 70.46875 194.214844 69.140625 193.503906 C 67.816406 192.796875 66.507812 192.054688 65.21875 191.28125 C 63.929688 190.511719 62.660156 189.707031 61.410156 188.871094 C 60.160156 188.035156 58.929688 187.171875 57.722656 186.273438 C 56.515625 185.378906 55.332031 184.453125 54.167969 183.5 C 53.007812 182.546875 51.871094 181.566406 50.753906 180.554688 C 49.640625 179.546875 48.554688 178.511719 47.488281 177.445312 C 46.425781 176.382812 45.390625 175.296875 44.382812 174.183594 C 43.371094 173.066406 42.390625 171.929688 41.4375 170.769531 C 40.484375 169.605469 39.558594 168.421875 38.664062 167.214844 C 37.765625 166.007812 36.902344 164.777344 36.066406 163.527344 C 35.230469 162.277344 34.425781 161.007812 33.652344 159.71875 C 32.882812 158.429688 32.140625 157.121094 31.433594 155.796875 C 30.722656 154.46875 30.046875 153.128906 29.40625 151.769531 C 28.761719 150.410156 28.152344 149.035156 27.578125 147.644531 C 27.003906 146.257812 26.460938 144.855469 25.957031 143.441406 C 25.449219 142.023438 24.976562 140.597656 24.539062 139.160156 C 24.105469 137.71875 23.703125 136.273438 23.339844 134.8125 C 22.972656 133.355469 22.644531 131.886719 22.351562 130.414062 C 22.058594 128.941406 21.800781 127.457031 21.578125 125.972656 C 21.359375 124.484375 21.175781 122.992188 21.027344 121.496094 C 20.878906 120 20.769531 118.503906 20.695312 117 C 20.621094 115.5 20.585938 113.996094 20.585938 112.492188 C 20.585938 110.988281 20.621094 109.488281 20.695312 107.984375 C 20.769531 106.484375 20.878906 104.984375 21.027344 103.488281 C 21.175781 101.992188 21.359375 100.503906 21.578125 99.015625 C 21.800781 97.527344 22.058594 96.046875 22.351562 94.574219 C 22.644531 93.097656 22.972656 91.632812 23.339844 90.171875 C 23.703125 88.714844 24.105469 87.265625 24.539062 85.828125 C 24.976562 84.390625 25.449219 82.960938 25.957031 81.546875 C 26.460938 80.132812 27.003906 78.730469 27.578125 77.339844 C 28.152344 75.953125 28.761719 74.578125 29.40625 73.21875 C 30.046875 71.859375 30.722656 70.519531 31.433594 69.191406 C 32.140625 67.867188 32.882812 66.558594 33.652344 65.269531 C 34.425781 63.980469 35.230469 62.710938 36.066406 61.460938 C 36.902344 60.210938 37.765625 58.980469 38.664062 57.773438 C 39.558594 56.566406 40.484375 55.382812 41.4375 54.21875 C 42.390625 53.058594 43.371094 51.917969 44.382812 50.804688 C 45.390625 49.691406 46.425781 48.601562 47.488281 47.539062 C 48.554688 46.476562 49.640625 45.441406 50.753906 44.429688 C 51.871094 43.421875 53.007812 42.441406 54.167969 41.484375 C 55.332031 40.53125 56.515625 39.609375 57.722656 38.710938 C 58.929688 37.816406 60.160156 36.953125 61.410156 36.117188 C 62.660156 35.28125 63.929688 34.476562 65.21875 33.703125 C 66.507812 32.929688 67.816406 32.191406 69.140625 31.480469 C 70.46875 30.773438 71.808594 30.097656 73.167969 29.453125 C 74.527344 28.8125 75.902344 28.203125 77.292969 27.628906 C 78.679688 27.050781 80.082031 26.511719 81.496094 26.003906 C 82.914062 25.5 84.339844 25.027344 85.777344 24.589844 C 87.21875 24.152344 88.664062 23.753906 90.125 23.386719 C 91.582031 23.023438 93.046875 22.695312 94.523438 22.398438 C 95.996094 22.105469 97.476562 21.851562 98.964844 21.628906 C 100.453125 21.410156 101.945312 21.226562 103.441406 21.078125 C 104.9375 20.929688 106.433594 20.820312 107.9375 20.746094 C 109.4375 20.671875 110.941406 20.636719 112.445312 20.636719 C 113.945312 20.636719 115.449219 20.671875 116.949219 20.746094 C 118.453125 20.820312 119.953125 20.929688 121.449219 21.078125 C 122.945312 21.226562 124.433594 21.410156 125.921875 21.628906 C 127.410156 21.851562 128.890625 22.105469 130.363281 22.398438 C 131.839844 22.695312 133.304688 23.023438 134.761719 23.386719 C 136.222656 23.753906 137.671875 24.152344 139.109375 24.589844 C 140.546875 25.027344 141.972656 25.5 143.390625 26.003906 C 144.804688 26.511719 146.207031 27.050781 147.597656 27.628906 C 148.984375 28.203125 150.359375 28.8125 151.71875 29.453125 C 153.078125 30.097656 154.417969 30.773438 155.746094 31.480469 C 157.070312 32.191406 158.378906 32.929688 159.667969 33.703125 C 160.957031 34.476562 162.226562 35.28125 163.476562 36.117188 C 164.726562 36.953125 165.957031 37.816406 167.164062 38.710938 C 168.371094 39.609375 169.554688 40.53125 170.71875 41.484375 C 171.878906 42.441406 173.019531 43.421875 174.132812 44.429688 C 175.246094 45.441406 176.335938 46.476562 177.398438 47.539062 C 178.460938 48.601562 179.496094 49.691406 180.507812 50.804688 C 181.515625 51.917969 182.496094 53.058594 183.453125 54.21875 C 184.40625 55.382812 185.328125 56.566406 186.226562 57.773438 C 187.121094 58.980469 187.984375 60.210938 188.820312 61.460938 C 189.65625 62.710938 190.460938 63.980469 191.234375 65.269531 C 192.007812 66.558594 192.746094 67.867188 193.457031 69.191406 C 194.164062 70.519531 194.839844 71.859375 195.484375 73.21875 C 196.125 74.578125 196.734375 75.953125 197.308594 77.339844 C 197.886719 78.730469 198.425781 80.132812 198.933594 81.546875 C 199.4375 82.960938 199.910156 84.390625 200.347656 85.828125 C 200.78125 87.265625 201.183594 88.714844 201.550781 90.171875 C 201.914062 91.632812 202.242188 93.097656 202.535156 94.574219 C 202.832031 96.046875 203.085938 97.527344 203.308594 99.015625 C 203.527344 100.503906 203.710938 101.992188 203.859375 103.488281 C 204.007812 104.984375 204.117188 106.484375 204.191406 107.984375 C 204.265625 109.488281 204.300781 110.988281 204.300781 112.492188 Z M 204.300781 112.492188 " fill-opacity="1" fill-rule="nonzero"/><g clip-path="url(#ba20f6a9f0)"><path fill="#bf1e2e" d="M 112.433594 215.421875 C 55.679688 215.421875 9.511719 169.246094 9.511719 112.496094 C 9.511719 55.742188 55.679688 9.570312 112.433594 9.570312 C 169.191406 9.570312 215.367188 55.742188 215.367188 112.496094 C 215.375 169.246094 169.199219 215.421875 112.433594 215.421875 Z M 112.433594 16.625 C 59.578125 16.625 16.566406 59.632812 16.566406 112.496094 C 16.566406 165.363281 59.578125 208.367188 112.433594 208.367188 C 165.308594 208.367188 208.3125 165.359375 208.3125 112.496094 C 208.3125 59.632812 165.304688 16.625 112.433594 16.625 Z M 112.433594 16.625 " fill-opacity="1" fill-rule="nonzero"/></g><path fill="#ffffff" d="M 104.914062 69.898438 C 99.242188 69.875 95.023438 70.480469 92.257812 71.714844 C 89.492188 72.941406 87.421875 74.105469 86.046875 75.207031 C 87.203125 75.316406 88.484375 75.613281 89.890625 76.089844 C 91.289062 76.566406 92.585938 77.253906 93.769531 78.164062 C 94.953125 79.074219 95.9375 80.328125 96.726562 81.898438 C 97.53125 83.46875 97.921875 85.4375 97.90625 87.808594 C 97.894531 92.214844 96.300781 95.742188 93.125 98.375 C 89.945312 101.011719 85.300781 102.316406 79.175781 102.292969 C 76.253906 102.285156 73.472656 101.824219 70.828125 100.910156 C 68.191406 99.984375 65.847656 98.601562 63.816406 96.75 C 61.785156 94.90625 60.175781 92.609375 59 89.875 C 57.828125 87.140625 57.242188 83.929688 57.253906 80.234375 C 57.269531 75.0625 58.578125 70.351562 61.1875 66.113281 C 63.792969 61.875 67.519531 58.234375 72.382812 55.195312 C 77.238281 52.15625 83.117188 49.828125 90.011719 48.222656 C 96.914062 46.617188 104.648438 45.832031 113.25 45.859375 C 120.355469 45.882812 127.359375 46.445312 134.246094 47.539062 C 141.132812 48.636719 147.242188 50.492188 152.582031 53.097656 C 157.921875 55.710938 162.21875 59.136719 165.484375 63.390625 C 168.753906 67.640625 170.375 72.855469 170.351562 79.027344 C 170.320312 86.746094 168.019531 92.9375 163.433594 97.609375 C 158.84375 102.28125 151.914062 105.371094 142.65625 106.882812 L 142.648438 107.789062 C 151.90625 108.925781 159.375 111.949219 165.074219 116.875 C 170.761719 121.800781 173.582031 128.890625 173.554688 138.148438 C 173.539062 142.117188 172.484375 146.152344 170.375 150.246094 C 168.261719 154.351562 164.820312 158.054688 160.003906 161.375 C 155.199219 164.703125 148.910156 167.414062 141.125 169.542969 C 133.351562 171.667969 123.816406 172.710938 112.519531 172.675781 C 101.773438 172.632812 92.652344 171.476562 85.164062 169.1875 C 77.667969 166.910156 71.589844 163.980469 66.921875 160.410156 C 62.253906 156.839844 58.867188 152.792969 56.789062 148.273438 C 54.707031 143.734375 53.679688 139.164062 53.703125 134.535156 C 53.710938 130.84375 54.289062 127.523438 55.417969 124.582031 C 56.5625 121.632812 58.132812 119.171875 60.117188 117.199219 C 62.105469 115.21875 64.421875 113.738281 67.074219 112.753906 C 69.71875 111.773438 72.507812 111.289062 75.429688 111.292969 C 79.171875 111.308594 82.320312 111.816406 84.855469 112.808594 C 87.375 113.808594 89.40625 115.082031 90.910156 116.632812 C 92.414062 118.171875 93.511719 119.875 94.203125 121.722656 C 94.890625 123.574219 95.226562 125.351562 95.222656 127.066406 C 95.207031 131.691406 93.804688 135.234375 91.011719 137.71875 C 88.214844 140.1875 85.144531 141.933594 81.773438 142.976562 C 87.273438 146.351562 94.703125 148.058594 104.074219 148.09375 C 111.789062 148.117188 117.453125 146.675781 121.074219 143.765625 C 124.699219 140.851562 126.511719 136.671875 126.523438 131.21875 C 126.53125 128.515625 126.015625 126.207031 124.933594 124.269531 C 123.863281 122.339844 122.445312 120.777344 120.695312 119.585938 C 118.933594 118.394531 116.925781 117.519531 114.667969 116.960938 C 112.410156 116.40625 110.152344 116.121094 107.890625 116.117188 L 102.019531 116.09375 L 102.082031 98.15625 L 107.953125 98.179688 C 113.40625 98.191406 117.492188 96.855469 120.199219 94.167969 C 122.90625 91.472656 124.265625 88.3125 124.277344 84.667969 C 124.28125 81.867188 123.75 79.488281 122.679688 77.554688 C 121.609375 75.625 120.210938 74.085938 118.476562 72.953125 C 116.746094 71.820312 114.695312 71.03125 112.332031 70.582031 C 109.980469 70.128906 107.507812 69.902344 104.914062 69.898438 Z M 104.914062 69.898438 " fill-opacity="1" fill-rule="nonzero"/></svg>