<?xml version="1.0" standalone="no"?>
<!DOCTYPE svg PUBLIC "-//W3C//DTD SVG 20010904//EN"
 "http://www.w3.org/TR/2001/REC-SVG-20010904/DTD/svg10.dtd">
<svg version="1.0" xmlns="http://www.w3.org/2000/svg"
 width="2500.000000pt" height="2500.000000pt" viewBox="0 0 2500.000000 2500.000000"
 preserveAspectRatio="xMidYMid meet">

<g transform="translate(0.000000,2500.000000) scale(0.100000,-0.100000)"
fill="#000000" stroke="none">
<path d="M7929 23206 c-3 -3 -110 -10 -239 -16 -224 -10 -291 -17 -495 -54
-93 -17 -279 -62 -400 -98 -195 -56 -616 -254 -755 -353 -25 -18 -61 -41 -80
-51 -19 -11 -84 -53 -143 -94 -59 -41 -125 -85 -145 -97 -20 -12 -74 -55 -119
-95 -59 -52 -84 -82 -89 -103 -6 -35 22 -114 67 -188 16 -26 29 -50 29 -53 0
-7 28 -72 43 -99 6 -11 52 -101 102 -200 129 -252 217 -419 259 -493 20 -35
36 -66 36 -68 0 -2 12 -23 26 -46 14 -22 43 -73 63 -112 57 -109 80 -144 341
-534 129 -194 408 -542 433 -542 7 0 32 6 57 15 25 8 79 23 120 34 93 25 251
79 349 120 74 31 106 37 127 23 24 -15 71 -135 115 -292 16 -58 34 -119 39
-136 6 -17 10 -37 10 -44 0 -8 11 -44 24 -80 20 -56 41 -121 111 -345 7 -22
18 -58 24 -80 5 -22 30 -103 55 -180 24 -77 54 -178 66 -225 12 -47 26 -94 30
-105 14 -35 28 -78 45 -140 20 -72 65 -224 72 -245 3 -8 16 -58 30 -110 38
-149 39 -150 72 -250 18 -52 36 -113 41 -135 24 -109 40 -175 54 -220 9 -27
16 -59 16 -70 0 -11 11 -44 25 -73 l25 -53 -25 -25 c-40 -40 -32 -129 28 -314
8 -25 22 -74 32 -110 38 -141 68 -230 81 -241 11 -9 36 -2 114 30 55 23 130
57 167 75 77 38 133 56 180 56 48 0 56 23 37 116 -9 44 -18 90 -21 104 -2 14
-8 34 -13 45 -16 40 -69 191 -81 230 -22 76 -45 109 -96 137 -66 37 -86 63
-112 149 -13 41 -32 99 -43 129 -11 30 -31 96 -44 145 -14 50 -29 104 -34 120
-5 17 -19 64 -30 105 -12 41 -26 84 -30 95 -5 11 -11 31 -13 45 -3 14 -14 50
-26 80 -11 30 -30 93 -41 140 -35 139 -36 145 -47 165 -6 11 -25 67 -43 125
-65 217 -99 327 -125 410 -15 47 -33 108 -41 135 -8 28 -19 66 -25 85 -6 19
-14 53 -19 75 -13 64 -31 128 -41 150 -16 37 -59 177 -59 195 0 9 -9 42 -19
73 -11 31 -29 96 -41 144 -12 49 -30 117 -40 152 -18 59 -18 67 -4 88 8 13 25
28 37 32 13 5 43 18 67 29 25 12 68 27 95 35 28 8 81 29 119 47 39 17 90 39
115 47 42 14 115 59 149 90 25 24 34 132 27 318 -11 312 -32 581 -54 700 -6
33 -15 92 -20 130 -5 39 -17 120 -25 180 -9 61 -18 133 -21 160 -9 90 -22 158
-53 285 -17 69 -38 166 -47 215 -9 50 -23 117 -30 150 -8 33 -19 89 -26 125
-7 36 -26 117 -42 180 -16 63 -33 135 -38 160 -5 25 -17 56 -28 70 -16 23 -26
25 -103 28 -46 1 -86 0 -89 -2z m-176 -567 c96 -49 151 -211 212 -619 9 -58
20 -123 25 -145 5 -22 21 -103 35 -180 14 -77 35 -183 47 -235 36 -168 50
-254 67 -405 17 -146 -11 -206 -116 -245 -54 -20 -107 -24 -153 -11 -25 7 -55
56 -71 116 -28 108 -61 233 -85 315 -15 52 -29 115 -32 140 -2 25 -8 50 -12
55 -10 13 -33 98 -54 200 -9 44 -28 114 -41 155 -14 41 -50 179 -82 305 -46
186 -57 246 -57 315 l-1 85 43 55 c55 71 126 110 200 110 29 0 63 -5 75 -11z
m-690 -209 c29 0 107 -80 136 -140 16 -30 43 -102 61 -160 18 -58 40 -127 51
-155 17 -46 48 -156 70 -250 6 -22 18 -65 28 -95 21 -62 46 -145 62 -205 6
-22 15 -53 20 -70 6 -16 25 -82 44 -145 18 -63 45 -149 60 -190 35 -96 65
-207 65 -238 0 -95 -223 -194 -298 -132 -29 24 -94 157 -128 262 -15 46 -39
115 -55 153 -15 39 -48 129 -74 200 -25 72 -62 171 -81 220 -19 50 -34 95 -34
101 0 5 -11 33 -25 61 -13 28 -36 88 -50 134 -15 46 -35 100 -45 119 -33 64
-120 292 -120 317 0 26 43 95 81 129 27 24 124 79 154 87 11 3 29 3 40 1 11
-2 28 -4 38 -4z m-632 -241 c61 -21 108 -76 164 -194 29 -60 62 -139 75 -174
12 -34 35 -88 50 -120 15 -31 39 -90 53 -131 14 -41 32 -88 40 -105 15 -29
131 -307 163 -390 17 -43 23 -55 46 -100 9 -16 20 -41 26 -55 6 -14 25 -56 42
-95 107 -235 94 -288 -81 -349 -60 -21 -75 -20 -125 9 -75 44 -71 37 -444 800
-72 149 -172 351 -221 450 -87 174 -90 183 -91 251 -1 107 45 178 130 204 40
12 134 12 173 -1z"/>
<path d="M9210 17064 c-19 -8 -38 -20 -42 -27 -4 -7 -8 -63 -8 -126 0 -63 -7
-152 -16 -199 l-16 -84 33 -47 c18 -25 50 -65 70 -88 40 -44 84 -125 114 -210
11 -29 25 -53 33 -53 15 0 200 129 221 154 7 9 17 16 21 16 13 0 116 109 128
135 23 50 11 125 -34 224 -34 73 -70 124 -146 202 -85 88 -150 119 -250 119
-42 -1 -88 -7 -108 -16z"/>
<path d="M1690 16616 c-209 -47 -501 -253 -623 -439 -62 -94 -81 -139 -109
-257 -18 -77 -21 -132 -27 -595 -4 -280 -8 -1433 -9 -2561 -2 -1746 0 -2053
12 -2063 14 -12 9 -17 366 364 46 49 233 239 415 421 181 181 420 422 530 535
110 112 300 301 422 419 211 205 222 217 228 260 4 25 5 725 2 1555 -4 1662
-2 1603 -66 1755 -67 160 -218 344 -371 452 -89 63 -215 125 -291 143 -87 21
-404 29 -479 11z"/>
<path d="M8320 16479 c-206 -16 -469 -53 -551 -79 -91 -28 -182 -87 -234 -150
-47 -58 -133 -224 -161 -311 -9 -30 -36 -112 -59 -184 -43 -132 -83 -267 -135
-455 -16 -58 -37 -130 -46 -160 -9 -30 -18 -61 -20 -68 -10 -34 -37 -217 -43
-293 -5 -55 -16 -102 -29 -131 -22 -43 -226 -255 -352 -363 -30 -26 -68 -59
-85 -74 -16 -14 -50 -42 -75 -61 -25 -19 -47 -37 -50 -40 -6 -6 -81 -67 -185
-150 -44 -36 -82 -67 -85 -70 -5 -5 -180 -138 -319 -242 -42 -32 -83 -61 -91
-65 -8 -4 -40 -25 -70 -47 -130 -96 -567 -376 -587 -376 -6 0 -16 -6 -22 -14
-7 -8 -60 -41 -119 -74 -59 -32 -129 -72 -157 -87 -184 -104 -806 -415 -831
-415 -2 0 -41 -18 -87 -39 -45 -22 -138 -60 -207 -86 -69 -25 -165 -62 -215
-80 -49 -19 -135 -49 -190 -66 -55 -17 -104 -35 -110 -40 -5 -5 -15 -9 -22 -9
-25 0 -214 -90 -276 -132 -39 -26 -314 -293 -747 -726 -377 -377 -721 -715
-765 -752 -223 -188 -369 -387 -415 -564 -46 -177 -45 -80 -45 -3221 0 -2837
1 -2974 18 -3050 27 -120 49 -175 101 -257 82 -127 104 -154 188 -234 199
-187 368 -254 641 -254 184 0 354 36 472 98 59 32 207 134 256 177 90 79 200
235 233 330 51 142 49 62 55 1990 4 1320 9 1807 17 1825 20 44 39 54 75 39 52
-21 222 -200 347 -364 136 -180 204 -249 1960 -2010 813 -814 1545 -1549 1627
-1634 164 -167 267 -253 390 -323 104 -60 132 -71 242 -102 80 -23 111 -26
239 -26 124 0 163 4 251 26 167 41 324 134 469 279 115 114 154 169 199 280
72 177 70 164 70 380 0 212 2 201 -60 374 -26 73 -52 127 -90 186 -60 95 20
14 -2916 2935 -838 833 -1573 1565 -1634 1625 -139 138 -241 234 -319 299 -81
67 -476 462 -554 554 -102 120 -87 149 112 213 72 23 217 71 321 106 105 36
224 75 265 88 115 35 341 114 375 129 17 8 77 32 135 54 58 21 132 51 165 67
33 15 83 36 110 47 28 11 82 34 120 52 39 18 88 41 110 51 93 41 397 196 505
257 25 14 74 41 110 60 116 64 164 91 217 125 29 18 54 33 57 33 3 0 67 39
143 87 290 181 490 320 726 502 67 52 158 122 202 156 288 219 574 473 865
765 131 132 224 231 441 470 115 127 164 159 240 160 61 0 278 34 354 56 33 9
74 20 90 24 108 30 281 105 312 135 7 8 13 29 13 47 0 34 -113 390 -151 476
-12 26 -25 56 -30 67 -5 11 -17 47 -27 80 l-18 60 -64 13 c-67 13 -77 17 -178
76 -114 65 -222 185 -222 247 0 12 -8 46 -17 76 -13 43 -28 63 -77 106 -87 76
-99 88 -128 127 -40 55 -67 114 -74 162 -3 23 -10 55 -16 71 l-10 27 -117 1
c-147 1 -165 6 -169 45 -5 47 43 80 168 114 123 35 323 158 354 219 13 23 14
39 6 78 -36 172 -36 227 1 264 43 43 96 6 124 -87 40 -129 122 -268 217 -365
33 -34 150 -119 163 -119 3 0 32 -12 63 -27 49 -23 70 -27 147 -27 81 0 96 3
150 31 33 17 80 52 104 77 41 41 45 50 45 95 0 41 -7 60 -44 116 -24 37 -49
73 -55 79 -54 56 -148 232 -220 411 -67 165 -111 225 -195 264 -36 16 -92 34
-124 40 -67 12 -326 12 -486 0z"/>
<path d="M9882 16319 c-18 -6 -57 -25 -87 -44 -30 -19 -57 -35 -61 -35 -4 0
-22 -11 -40 -25 -18 -14 -37 -25 -42 -25 -5 0 -15 -7 -22 -15 -7 -9 -48 -40
-90 -70 -43 -30 -80 -64 -83 -74 -6 -23 14 -62 87 -176 51 -80 62 -100 111
-207 23 -50 30 -58 53 -58 15 0 45 11 68 23 22 12 69 37 105 56 103 54 252
155 287 195 50 57 64 100 51 150 -33 120 -154 282 -228 304 -44 14 -63 14
-109 1z"/>
<path d="M10202 15630 c-29 -10 -83 -33 -120 -51 -357 -168 -345 -162 -575
-296 -73 -43 -166 -94 -207 -115 -41 -21 -79 -41 -85 -46 -11 -8 -216 -118
-352 -188 -159 -81 -187 -119 -143 -192 43 -71 77 -92 145 -92 91 0 430 95
590 165 17 7 67 30 112 49 45 20 86 36 92 36 6 0 19 4 29 10 9 5 78 33 152 61
74 29 173 67 220 86 47 19 105 42 130 50 25 9 79 32 120 52 61 29 81 45 107
85 43 63 57 117 50 193 -7 69 -15 89 -61 147 -56 69 -106 80 -204 46z"/>
<path d="M8522 15373 c-101 -109 -111 -223 -24 -287 40 -30 151 -24 273 14 97
31 124 47 111 65 -4 6 -29 28 -57 50 -27 22 -88 77 -135 122 -47 45 -94 83
-104 83 -11 0 -39 -21 -64 -47z"/>
<path d="M10275 14940 c-28 -10 -70 -26 -95 -38 -107 -48 -331 -142 -341 -142
-5 0 -47 -16 -92 -36 -45 -20 -91 -40 -102 -44 -142 -54 -304 -139 -328 -171
-15 -21 -18 -35 -12 -68 18 -109 91 -142 270 -122 94 11 269 41 360 63 141 33
185 30 185 -13 0 -23 -46 -99 -60 -99 -15 0 -11 -72 5 -94 18 -23 57 -24 92 0
83 53 242 237 295 339 38 74 71 198 62 237 -10 49 -52 133 -78 157 -12 11 -42
27 -67 34 -39 12 -51 12 -94 -3z"/>
<path d="M9710 14163 c-85 -20 -151 -27 -255 -30 -77 -2 -144 -8 -149 -13 -8
-8 9 -78 46 -180 27 -74 85 -247 157 -470 126 -389 135 -411 183 -456 77 -71
136 -91 222 -74 33 7 65 17 70 21 6 5 20 9 33 9 28 0 122 92 146 142 30 64 21
117 -67 383 -24 72 -47 146 -50 165 -4 19 -11 44 -16 55 -5 11 -21 61 -36 110
-15 50 -42 135 -61 190 -19 55 -40 116 -47 135 -15 45 -29 46 -176 13z"/>
<path d="M15316 10827 c-17 -12 -19 -33 -20 -220 -1 -157 2 -209 12 -219 17
-17 317 -17 334 0 12 12 24 388 13 430 -5 22 -8 22 -163 22 -116 0 -163 -4
-176 -13z"/>
<path d="M9775 10610 l-150 -5 -7 -95 c-4 -52 -5 -165 -2 -250 8 -209 19 -197
-191 -206 -88 -3 -168 -10 -177 -15 -16 -9 -18 -26 -18 -139 0 -118 2 -130 19
-140 11 -6 89 -10 180 -10 156 0 161 -1 173 -22 10 -18 13 -185 15 -753 1
-401 4 -762 7 -801 18 -237 213 -374 536 -374 113 0 332 26 341 41 4 6 6 77 5
158 l-1 146 -35 -1 c-19 -1 -76 -7 -125 -14 -79 -11 -101 -11 -175 4 -148 30
-172 53 -189 184 -16 131 -15 1392 2 1415 11 15 42 17 267 19 l255 3 3 141 c2
121 0 143 -13 148 -9 3 -124 9 -256 12 -187 6 -244 10 -255 21 -11 12 -14 64
-14 273 l0 258 -22 3 c-13 2 -90 2 -173 -1z"/>
<path d="M14795 10130 c-22 -5 -59 -9 -82 -9 -49 -1 -170 -29 -263 -61 -113
-39 -264 -148 -366 -262 -63 -71 -110 -106 -124 -92 -5 5 -11 86 -12 179 l-3
170 -148 3 c-90 1 -155 -2 -167 -8 -20 -11 -20 -24 -20 -1090 0 -852 3 -1081
13 -1087 6 -4 75 -9 152 -11 112 -3 144 0 160 11 19 15 20 29 22 579 1 607 5
653 57 806 70 208 240 385 428 446 118 38 158 40 458 23 43 -2 45 -1 44 26 0
15 -1 101 -2 192 -2 146 -4 165 -20 174 -28 15 -84 20 -127 11z"/>
<path d="M11820 10120 c-271 -32 -468 -105 -635 -235 -183 -143 -286 -294
-363 -535 -47 -145 -60 -471 -28 -650 59 -320 214 -562 461 -722 170 -108 446
-178 703 -178 367 1 662 110 884 326 62 60 178 217 178 241 0 4 12 30 26 56
14 27 24 58 22 70 -3 22 -7 22 -186 25 -114 1 -190 -1 -202 -8 -11 -6 -30 -30
-41 -53 -32 -61 -143 -167 -224 -213 -83 -46 -93 -51 -165 -71 -255 -70 -328
-70 -595 1 -185 49 -331 168 -412 334 -44 92 -93 258 -93 317 0 64 -75 60 989
65 890 5 972 6 987 22 15 15 16 27 4 130 -12 112 -34 236 -51 293 -76 250
-117 327 -245 457 -92 93 -157 141 -266 197 -114 58 -156 71 -373 115 -92 19
-281 27 -375 16z m295 -339 c55 -11 120 -27 145 -36 185 -66 325 -188 412
-360 76 -149 91 -198 66 -223 -16 -16 -1512 -17 -1553 -2 -26 10 -27 13 -20
58 3 26 26 88 49 137 76 158 191 279 335 350 105 52 133 62 212 75 41 6 81 13
89 15 49 9 179 2 265 -14z"/>
<path d="M17495 10120 c-75 -9 -238 -50 -316 -80 -107 -40 -259 -145 -414
-284 -96 -86 -98 -83 -94 123 2 93 0 173 -4 178 -11 11 -307 4 -329 -8 -17 -9
-18 -66 -18 -1089 0 -1066 0 -1079 20 -1090 12 -6 78 -9 172 -8 l153 3 7 50
c4 28 6 205 3 395 -7 570 10 885 54 995 99 243 314 436 549 492 87 21 339 29
401 13 166 -43 235 -88 305 -198 75 -120 80 -176 80 -1009 1 -570 4 -715 14
-725 19 -19 321 -25 333 -6 12 18 10 1355 -1 1493 -11 120 -20 172 -45 255 -9
30 -19 68 -22 83 -11 58 -108 200 -176 258 -109 92 -296 154 -497 163 -58 2
-136 1 -175 -4z"/>
<path d="M22655 10121 c-83 -9 -246 -40 -350 -68 -64 -18 -91 -31 -195 -96
-148 -91 -227 -240 -267 -505 -6 -36 9 -126 34 -205 62 -199 246 -318 598
-388 65 -13 315 -58 380 -69 33 -6 96 -17 140 -26 44 -8 101 -19 126 -24 140
-26 285 -78 340 -122 56 -46 72 -142 40 -246 -32 -107 -104 -165 -270 -218
-134 -43 -214 -54 -401 -54 -141 0 -190 4 -253 20 -74 19 -97 27 -193 70 -98
44 -209 186 -228 291 -3 20 -17 46 -31 59 -24 22 -31 23 -167 22 -79 -1 -156
-6 -173 -10 -29 -9 -30 -11 -27 -58 3 -59 42 -186 84 -271 73 -149 215 -275
383 -338 136 -52 371 -85 594 -85 110 0 400 28 471 46 290 71 486 222 550 422
38 119 36 359 -3 450 -55 126 -139 215 -252 267 -107 50 -162 65 -345 100 -74
13 -155 29 -180 34 -57 12 -193 36 -290 51 -180 27 -241 41 -378 86 -69 23
-90 35 -127 75 -24 25 -48 64 -54 85 -17 60 -13 154 8 199 36 79 146 153 261
175 30 6 74 15 98 20 23 6 115 10 205 10 278 -1 438 -42 552 -142 55 -49 88
-103 110 -185 13 -46 22 -63 39 -67 11 -3 82 -6 157 -6 167 0 166 -1 149 102
-26 162 -75 261 -180 365 -108 107 -252 167 -515 217 -98 18 -332 27 -440 17z"/>
<path d="M19890 10113 c-14 -2 -45 -8 -70 -14 -25 -6 -65 -15 -90 -21 -102
-23 -165 -46 -225 -81 -11 -7 -47 -28 -80 -47 -236 -136 -394 -346 -475 -635
-6 -22 -18 -65 -27 -95 -21 -72 -25 -415 -5 -505 93 -419 313 -695 657 -823
183 -68 250 -81 445 -89 107 -4 221 9 375 43 95 21 312 148 418 244 57 52 97
72 115 57 12 -9 14 -32 9 -118 -4 -59 -13 -127 -22 -151 -8 -23 -15 -50 -15
-58 0 -31 -73 -157 -118 -203 -74 -76 -203 -141 -332 -166 -220 -44 -359 -51
-515 -27 -270 42 -405 118 -451 253 -14 42 -24 55 -47 63 -17 5 -108 10 -204
10 -192 0 -196 -1 -175 -63 47 -142 106 -251 176 -325 81 -87 248 -180 383
-212 176 -44 358 -63 523 -56 209 8 329 23 461 57 20 5 46 9 58 9 28 0 257
111 291 140 14 12 44 38 68 58 47 38 139 170 173 248 12 26 35 94 52 149 l30
100 6 1090 c5 942 4 1092 -8 1103 -18 15 -266 17 -305 2 l-26 -10 0 -154 c0
-182 -4 -192 -68 -145 -23 17 -42 34 -42 38 0 22 -158 160 -232 203 -99 58
-158 78 -343 118 -84 18 -286 26 -365 13z m450 -336 c297 -77 466 -222 573
-492 35 -88 41 -132 41 -315 1 -217 -12 -285 -79 -425 -79 -164 -238 -304
-405 -358 -113 -36 -283 -67 -369 -67 -113 1 -340 59 -454 116 -136 68 -264
215 -317 366 -52 149 -71 399 -42 548 20 98 63 229 89 267 13 19 23 36 23 40
0 21 112 139 172 180 177 122 334 165 573 158 77 -2 165 -11 195 -18z"/>
<path d="M15324 10060 c-18 -7 -23 -19 -25 -62 -2 -29 -4 -515 -4 -1080 0
-828 3 -1029 13 -1040 17 -17 319 -25 336 -8 8 8 12 309 14 1090 2 977 1 1080
-13 1094 -14 13 -41 16 -158 15 -78 0 -152 -4 -163 -9z"/>
</g>
</svg>
