<svg xmlns="http://www.w3.org/2000/svg" xmlns:xlink="http://www.w3.org/1999/xlink" width="66" zoomAndPan="magnify" viewBox="0 0 49.5 49.499998" height="66" preserveAspectRatio="xMidYMid meet" version="1.0"><defs><clipPath id="234fa0c5dd"><path d="M 0 0 L 49.003906 0 L 49.003906 49.003906 L 0 49.003906 Z M 0 0 " clip-rule="nonzero"/></clipPath></defs><g clip-path="url(#234fa0c5dd)"><path fill="#ffffff" d="M 0 0 L 49.003906 0 L 49.003906 49.003906 L 0 49.003906 Z M 0 0 " fill-opacity="1" fill-rule="nonzero"/><path fill="#ffffff" d="M 0 0 L 49.003906 0 L 49.003906 49.003906 L 0 49.003906 Z M 0 0 " fill-opacity="1" fill-rule="nonzero"/></g><path fill="#918f94" d="M 28.503906 31.558594 L 31.558594 28.507812 L 37.757812 34.703125 L 34.703125 37.757812 Z M 28.503906 31.558594 " fill-opacity="1" fill-rule="nonzero"/><path fill="#918f94" d="M 47.546875 41.03125 C 48.894531 42.378906 48.894531 44.566406 47.546875 45.917969 L 45.917969 47.546875 C 44.566406 48.898438 42.378906 48.898438 41.03125 47.546875 L 32.300781 38.8125 C 30.949219 37.464844 30.949219 35.277344 32.296875 33.925781 L 33.925781 32.296875 C 35.277344 30.949219 37.46875 30.949219 38.816406 32.296875 Z M 47.546875 41.03125 " fill-opacity="1" fill-rule="nonzero"/><path fill="#918f94" d="M 18.542969 -0.0234375 C 8.289062 -0.0234375 -0.0234375 8.289062 -0.0234375 18.542969 C -0.0234375 28.796875 8.289062 37.109375 18.542969 37.109375 C 28.796875 37.109375 37.109375 28.796875 37.109375 18.542969 C 37.109375 8.289062 28.796875 -0.0234375 18.542969 -0.0234375 Z M 18.542969 33.671875 C 10.183594 33.671875 3.410156 26.902344 3.410156 18.542969 C 3.410156 10.183594 10.183594 3.410156 18.542969 3.410156 C 26.902344 3.410156 33.675781 10.183594 33.675781 18.542969 C 33.675781 26.902344 26.902344 33.671875 18.542969 33.671875 Z M 18.542969 33.671875 " fill-opacity="1" fill-rule="nonzero"/><path fill="#918f94" d="M 22.347656 27.730469 C 14.945312 27.730469 8.9375 21.726562 8.9375 14.320312 C 8.9375 14.121094 8.957031 13.929688 8.964844 13.734375 C 7.988281 15.316406 7.414062 17.175781 7.414062 19.167969 C 7.414062 24.894531 12.058594 29.539062 17.785156 29.539062 C 19.996094 29.539062 22.039062 28.839844 23.726562 27.664062 C 23.273438 27.710938 22.8125 27.730469 22.347656 27.730469 Z M 22.347656 27.730469 " fill-opacity="1" fill-rule="nonzero"/></svg>