<svg xmlns="http://www.w3.org/2000/svg" xmlns:xlink="http://www.w3.org/1999/xlink" width="300" zoomAndPan="magnify" viewBox="0 0 224.87999 225" height="300" preserveAspectRatio="xMidYMid meet" version="1.0"><defs><clipPath id="708d09268f"><path d="M 7.511719 7.570312 L 217.398438 7.570312 L 217.398438 217.460938 L 7.511719 217.460938 Z M 7.511719 7.570312 " clip-rule="nonzero"/></clipPath></defs><path fill="#bf1e2e" d="M 206.082031 112.492188 C 206.082031 114.023438 206.046875 115.554688 205.96875 117.085938 C 205.894531 118.617188 205.78125 120.144531 205.632812 121.671875 C 205.480469 123.195312 205.292969 124.714844 205.070312 126.230469 C 204.84375 127.75 204.582031 129.257812 204.285156 130.761719 C 203.984375 132.261719 203.648438 133.757812 203.277344 135.246094 C 202.90625 136.730469 202.496094 138.207031 202.050781 139.675781 C 201.605469 141.140625 201.125 142.597656 200.609375 144.039062 C 200.09375 145.480469 199.542969 146.910156 198.957031 148.328125 C 198.367188 149.742188 197.746094 151.144531 197.09375 152.527344 C 196.4375 153.914062 195.75 155.28125 195.027344 156.632812 C 194.304688 157.984375 193.546875 159.320312 192.761719 160.632812 C 191.972656 161.949219 191.152344 163.242188 190.300781 164.515625 C 189.449219 165.789062 188.570312 167.042969 187.65625 168.273438 C 186.742188 169.503906 185.800781 170.710938 184.828125 171.898438 C 183.855469 173.082031 182.855469 174.242188 181.824219 175.378906 C 180.796875 176.511719 179.738281 177.621094 178.65625 178.707031 C 177.574219 179.789062 176.464844 180.847656 175.328125 181.875 C 174.191406 182.90625 173.03125 183.90625 171.847656 184.878906 C 170.664062 185.847656 169.457031 186.792969 168.222656 187.703125 C 166.992188 188.617188 165.742188 189.5 164.464844 190.351562 C 163.191406 191.203125 161.898438 192.023438 160.582031 192.808594 C 159.269531 193.597656 157.9375 194.351562 156.585938 195.074219 C 155.234375 195.796875 153.863281 196.488281 152.480469 197.140625 C 151.09375 197.796875 149.691406 198.417969 148.277344 199.003906 C 146.863281 199.589844 145.433594 200.144531 143.988281 200.660156 C 142.546875 201.175781 141.089844 201.65625 139.625 202.101562 C 138.160156 202.546875 136.683594 202.953125 135.195312 203.328125 C 133.707031 203.699219 132.214844 204.035156 130.710938 204.332031 C 129.207031 204.632812 127.699219 204.894531 126.183594 205.121094 C 124.667969 205.34375 123.144531 205.53125 121.621094 205.683594 C 120.097656 205.832031 118.566406 205.945312 117.039062 206.019531 C 115.507812 206.09375 113.976562 206.132812 112.441406 206.132812 C 110.910156 206.132812 109.378906 206.09375 107.847656 206.019531 C 106.316406 205.945312 104.789062 205.832031 103.265625 205.683594 C 101.738281 205.53125 100.21875 205.34375 98.703125 205.121094 C 97.1875 204.894531 95.675781 204.632812 94.175781 204.332031 C 92.671875 204.035156 91.175781 203.699219 89.691406 203.328125 C 88.203125 202.953125 86.726562 202.546875 85.261719 202.101562 C 83.792969 201.65625 82.339844 201.175781 80.894531 200.660156 C 79.453125 200.144531 78.023438 199.589844 76.609375 199.003906 C 75.191406 198.417969 73.792969 197.796875 72.40625 197.140625 C 71.019531 196.488281 69.652344 195.796875 68.300781 195.074219 C 66.949219 194.351562 65.617188 193.597656 64.300781 192.808594 C 62.988281 192.023438 61.691406 191.203125 60.417969 190.351562 C 59.144531 189.5 57.890625 188.617188 56.660156 187.703125 C 55.429688 186.792969 54.222656 185.847656 53.039062 184.878906 C 51.851562 183.90625 50.691406 182.90625 49.558594 181.875 C 48.421875 180.847656 47.3125 179.789062 46.230469 178.707031 C 45.144531 177.621094 44.089844 176.511719 43.058594 175.378906 C 42.03125 174.242188 41.03125 173.082031 40.058594 171.898438 C 39.085938 170.710938 38.144531 169.503906 37.230469 168.273438 C 36.316406 167.042969 35.433594 165.789062 34.582031 164.515625 C 33.730469 163.242188 32.914062 161.949219 32.125 160.632812 C 31.335938 159.320312 30.582031 157.984375 29.859375 156.632812 C 29.136719 155.28125 28.449219 153.914062 27.792969 152.527344 C 27.136719 151.144531 26.515625 149.742188 25.929688 148.328125 C 25.34375 146.910156 24.792969 145.480469 24.277344 144.039062 C 23.757812 142.597656 23.277344 141.140625 22.835938 139.675781 C 22.390625 138.207031 21.980469 136.730469 21.609375 135.246094 C 21.234375 133.757812 20.902344 132.261719 20.601562 130.761719 C 20.300781 129.257812 20.039062 127.75 19.816406 126.230469 C 19.589844 124.714844 19.402344 123.195312 19.253906 121.671875 C 19.101562 120.144531 18.988281 118.617188 18.914062 117.085938 C 18.839844 115.554688 18.800781 114.023438 18.800781 112.492188 C 18.800781 110.960938 18.839844 109.429688 18.914062 107.898438 C 18.988281 106.367188 19.101562 104.839844 19.253906 103.3125 C 19.402344 101.789062 19.589844 100.269531 19.816406 98.753906 C 20.039062 97.238281 20.300781 95.726562 20.601562 94.222656 C 20.902344 92.722656 21.234375 91.226562 21.609375 89.738281 C 21.980469 88.253906 22.390625 86.777344 22.835938 85.308594 C 23.277344 83.84375 23.757812 82.386719 24.277344 80.945312 C 24.792969 79.503906 25.34375 78.074219 25.929688 76.65625 C 26.515625 75.242188 27.136719 73.839844 27.792969 72.457031 C 28.449219 71.070312 29.136719 69.703125 29.859375 68.351562 C 30.582031 67 31.335938 65.664062 32.125 64.351562 C 32.914062 63.035156 33.730469 61.742188 34.582031 60.46875 C 35.433594 59.195312 36.316406 57.941406 37.230469 56.710938 C 38.144531 55.480469 39.085938 54.273438 40.058594 53.085938 C 41.03125 51.902344 42.03125 50.742188 43.058594 49.605469 C 44.089844 48.472656 45.144531 47.363281 46.230469 46.277344 C 47.3125 45.195312 48.421875 44.136719 49.558594 43.109375 C 50.691406 42.078125 51.851562 41.078125 53.039062 40.105469 C 54.222656 39.136719 55.429688 38.191406 56.660156 37.28125 C 57.890625 36.367188 59.144531 35.484375 60.417969 34.632812 C 61.691406 33.78125 62.988281 32.960938 64.300781 32.175781 C 65.617188 31.386719 66.949219 30.632812 68.300781 29.910156 C 69.652344 29.1875 71.019531 28.496094 72.40625 27.84375 C 73.792969 27.1875 75.191406 26.566406 76.609375 25.980469 C 78.023438 25.394531 79.453125 24.84375 80.894531 24.324219 C 82.339844 23.808594 83.792969 23.328125 85.261719 22.882812 C 86.726562 22.4375 88.203125 22.03125 89.691406 21.65625 C 91.175781 21.285156 92.671875 20.949219 94.175781 20.652344 C 95.675781 20.351562 97.1875 20.089844 98.703125 19.863281 C 100.21875 19.640625 101.738281 19.453125 103.265625 19.300781 C 104.789062 19.152344 106.316406 19.039062 107.847656 18.964844 C 109.378906 18.890625 110.910156 18.851562 112.441406 18.851562 C 113.976562 18.851562 115.507812 18.890625 117.039062 18.964844 C 118.566406 19.039062 120.097656 19.152344 121.621094 19.300781 C 123.144531 19.453125 124.667969 19.640625 126.183594 19.863281 C 127.699219 20.089844 129.207031 20.351562 130.710938 20.652344 C 132.214844 20.949219 133.707031 21.285156 135.195312 21.65625 C 136.683594 22.03125 138.160156 22.4375 139.625 22.882812 C 141.089844 23.328125 142.546875 23.808594 143.988281 24.324219 C 145.433594 24.84375 146.863281 25.394531 148.277344 25.980469 C 149.691406 26.566406 151.09375 27.1875 152.480469 27.84375 C 153.863281 28.496094 155.234375 29.1875 156.585938 29.910156 C 157.9375 30.632812 159.269531 31.386719 160.582031 32.175781 C 161.898438 32.960938 163.191406 33.78125 164.464844 34.632812 C 165.742188 35.484375 166.992188 36.367188 168.222656 37.28125 C 169.457031 38.191406 170.664062 39.136719 171.847656 40.105469 C 173.03125 41.078125 174.191406 42.078125 175.328125 43.109375 C 176.464844 44.136719 177.574219 45.195312 178.65625 46.277344 C 179.738281 47.363281 180.796875 48.472656 181.824219 49.605469 C 182.855469 50.742188 183.855469 51.902344 184.828125 53.085938 C 185.800781 54.273438 186.742188 55.480469 187.65625 56.710938 C 188.570312 57.941406 189.449219 59.195312 190.300781 60.46875 C 191.152344 61.742188 191.972656 63.035156 192.761719 64.351562 C 193.546875 65.664062 194.304688 67 195.027344 68.351562 C 195.75 69.703125 196.4375 71.070312 197.09375 72.457031 C 197.746094 73.839844 198.367188 75.242188 198.957031 76.65625 C 199.542969 78.074219 200.09375 79.503906 200.609375 80.945312 C 201.125 82.386719 201.605469 83.84375 202.050781 85.308594 C 202.496094 86.777344 202.90625 88.253906 203.277344 89.738281 C 203.648438 91.226562 203.984375 92.722656 204.285156 94.222656 C 204.582031 95.726562 204.84375 97.238281 205.070312 98.753906 C 205.292969 100.269531 205.480469 101.789062 205.632812 103.3125 C 205.78125 104.839844 205.894531 106.367188 205.96875 107.898438 C 206.046875 109.429688 206.082031 110.960938 206.082031 112.492188 Z M 206.082031 112.492188 " fill-opacity="1" fill-rule="nonzero"/><g clip-path="url(#708d09268f)"><path fill="#bf1e2e" d="M 112.433594 217.417969 C 54.574219 217.417969 7.511719 170.355469 7.511719 112.496094 C 7.511719 54.636719 54.574219 7.570312 112.433594 7.570312 C 170.292969 7.570312 217.363281 54.636719 217.363281 112.496094 C 217.363281 170.355469 170.300781 217.417969 112.433594 217.417969 Z M 112.433594 14.765625 C 58.550781 14.765625 14.703125 58.605469 14.703125 112.496094 C 14.703125 166.394531 58.550781 210.226562 112.433594 210.226562 C 166.332031 210.226562 210.171875 166.390625 210.171875 112.496094 C 210.179688 58.605469 166.332031 14.765625 112.433594 14.765625 Z M 112.433594 14.765625 " fill-opacity="1" fill-rule="nonzero"/></g><path fill="#ffffff" d="M 84.984375 148.203125 C 86.113281 146.800781 87.609375 145.269531 89.472656 143.625 C 91.328125 141.96875 93.46875 140.421875 95.890625 139 C 98.308594 137.585938 101.039062 136.378906 104.078125 135.402344 C 107.117188 134.433594 110.433594 133.949219 114.027344 133.960938 C 117.679688 133.976562 120.773438 134.179688 123.296875 134.578125 C 125.828125 134.988281 128.132812 135.386719 130.207031 135.828125 C 132.289062 136.25 134.25 136.671875 136.101562 137.066406 C 137.949219 137.472656 139.992188 137.671875 142.25 137.683594 C 146.515625 137.699219 149.875 136.769531 152.28125 134.933594 C 154.71875 133.089844 155.925781 129.636719 155.941406 124.578125 L 172.539062 124.640625 C 172.511719 135.363281 171.472656 143.882812 169.4375 150.203125 C 167.382812 156.511719 164.605469 161.316406 161.082031 164.589844 C 157.570312 167.859375 153.382812 169.9375 148.550781 170.824219 C 143.71875 171.707031 138.550781 172.144531 133.046875 172.128906 C 128.671875 172.117188 124.4375 171.6875 120.363281 170.824219 C 116.296875 169.964844 112.390625 169.039062 108.65625 168.035156 C 104.921875 167.039062 101.355469 166.097656 97.96875 165.226562 C 94.570312 164.34375 91.378906 163.886719 88.402344 163.871094 C 85.824219 163.871094 83.78125 164.214844 82.292969 164.917969 C 80.796875 165.617188 79.601562 166.351562 78.703125 167.136719 C 77.628906 168.097656 76.816406 169.132812 76.246094 170.261719 L 56.941406 170.191406 C 56.96875 161.757812 57.949219 154.46875 59.835938 148.335938 C 61.738281 142.183594 64.257812 136.828125 67.390625 132.257812 C 70.53125 127.691406 74.113281 123.773438 78.128906 120.5 C 82.160156 117.226562 86.253906 114.355469 90.417969 111.894531 C 94.582031 109.4375 98.671875 107.234375 102.703125 105.28125 C 106.722656 103.320312 110.300781 101.320312 113.421875 99.25 C 116.546875 97.179688 119.058594 94.9375 120.945312 92.523438 C 122.828125 90.113281 123.78125 87.253906 123.796875 83.941406 C 123.808594 78.992188 121.898438 75.308594 118.058594 72.878906 C 114.21875 70.449219 109.601562 69.226562 104.210938 69.214844 C 100.390625 69.191406 96.960938 69.464844 93.921875 70.023438 C 90.890625 70.578125 87.996094 71.546875 85.234375 72.941406 C 88.664062 73.960938 91.632812 75.605469 94.144531 77.859375 C 96.675781 80.113281 97.917969 83.4375 97.902344 87.816406 C 97.894531 89.777344 97.453125 91.671875 96.582031 93.507812 C 95.703125 95.324219 94.425781 96.988281 92.769531 98.503906 C 91.113281 100.015625 89.011719 101.1875 86.484375 102.023438 C 83.941406 102.859375 81.085938 103.269531 77.882812 103.261719 C 75.464844 103.253906 72.980469 102.855469 70.429688 102.058594 C 67.878906 101.273438 65.578125 99.996094 63.527344 98.25 C 61.484375 96.507812 59.808594 94.21875 58.5 91.410156 C 57.1875 88.59375 56.539062 85.164062 56.554688 81.113281 C 56.574219 75.722656 58.023438 70.785156 60.894531 66.296875 C 63.773438 61.804688 67.804688 57.933594 72.988281 54.660156 C 78.167969 51.386719 84.386719 48.886719 91.640625 47.136719 C 98.894531 45.390625 106.84375 44.535156 115.492188 44.558594 C 124.707031 44.589844 132.824219 45.605469 139.835938 47.585938 C 146.859375 49.570312 152.742188 52.304688 157.503906 55.78125 C 162.265625 59.25 165.859375 63.28125 168.261719 67.867188 C 170.652344 72.453125 171.84375 77.359375 171.828125 82.578125 C 171.8125 88.871094 170.777344 94.125 168.746094 98.332031 C 166.71875 102.535156 163.957031 106.003906 160.496094 108.753906 C 157.027344 111.507812 153.050781 113.746094 148.554688 115.5 C 144.046875 117.257812 139.332031 118.792969 134.371094 120.128906 C 129.417969 121.472656 124.421875 122.792969 119.371094 124.082031 C 114.308594 125.390625 109.5 127.023438 104.933594 129.015625 C 100.375 131 96.226562 133.453125 92.488281 136.386719 C 88.746094 139.316406 85.761719 143.101562 83.5625 147.6875 Z M 84.984375 148.203125 " fill-opacity="1" fill-rule="nonzero"/></svg>